SplineFontDB: 3.0
FontName: Kinnari-Bold
FullName: Kinnari Bold
FamilyName: Kinnari
Weight: Bold
Copyright: Copyright (C) 1999 Db Type. All Rights Reserved.\nCopyright (C) 2007 National Electronics and Computer Technology Center. All Rights Reserved.
Version: 001.010: 2012-02-13
ItalicAngle: 0
UnderlinePosition: -70
UnderlineWidth: 25
Ascent: 800
Descent: 200
LayerCount: 2
Layer: 0 0 "Back"  1
Layer: 1 0 "Fore"  0
NeedsXUIDChange: 1
FSType: 0
OS2Version: 0
OS2_WeightWidthSlopeOnly: 0
OS2_UseTypoMetrics: 0
CreationTime: 1136287438
ModificationTime: 1329124595
PfmFamily: 17
TTFWeight: 700
TTFWidth: 5
LineGap: 0
VLineGap: 0
Panose: 0 0 0 0 0 0 0 0 0 0
OS2TypoAscent: 0
OS2TypoAOffset: 1
OS2TypoDescent: 0
OS2TypoDOffset: 1
OS2TypoLinegap: 0
OS2WinAscent: 1286
OS2WinAOffset: 0
OS2WinDescent: 496
OS2WinDOffset: 0
HheadAscent: 1286
HheadAOffset: 0
HheadDescent: -496
HheadDOffset: 0
OS2Vendor: 'PfEd'
Lookup: 4 0 1 "'liga' Standard Ligatures in Latin lookup 2"  {"'liga' Standard Ligatures in Latin lookup 2 subtable"  } ['liga' ('latn' <'dflt' > ) ]
Lookup: 6 0 0 "'ccmp' Thai Conditional Descender Removal"  {"'ccmp' Thai Conditional Descender Removal"  } ['ccmp' ('DFLT' <'dflt' > 'thai' <'KUY ' 'THA ' 'dflt' > ) ]
Lookup: 1 0 0 "'ccmp' Pali-Sanskrit Descender Removal"  {"'ccmp' Pali-Sanskrit Descender Removal" ("descless" ) } ['ccmp' ('thai' <'PAL ' 'SAN ' > ) ]
Lookup: 6 0 0 "'ccmp' Thai General Composition"  {"'ccmp' Thai Below Vowel Tone Reordering"  "'ccmp' Thai General Composition"  } ['ccmp' ('DFLT' <'dflt' > 'thai' <'KUY ' 'PAL ' 'SAN ' 'THA ' 'dflt' > ) ]
Lookup: 1 0 0 "Thai Descender Removal Single Substitution"  {"Thai Descender Removal Single Substitution" ("descless" ) } []
Lookup: 2 0 0 "Thai Sara Am Decomposition"  {"Thai Sara Am Decomposition"  } []
Lookup: 2 0 0 "Thai Tone Nikhahit Attachment"  {"Thai Tone Nikhahit Attachment"  } []
Lookup: 1 0 0 "Thai Sara Am Lakkhang"  {"Thai Sara Am Lakkhang"  } []

StartChar: .notdef
Encoding: 0 0 0
Width: 384
Flags: W
HStem: 0 23<23 361> 568 23<23 361>
VStem: 0 23<23 568> 361 23<23 568>
LayerCount: 2
Fore
SplineSet
23 568 m 1
 23 23 l 1
 361 23 l 1
 361 568 l 1
 23 568 l 1
384 0 m 1
 0 0 l 1
 0 591 l 1
 384 591 l 1
 384 0 l 1
EndSplineSet
EndChar

StartChar: exclam
Encoding: 33 33 2
Width: 333
Flags: W
HStem: -14 140<117.8 216.592> 680 20G<142 194>
VStem: 97 140<6.13959 105.478> 101 131<503.292 679.732>
LayerCount: 2
Fore
SplineSet
232 608 m 0xd0
 232 591 230 573 229 558 c 2
 184 177 l 1
 149 177 l 1
 104 559 l 1
 104 574 101 591 101 608 c 0
 101 647 117 700 167 700 c 0
 221 700 232 647 232 608 c 0xd0
237 54 m 0xe0
 237 14 203 -14 166 -14 c 0
 132 -14 97 17 97 54 c 0
 97 92 126 126 167 126 c 0
 206 126 237 92 237 54 c 0xe0
EndSplineSet
EndChar

StartChar: numbersign
Encoding: 35 35 4
Width: 499
Flags: W
HStem: 0 21G<65 150.041 258 343.857> 217 78<-8 97 192 289 384 482> 404 80<18 127 221 318 412 507>
DStem2: 65 0 147 0 0.151084 0.988521<12.3889 219.344 310.801 408.73 502.013 694.827> 258 0 341 0 0.145453 0.989365<12.0726 219.201 310.19 408.431 501.252 694.385>
LayerCount: 2
Fore
SplineSet
507 404 m 1
 401 404 l 1
 384 295 l 1
 482 295 l 1
 482 217 l 1
 372 217 l 1
 341 0 l 1
 258 0 l 1
 289 217 l 1
 180 217 l 1
 147 0 l 1
 65 0 l 1
 97 217 l 1
 -8 217 l 1
 -8 295 l 1
 109 295 l 1
 127 404 l 1
 18 404 l 1
 18 484 l 1
 138 484 l 1
 169 687 l 1
 252 687 l 1
 221 484 l 1
 329 484 l 1
 359 687 l 1
 441 687 l 1
 412 484 l 1
 507 484 l 1
 507 404 l 1
318 404 m 1
 210 404 l 1
 192 295 l 1
 301 295 l 1
 318 404 l 1
EndSplineSet
EndChar

StartChar: dollar
Encoding: 36 36 5
Width: 499
Flags: W
HStem: -12 52<147.283 218 276 323.595> 622 52<179.143 218 276 333.658>
VStem: 32 39<127.71 194> 40 100<476.188 585.565> 218 58<-100 -12 41 272 430 622 672.136 739> 366 102<88.2404 215.419> 399 37<487 545.057>
LayerCount: 2
Fore
SplineSet
468 178 m 0xcc
 468 61 381 0 276 -11 c 1
 276 -100 l 1
 218 -100 l 1
 218 -12 l 1
 155 -11 92 8 32 43 c 1
 32 194 l 1
 71 194 l 1xec
 86 100 135 46 218 40 c 1
 218 303 l 1
 140 347 40 406 40 508 c 0
 40 613 124 667 218 674 c 1
 218 739 l 1
 276 739 l 1
 276 674 l 1
 332 670 389 653 436 616 c 1
 436 487 l 1
 399 487 l 1xda
 387 564 343 613 276 622 c 1
 276 398 l 1
 366 349 468 298 468 178 c 0xcc
218 430 m 1
 218 622 l 1
 187 614 140 581 140 533 c 0xd8
 140 481 180 456 218 430 c 1
366 152 m 0xcc
 366 210 323 244 276 272 c 1
 276 41 l 1
 332 54 366 92 366 152 c 0xcc
EndSplineSet
EndChar

StartChar: percent
Encoding: 37 37 6
Width: 832
Flags: W
HStem: -11 56<544.929 642.724> 290 60<156.892 252.78> 327 57<625.667 717.816> 588 46<390.778 522.509> 636 54<241.713 318.985> 683 20G<562 654>
VStem: 49 100<356.719 515.872> 346 50<465.468 590.657> 436 99<53.4071 192.626> 733 50<162.113 312.059>
DStem2: 180 -11 257 -11 0.485955 0.873984<37.4185 704.669 753.253 817.92>
LayerCount: 2
Fore
SplineSet
276 690 m 0xdbc0
 366 690 341 634 436 634 c 0
 492 634 545 659 579 703 c 1
 654 703 l 1x97c0
 257 -11 l 1
 180 -11 l 1
 524 604 l 1
 491 593 457 588 428 588 c 0
 414 588 402 589 390 591 c 1
 393 579 396 565 396 554 c 0
 396 412 272 290 180 290 c 0
 95 290 49 346 49 439 c 0
 49 553 158 690 276 690 c 0xdbc0
783 263 m 0
 783 98 667 -11 576 -11 c 0
 464 -11 436 55 436 138 c 0
 436 252 547 384 665 384 c 0xb3c0
 740 384 783 321 783 263 c 0
346 568 m 0
 346 581 343 593 339 605 c 1
 309 616 296 636 281 636 c 0
 246 636 149 541 149 412 c 0
 149 376 160 350 198 350 c 1xdbc0
 290 359 346 478 346 568 c 0
676 327 m 0xb3c0
 591 327 535 158 535 102 c 0
 535 67 551 45 587 45 c 0
 674 45 733 181 733 257 c 0
 733 290 714 327 676 327 c 0xb3c0
EndSplineSet
EndChar

StartChar: ampersand
Encoding: 38 38 7
Width: 777
Flags: W
HStem: -11 97<571.489 674.174> -11 79<201.099 325.422> 412 41<482 541.665 659.892 722> 647 56<310.645 405.847>
VStem: 31 115<121.949 243.5> 190 103<477.724 617.427> 425 77<512.862 628.12>
LayerCount: 2
Fore
SplineSet
768 120 m 1xbe
 710 31 671 -11 599 -11 c 0xbe
 531 -11 476 31 429 75 c 1
 372 25 296 -11 220 -11 c 0x7e
 100 -11 31 51 31 160 c 0
 31 273 143 356 221 398 c 1
 204 441 190 485 190 531 c 0
 190 625 258 703 355 703 c 0
 435 703 502 656 502 571 c 0
 502 482 427 427 353 393 c 1
 387 330 425 270 467 214 c 1
 501 255 547 326 547 373 c 0
 547 396 533 407 482 412 c 1
 482 453 l 1
 722 453 l 1
 722 412 l 1
 619 397 649 363 508 164 c 1
 545 123 585 86 644 86 c 0
 679 86 705 106 731 146 c 1
 768 120 l 1xbe
425 574 m 0
 425 613 398 647 359 647 c 0
 307 647 293 607 293 564 c 0
 293 530 312 481 327 449 c 1
 375 473 425 518 425 574 c 0
387 121 m 1
 333 189 289 264 247 341 c 1
 189 304 146 263 146 187 c 0
 146 126 201 68 263 68 c 0x7e
 298 68 349 91 387 121 c 1
EndSplineSet
EndChar

StartChar: quotesingle
Encoding: 39 39 8
Width: 179
Flags: W
HStem: 442 265<69 111>
VStem: 35 111<608.4 694.947> 69 42<442 483.6>
LayerCount: 2
Fore
SplineSet
146 650 m 2xc0
 111 442 l 1
 69 442 l 1xa0
 35 650 l 1
 29 679 58 707 91 707 c 0
 121 707 151 677 146 650 c 2xc0
EndSplineSet
EndChar

StartChar: parenleft
Encoding: 40 40 9
Width: 333
Flags: W
VStem: 37 109<122.211 413.27>
LayerCount: 2
Fore
SplineSet
321 -147 m 1
 295 -181 l 1
 154 -86 37 55 37 272 c 0
 37 450 127 599 300 707 c 1
 321 667 l 1
 181 571 146 432 146 281 c 0
 146 120 164 -23 321 -147 c 1
EndSplineSet
EndChar

StartChar: parenright
Encoding: 41 41 10
Width: 333
Flags: W
VStem: 187 109<110.1 394.796>
LayerCount: 2
Fore
SplineSet
296 244 m 0
 296 68 194 -86 35 -181 c 1
 12 -146 l 1
 154 -48 187 91 187 241 c 0
 187 404 166 561 12 668 c 1
 38 705 l 1
 88 679 296 533 296 244 c 0
EndSplineSet
EndChar

StartChar: asterisk
Encoding: 42 42 11
Width: 499
Flags: W
HStem: 346 107<63.0015 136.806 362.169 435.758> 518 103<60.9414 139.798 353.556 434.097> 690 20G<234 270>
VStem: 204 95<263.671 408.638 559.296 703.329>
LayerCount: 2
Back
SplineSet
447 372 m 0
 421 327 375 349 352 379 c 0
 333 402 313 418 272 447 c 1
 276 404 287 370 295 343 c 0
 304 309 301 257 252 257 c 0
 200 257 197 307 210 343 c 0
 221 370 226 396 229 447 c 1
 186 421 166 404 149 379 c 1
 124 350 80 327 52 373 c 0
 28 416 74 445 106 455 c 1
 132 459 166 468 201 485 c 1
 160 507 135 515 108 518 c 1
 71 525 28 551 54 598 c 0
 78 641 126 616 151 591 c 0
 170 571 194 545 229 521 c 1
 226 571 221 596 210 624 c 0
 197 659 200 710 252 710 c 0
 301 710 304 657 295 624 c 0
 287 598 278 562 272 521 c 1
 306 545 329 574 347 594 c 1
 373 619 419 642 445 599 c 0
 470 556 429 527 390 522 c 0
 361 516 336 504 290 484 c 1
 330 467 366 459 393 453 c 0
 427 444 472 415 447 372 c 0
EndSplineSet
Fore
SplineSet
454 396 m 0
 454 376 436 346 408 346 c 0
 387 346 366 361 352 379 c 0
 333 402 313 418 272 447 c 1
 279 376 299 348 299 313 c 0
 299 285 288 257 252 257 c 0
 216 257 204 281 204 308 c 0
 204 349 223 342 229 447 c 1
 186 421 166 404 149 379 c 1
 134 362 113 347 92 347 c 0
 64 347 45 377 45 396 c 0
 45 427 80 447 106 455 c 1
 132 459 166 468 201 485 c 1
 160 507 135 515 108 518 c 1
 79 524 46 541 46 571 c 0
 46 582 55 621 91 621 c 0
 139 621 163 566 229 521 c 1
 223 625 204 618 204 659 c 0
 204 686 216 710 252 710 c 0
 288 710 299 682 299 654 c 0
 299 624 283 598 272 521 c 1
 306 545 329 574 347 594 c 1
 362 609 385 623 406 623 c 0
 434 623 453 596 453 574 c 0
 453 545 421 526 390 522 c 1
 361 516 336 504 290 484 c 1
 330 467 366 459 393 453 c 0
 420 446 454 426 454 396 c 0
EndSplineSet
EndChar

StartChar: plus
Encoding: 43 43 12
Width: 563
Flags: W
HStem: 241 89<18 238 326 545>
VStem: 238 88<20 241 330 548>
LayerCount: 2
Fore
SplineSet
545 241 m 1
 326 241 l 1
 326 20 l 1
 238 20 l 1
 238 241 l 1
 18 241 l 1
 18 330 l 1
 238 330 l 1
 238 548 l 1
 326 548 l 1
 326 330 l 1
 545 330 l 1
 545 241 l 1
EndSplineSet
EndChar

StartChar: comma
Encoding: 44 44 13
Width: 250
Flags: W
HStem: -2 131<67.7473 148.821>
VStem: 151 64<-46.1678 43.5>
LayerCount: 2
Fore
SplineSet
215 18 m 0
 215 -40 146 -120 84 -143 c 1
 65 -103 l 1
 103 -84 151 -35 151 -5 c 0
 151 -3 149 -2 147 -2 c 0
 138 -2 124 -5 115 -5 c 0
 80 -2 51 20 51 57 c 0
 51 103 77 129 123 129 c 0
 190 129 215 69 215 18 c 0
EndSplineSet
EndChar

StartChar: hyphen
Encoding: 45 45 14
Width: 333
Flags: W
HStem: 241 88<31 301>
VStem: 31 270<241 329>
LayerCount: 2
Fore
SplineSet
301 241 m 1
 31 241 l 1
 31 329 l 1
 301 329 l 1
 301 241 l 1
EndSplineSet
EndChar

StartChar: period
Encoding: 46 46 15
Width: 250
Flags: W
HStem: -11 140<76.4357 175.318>
VStem: 55 140<10.458 108.063>
LayerCount: 2
Fore
SplineSet
195 58 m 0
 195 17 163 -11 124 -11 c 0
 88 -11 55 23 55 58 c 0
 55 95 86 129 124 129 c 0
 163 129 195 100 195 58 c 0
EndSplineSet
EndChar

StartChar: slash
Encoding: 47 47 16
Width: 278
Flags: W
HStem: 690 20G<223.636 319>
DStem2: -29 -104 60 -104 0.303204 0.952926<26.9851 854.211>
LayerCount: 2
Fore
SplineSet
319 710 m 1
 60 -104 l 1
 -29 -104 l 1
 230 710 l 1
 319 710 l 1
EndSplineSet
EndChar

StartChar: zero
Encoding: 48 48 17
Width: 537
Flags: W
HStem: -14 52<214.148 325.423> 650 50<216.234 322.863>
VStem: 29 122<182.254 503.211> 384 121<185.918 505.482>
LayerCount: 2
Fore
SplineSet
505 339 m 0
 505 197 447 -14 261 -14 c 0
 114 -14 29 143 29 346 c 0
 29 495 86 700 266 700 c 0
 422 700 505 544 505 339 c 0
384 338 m 0
 384 508 362 650 272 650 c 0
 164 650 151 485 151 326 c 0
 151 184 166 38 269 38 c 0
 376 38 384 192 384 338 c 0
EndSplineSet
EndChar

StartChar: one
Encoding: 49 49 18
Width: 537
Flags: W
HStem: 0 37<129 209.539 346.461 427>
VStem: 223 110<50.6197 584.967>
LayerCount: 2
Fore
SplineSet
427 0 m 1
 129 0 l 1
 129 37 l 1
 209 43 223 55 223 92 c 2
 223 541 l 2
 223 574 216 585 200 585 c 0
 183 585 158 574 120 561 c 1
 120 599 l 1
 333 708 l 1
 333 92 l 2
 333 55 347 43 427 37 c 1
 427 0 l 1
EndSplineSet
EndChar

StartChar: two
Encoding: 50 50 19
Width: 537
Flags: W
HStem: 0 101<180 446.034> 604 96<169.269 293.809>
VStem: 40 43<481.721 518.308> 349 110<408.287 549.688>
DStem2: 214 214 180 101 0.682745 0.730657<-105.778 178.083>
LayerCount: 2
Fore
SplineSet
513 155 m 1
 450 0 l 1
 40 0 l 1
 43 31 l 1
 214 214 l 2
 276 281 349 373 349 472 c 0
 349 551 298 604 218 604 c 0
 146 604 109 542 83 470 c 1
 40 484 l 1
 63 613 141 700 269 700 c 0
 373 700 459 617 459 513 c 0
 459 416 413 346 319 247 c 2
 180 101 l 1
 364 101 l 2
 432 101 438 104 482 172 c 1
 513 155 l 1
EndSplineSet
EndChar

StartChar: three
Encoding: 51 51 20
Width: 537
Flags: W
HStem: -11 60<181.565 306.159> 333 36<164 209.635> 619 84<171.077 295.679>
VStem: 329 103<482.128 585.796> 370 95<131.098 268.864>
LayerCount: 2
Fore
SplineSet
465 229 m 0xe8
 465 71 326 -11 183 -11 c 0
 140 -11 55 -3 55 58 c 0
 55 88 77 104 104 104 c 0
 154 104 187 49 247 49 c 0
 323 49 370 111 370 183 c 0xe8
 370 287 313 333 164 333 c 1
 163 369 l 1
 243 393 329 435 329 525 c 0
 329 582 289 619 232 619 c 0
 170 619 127 584 89 513 c 1
 52 524 l 1
 91 641 163 703 264 703 c 0
 378 703 432 642 432 558 c 0xf0
 432 495 396 452 352 419 c 1
 427 382 465 326 465 229 c 0xe8
EndSplineSet
EndChar

StartChar: four
Encoding: 52 52 21
Width: 537
Flags: W
HStem: 0 21G<303 404> 157 87<98 303 404 505> 670 20G<324.049 404>
VStem: 303 101<0 157 244 531>
DStem2: 22 237 98 244 0.572125 0.820166<49.2227 401.896>
LayerCount: 2
Fore
SplineSet
505 157 m 1
 404 157 l 1
 404 0 l 1
 303 0 l 1
 303 157 l 1
 22 157 l 1
 22 237 l 1
 338 690 l 1
 404 690 l 1
 404 244 l 1
 505 244 l 1
 505 157 l 1
303 244 m 1
 303 531 l 1
 98 244 l 1
 303 244 l 1
EndSplineSet
EndChar

StartChar: five
Encoding: 53 53 22
Width: 537
Flags: W
HStem: -11 60<148.5 297.24> 585 105<212 421>
VStem: 367 94<140.261 294.569>
LayerCount: 2
Fore
SplineSet
180 -11 m 0
 117 -11 42 4 42 64 c 0
 42 93 65 112 100 112 c 0
 163 112 186 49 240 49 c 0
 319 49 367 123 367 210 c 0
 367 359 218 407 98 415 c 1
 82 418 74 428 74 439 c 0
 74 441 75 442 75 444 c 2
 189 690 l 1
 393 690 l 2
 419 690 425 690 450 719 c 1
 476 700 l 1
 421 585 l 1
 212 585 l 1
 181 522 l 1
 338 495 461 442 461 243 c 0
 461 86 335 -11 180 -11 c 0
EndSplineSet
EndChar

StartChar: six
Encoding: 54 54 23
Width: 537
Flags: W
HStem: -11 52<236.04 350.968> 386 69<213.657 328.38> 670 40<409.005 479>
VStem: 46 117<154.954 355.177> 389 113<122.54 313.494>
LayerCount: 2
Fore
SplineSet
502 229 m 0
 502 103 421 -11 286 -11 c 0
 154 -11 46 97 46 289 c 0
 46 511 200 671 409 702 c 1
 425 703 442 710 479 710 c 1
 484 670 l 1
 442 659 412 657 379 641 c 0
 300 604 218 538 192 422 c 1
 227 442 263 455 304 455 c 0
 429 455 502 369 502 229 c 0
389 193 m 0
 389 278 364 386 267 386 c 0
 240 386 196 374 174 352 c 1
 163 327 163 296 163 263 c 0
 163 137 209 41 301 41 c 0
 360 41 389 106 389 193 c 0
EndSplineSet
EndChar

StartChar: seven
Encoding: 55 55 24
Width: 537
Flags: W
HStem: -11 21G<175 273.468> 590 100<110.186 375>
DStem2: 175 -11 267 -11 0.307707 0.951481<28.309 633.382>
LayerCount: 2
Fore
SplineSet
484 660 m 1
 267 -11 l 1
 175 -11 l 1
 375 590 l 1
 187 590 l 2
 120 590 106 573 66 507 c 1
 29 525 l 1
 95 690 l 1
 484 690 l 1
 484 660 l 1
EndSplineSet
EndChar

StartChar: eight
Encoding: 56 56 25
Width: 537
Flags: W
HStem: -11 49<213.299 340.785> 653 50<200.307 326.215>
VStem: 65 99<89.8759 246.224 510.398 602.691> 362 94<478.137 616.463> 376 102<87.6599 207.998>
LayerCount: 2
Fore
SplineSet
478 169 m 0xe8
 478 54 373 -11 266 -11 c 0
 161 -11 65 52 65 167 c 0
 65 250 127 304 186 347 c 1
 126 406 71 442 71 542 c 0
 71 616 141 703 273 703 c 0
 359 703 456 653 456 554 c 0xf0
 456 470 398 421 333 386 c 1
 402 330 478 267 478 169 c 0xe8
362 551 m 0
 362 611 323 653 264 653 c 0
 212 653 169 619 169 565 c 0
 169 501 232 452 281 419 c 1
 329 449 362 495 362 551 c 0
376 141 m 0xe8
 376 221 292 270 232 312 c 1
 230 312 230 310 230 310 c 1
 192 280 164 226 164 178 c 0
 164 101 201 38 281 38 c 0
 339 38 376 83 376 141 c 0xe8
EndSplineSet
EndChar

StartChar: nine
Encoding: 57 57 26
Width: 537
Flags: W
HStem: -20 43<72 147.525> 240 67<212.182 327.331> 653 50<201.066 311.809>
VStem: 41 117<371.877 562.724> 373 122<344.088 534.182>
LayerCount: 2
Fore
SplineSet
267 703 m 0
 404 703 495 570 495 401 c 0
 495 228 363 70 237 17 c 1
 178 -9 115 -20 72 -20 c 1
 66 23 l 1
 137 35 226 61 290 147 c 0
 319 186 346 232 361 280 c 1
 318 253 275 240 233 240 c 0
 120 240 41 324 41 462 c 0
 41 550 97 703 267 703 c 0
373 429 m 0
 373 510 359 653 253 653 c 0
 174 653 158 554 158 492 c 0
 158 412 178 307 273 307 c 0
 301 307 350 326 370 350 c 1
 373 375 373 399 373 429 c 0
EndSplineSet
EndChar

StartChar: colon
Encoding: 58 58 27
Width: 278
Flags: W
HStem: -8 140<90.8903 190.068> 392 139<90.5 190.068>
VStem: 71 139<11.125 112.25 410.75 511.068>
LayerCount: 2
Fore
SplineSet
210 461 m 0
 210 419 178 392 140 392 c 0
 100 392 71 425 71 461 c 0
 71 498 98 531 140 531 c 0
 177 531 210 502 210 461 c 0
210 61 m 0
 210 20 178 -8 140 -8 c 0
 100 -8 71 26 71 61 c 0
 71 98 98 132 140 132 c 0
 177 132 210 103 210 61 c 0
EndSplineSet
EndChar

StartChar: semicolon
Encoding: 59 59 28
Width: 278
Flags: W
HStem: -2 131<82.5207 165.06> 392 139<90.625 186.405>
VStem: 69 140<414.875 510.625> 166 64<-46.1678 45>
LayerCount: 2
Fore
SplineSet
209 464 m 0xe0
 209 429 175 392 140 392 c 0
 98 392 69 429 69 464 c 0
 69 499 103 531 140 531 c 0
 175 531 209 499 209 464 c 0xe0
230 18 m 0xd0
 230 -40 161 -120 100 -143 c 1
 80 -103 l 1
 118 -84 166 -35 166 -5 c 0
 166 -3 164 -2 163 -2 c 0
 154 -2 140 -5 131 -5 c 0
 95 -2 66 20 66 57 c 0
 66 103 92 129 138 129 c 0
 201 129 230 72 230 18 c 0xd0
EndSplineSet
EndChar

StartChar: less
Encoding: 60 60 29
Width: 563
Flags: W
DStem2: 15 295 135 261 0.907959 0.419058<94.7072 549.734> 135 261 15 226 0.909253 -0.416243<0 454.608>
LayerCount: 2
Fore
SplineSet
548 -18 m 1
 15 226 l 1
 15 295 l 1
 548 541 l 1
 548 452 l 1
 135 261 l 1
 548 71 l 1
 548 -18 l 1
EndSplineSet
EndChar

StartChar: equal
Encoding: 61 61 30
Width: 563
Flags: W
HStem: 120 89<18 545> 313 89<18 545>
LayerCount: 2
Fore
SplineSet
545 313 m 1
 18 313 l 1
 18 402 l 1
 545 402 l 1
 545 313 l 1
545 120 m 1
 18 120 l 1
 18 209 l 1
 545 209 l 1
 545 120 l 1
EndSplineSet
EndChar

StartChar: greater
Encoding: 62 62 31
Width: 563
Flags: W
HStem: -3 21G<15 58.6885>
DStem2: 15 556 15 467 0.907959 -0.419058<37.2962 491.416> 15 86 15 -3 0.909253 0.416243<0 453.699>
LayerCount: 2
Fore
SplineSet
548 241 m 1
 15 -3 l 1
 15 86 l 1
 427 276 l 1
 15 467 l 1
 15 556 l 1
 548 310 l 1
 548 241 l 1
EndSplineSet
EndChar

StartChar: question
Encoding: 63 63 32
Width: 443
Flags: W
HStem: -14 140<168 263.875> 647 53<132.912 251.635>
VStem: 37 79<531.5 622.866> 146 140<7.82204 103.131> 195 40<164 235.913> 290 117<444.898 607.271>
LayerCount: 2
Fore
SplineSet
116 595 m 0xec
 116 569 151 565 151 522 c 0
 151 490 127 470 94 470 c 0
 51 470 37 515 37 548 c 0
 37 645 129 700 217 700 c 0
 338 700 407 614 407 530 c 0
 407 462 364 399 326 355 c 0
 273 293 246 230 235 164 c 1
 195 164 l 1
 195 332 290 398 290 528 c 0
 290 588 260 647 195 647 c 0
 166 647 116 628 116 595 c 0xec
286 55 m 0xf4
 286 15 250 -14 217 -14 c 0
 181 -14 146 18 146 55 c 0
 146 92 181 126 217 126 c 0
 250 126 286 94 286 55 c 0xf4
EndSplineSet
EndChar

StartChar: at
Encoding: 64 64 33
Width: 920
Flags: W
HStem: -155 64<363.106 630.212> -22 20G<726.5 774> 41 68<393.545 477.112 633.002 719.285> 427 71<474.909 560.375> 636 63<392.096 614.914>
VStem: 43 120<125.148 381.568> 267 117<117.477 307.591> 816 64<239.008 446.854>
LayerCount: 2
Fore
SplineSet
880 343 m 0
 880 177 765 40 659 40 c 0
 625 40 565 49 538 109 c 1
 499 66 441 41 401 41 c 0
 324 41 267 86 267 197 c 0
 267 349 392 498 510 498 c 0
 551 498 581 478 599 455 c 1
 607 484 l 1
 719 484 l 1
 633 154 l 2
 632 149 631 145 631 141 c 0
 631 119 648 108 667 108 c 0
 737 108 816 232 816 341 c 0
 816 518 654 636 501 636 c 0
 295 636 163 427 163 261 c 0
 163 115 220 -91 495 -91 c 0
 588 -91 700 -55 753 -2 c 1
 774 -14 l 1
 753 -81 l 1
 753 -81 654 -155 493 -155 c 0
 284 -155 43 -35 43 269 c 0
 43 441 186 699 501 699 c 0
 631 699 880 611 880 343 c 0
570 356 m 0
 570 410 550 427 525 427 c 0
 475 427 384 344 384 187 c 0
 384 134 396 109 433 109 c 0
 464 109 502 147 511 166 c 1
 525 189 570 287 570 356 c 0
EndSplineSet
EndChar

StartChar: A
Encoding: 65 65 34
Width: 721
Flags: W
HStem: 0 45<3 56.103 158.049 226 438 504.893 656.895 717> 217 64<235 429> 670 20G<326.625 387.705>
DStem2: 134 210 209 217 0.386252 0.922393<-115.058 35.4257 104.501 355.191> 379 690 330 513 0.399088 -0.916913<142.738 394.972 463.232 614.893>
LayerCount: 2
Fore
SplineSet
717 0 m 1
 438 0 l 1
 438 45 l 1
 488 47 506 54 506 74 c 0
 506 88 497 109 485 138 c 2
 453 217 l 1
 209 217 l 1
 194 177 157 108 157 74 c 0
 157 48 187 45 226 45 c 1
 226 0 l 1
 3 0 l 1
 3 43 l 1
 72 49 95 120 134 210 c 1
 335 690 l 1
 379 690 l 1
 621 134 l 2
 645 78 654 45 717 45 c 1
 717 0 l 1
429 281 m 1
 330 513 l 1
 235 281 l 1
 429 281 l 1
EndSplineSet
EndChar

StartChar: B
Encoding: 66 66 35
Width: 666
Flags: W
HStem: 0 61<233.263 407.641> 0 45<8 94.9824> 326 64<230 393.413> 625 65<230.428 393.492> 645 45<8 94.0937>
VStem: 104 126<66.6426 326 390 622.009> 447 127<438.265 576.025> 468 140<115.322 266.988>
LayerCount: 2
Fore
SplineSet
608 195 m 0x35
 608 69 499 0 335 0 c 2xb5
 8 0 l 1
 8 45 l 1
 89 45 104 68 104 92 c 2
 104 598 l 2
 104 621 89 645 8 645 c 1
 8 690 l 1x6d
 287 690 l 2
 450 690 574 642 574 508 c 0x36
 574 433 535 386 473 361 c 1
 547 335 608 281 608 195 c 0x35
447 505 m 0x36
 447 600 373 625 286 625 c 0
 246 625 230 618 230 598 c 2
 230 390 l 1
 300 390 l 2
 392 390 447 432 447 505 c 0x36
468 197 m 0xa5
 468 309 356 326 267 326 c 2
 230 326 l 1
 230 103 l 2
 230 74 240 61 300 61 c 0
 396 61 468 89 468 197 c 0xa5
EndSplineSet
EndChar

StartChar: C
Encoding: 67 67 36
Width: 666
Flags: W
HStem: -14 69<295.134 489.156> 634 66<289.594 475.823>
VStem: 22 139<209.291 471.515> 591 45<450 508.57>
LayerCount: 2
Fore
SplineSet
651 123 m 1
 584 38 476 -14 376 -14 c 0
 175 -14 22 115 22 343 c 0
 22 548 166 700 375 700 c 0
 461 700 512 661 546 661 c 0
 563 661 576 671 587 699 c 1
 628 699 l 1
 636 450 l 1
 591 450 l 1
 561 562 493 634 384 634 c 0
 227 634 161 507 161 335 c 0
 161 201 230 55 386 55 c 0
 481 55 544 86 621 163 c 1
 651 123 l 1
EndSplineSet
EndChar

StartChar: D
Encoding: 68 68 37
Width: 721
Flags: W
HStem: 0 65<225.418 405.268> 0 45<8 86.7207> 627 63<223.89 393.454> 645 45<8 85.9091>
VStem: 95 128<69.4752 625.766> 567 133<223.914 464.384>
LayerCount: 2
Fore
SplineSet
700 344 m 0x2c
 700 135 562 0 286 0 c 2xac
 8 0 l 1
 8 45 l 1
 81 45 95 68 95 92 c 2
 95 598 l 2
 95 621 81 645 8 645 c 1
 8 690 l 1x5c
 278 690 l 2
 541 690 700 576 700 344 c 0x2c
223 103 m 2
 223 66 252 65 280 65 c 0
 463 65 567 173 567 343 c 0
 567 531 444 627 267 627 c 0
 230 627 223 627 223 588 c 2
 223 103 l 2
EndSplineSet
EndChar

StartChar: E
Encoding: 69 69 38
Width: 609
Flags: W
HStem: 0 66<215.023 478.215> 0 45<0 79.1406> 326 66<215 424.904> 624 66<215.36 468.936> 645 45<0 78.2916>
VStem: 88 127<66.582 326 392 622.972> 455 44<229 297.088 419.589 487> 510 44<522 580.201>
LayerCount: 2
Fore
SplineSet
613 194 m 1xb7
 561 0 l 1
 0 0 l 1
 0 45 l 1
 72 45 88 68 88 92 c 2
 88 598 l 2
 88 621 72 645 0 645 c 1
 0 690 l 1
 554 690 l 1x6f
 554 522 l 1
 510 522 l 1
 499 581 468 624 407 624 c 2
 246 624 l 2
 229 624 215 614 215 598 c 2
 215 392 l 1
 343 392 l 2
 402 392 455 406 455 487 c 1
 499 487 l 1
 499 229 l 1
 455 229 l 1
 455 310 402 326 343 326 c 2
 215 326 l 1
 215 92 l 2
 215 81 215 66 227 66 c 2
 359 66 l 2
 435 66 508 68 561 194 c 1
 613 194 l 1xb7
EndSplineSet
EndChar

StartChar: F
Encoding: 70 70 39
Width: 556
Flags: W
HStem: 0 45<0 79.1406 223.385 304> 326 66<215 415.255> 624 66<215.167 478.1> 645 45<0 78.2916>
VStem: 88 127<57.1204 326 392 622.979> 445 47<229 297.088 419.589 487> 508 48<522 592.506>
LayerCount: 2
Fore
SplineSet
556 522 m 1xde
 508 522 l 1
 496 633 441 624 376 624 c 2
 244 624 l 2xee
 221 624 215 613 215 598 c 2
 215 392 l 1
 333 392 l 2
 393 392 445 406 445 487 c 1
 492 487 l 1
 492 229 l 1
 445 229 l 1
 445 310 393 326 333 326 c 2
 215 326 l 1
 215 92 l 2
 215 68 229 45 304 45 c 1
 304 0 l 1
 0 0 l 1
 0 45 l 1
 72 45 88 68 88 92 c 2
 88 598 l 2
 88 621 72 645 0 645 c 1
 0 690 l 1
 556 690 l 1
 556 522 l 1xde
EndSplineSet
EndChar

StartChar: G
Encoding: 71 71 40
Width: 721
Flags: W
HStem: -14 66<297.435 501.632> 336 45<436 512.185 654.157 716> 636 64<284.576 478.853>
VStem: 15 140<211.862 469.382> 524 121<72.5113 322.967> 593 43<464 511.66>
LayerCount: 2
Fore
SplineSet
716 336 m 1xf8
 648 336 645 307 645 260 c 2
 645 61 l 1xf8
 581 26 465 -14 382 -14 c 0
 206 -14 15 98 15 341 c 0
 15 547 163 700 370 700 c 0
 447 700 505 665 543 665 c 0
 562 665 576 674 585 700 c 1
 628 700 l 1
 636 464 l 1
 593 464 l 1xf4
 554 573 492 636 379 636 c 0
 221 636 155 501 155 333 c 0
 155 186 235 52 395 52 c 0
 430 52 470 58 502 72 c 1
 524 83 524 88 524 111 c 2
 524 260 l 2
 524 309 519 336 436 336 c 1
 436 381 l 1
 716 381 l 1
 716 336 l 1xf8
EndSplineSet
EndChar

StartChar: H
Encoding: 72 72 41
Width: 721
Flags: W
HStem: 0 45<8 86.7207 231.279 310 412 492.088 635.543 714> 321 66<223 501> 645 45<3 85.89 232.091 310 412 491.232 636.37 714>
VStem: 95 128<56.3647 321 387 633.312> 501 126<57.1204 321 387 632.543>
LayerCount: 2
Fore
SplineSet
714 0 m 1
 412 0 l 1
 412 45 l 1
 485 45 501 68 501 92 c 2
 501 321 l 1
 223 321 l 1
 223 92 l 2
 223 68 237 45 310 45 c 1
 310 0 l 1
 8 0 l 1
 8 45 l 1
 81 45 95 68 95 92 c 2
 95 598 l 2
 95 621 82 645 3 645 c 1
 3 690 l 1
 310 690 l 1
 310 645 l 1
 237 645 223 621 223 598 c 2
 223 387 l 1
 501 387 l 1
 501 598 l 2
 501 621 485 645 412 645 c 1
 412 690 l 1
 714 690 l 1
 714 645 l 1
 642 645 627 621 627 598 c 2
 627 92 l 2
 627 68 642 45 714 45 c 1
 714 0 l 1
EndSplineSet
EndChar

StartChar: I
Encoding: 73 73 42
Width: 333
Flags: W
HStem: 0 45<6 94.877 239.439 329> 645 45<6 93.9745 240.364 329>
VStem: 104 126<57.8952 631.755>
LayerCount: 2
Fore
SplineSet
329 0 m 1
 6 0 l 1
 6 45 l 1
 89 45 104 68 104 92 c 2
 104 598 l 2
 104 621 89 645 6 645 c 1
 6 690 l 1
 329 690 l 1
 329 645 l 1
 246 645 230 621 230 598 c 2
 230 92 l 2
 230 68 246 45 329 45 c 1
 329 0 l 1
EndSplineSet
EndChar

StartChar: J
Encoding: 74 74 43
Width: 388
Flags: W
HStem: -14 63<60.5 157.007> 645 45<66 153.975 300.364 389>
VStem: -2 119<49.3806 116.556> 164 126<91.5796 631.755>
LayerCount: 2
Fore
SplineSet
117 89 m 0
 117 85 116 84 116 77 c 0
 116 64 124 49 135 49 c 0
 160 49 164 91 164 126 c 2
 164 598 l 2
 164 621 149 645 66 645 c 1
 66 690 l 1
 389 690 l 1
 389 645 l 1
 306 645 290 621 290 598 c 2
 290 210 l 2
 290 60 210 -14 112 -14 c 0
 9 -14 -2 59 -2 71 c 0
 -2 100 23 132 58 132 c 0
 96 132 117 104 117 89 c 0
EndSplineSet
EndChar

StartChar: K
Encoding: 75 75 44
Width: 721
Flags: W
HStem: 0 45<8 89.2988 233.018 315 392 460.987 645.363 720> 645 45<8 88.4513 233.947 316 387 454.973 581.392 673>
VStem: 98 126<57.1204 306 390 632.543>
DStem2: 336 390 237 315 0.681535 -0.731786<0 327.677>
LayerCount: 2
Fore
SplineSet
720 0 m 1
 392 0 l 1
 392 45 l 1
 443 45 461 47 461 58 c 0
 461 70 411 141 326 224 c 1
 237 315 l 1
 224 306 l 1
 224 92 l 2
 224 68 240 45 315 45 c 1
 315 0 l 1
 8 0 l 1
 8 45 l 1
 83 45 98 68 98 92 c 2
 98 598 l 2
 98 621 83 645 8 645 c 1
 8 690 l 1
 316 690 l 1
 316 645 l 1
 240 645 224 621 224 598 c 2
 224 390 l 1
 292 449 455 584 455 624 c 0
 455 653 418 644 387 647 c 1
 387 690 l 1
 673 690 l 1
 673 645 l 1
 590 645 554 608 508 562 c 2
 336 390 l 1
 553 157 l 1
 602 101 641 45 720 45 c 1
 720 0 l 1
EndSplineSet
EndChar

StartChar: L
Encoding: 76 76 45
Width: 609
Flags: W
HStem: 0 66<215.395 475.087> 0 45<0 79.1406> 645 45<0 78.2916 224.151 303>
VStem: 88 127<71.465 632.543>
LayerCount: 2
Fore
SplineSet
614 198 m 1xb0
 559 0 l 1
 0 0 l 1
 0 45 l 1x70
 72 45 88 68 88 92 c 2
 88 598 l 2
 88 621 72 645 0 645 c 1
 0 690 l 1
 303 690 l 1
 303 645 l 1
 229 645 215 621 215 598 c 2
 215 92 l 2
 215 69 249 66 303 66 c 2
 331 66 l 2
 436 66 513 71 565 198 c 1
 614 198 l 1xb0
EndSplineSet
EndChar

StartChar: M
Encoding: 77 77 46
Width: 887
Flags: W
HStem: 0 45<8 94.9824 181.07 269 581 659.457 802.596 882> 645 45<9 94.1533 803.151 882>
VStem: 104 68<57.1204 505> 668 126<56.3647 528>
DStem2: 227 690 172 505 0.414482 -0.910058<145.564 540.178> 450 198 432 0 0.408063 0.912954<0 390.232>
LayerCount: 2
Fore
SplineSet
882 0 m 1
 581 0 l 1
 581 45 l 1
 653 45 668 68 668 92 c 2
 668 528 l 1
 432 0 l 1
 402 0 l 1
 172 505 l 1
 172 92 l 2
 172 68 187 45 269 45 c 1
 269 0 l 1
 8 0 l 1
 8 45 l 1
 89 45 104 68 104 92 c 2
 104 598 l 2
 104 621 89 645 9 645 c 1
 9 690 l 1
 227 690 l 1
 450 198 l 1
 662 690 l 1
 882 690 l 1
 882 645 l 1
 808 645 794 621 794 598 c 2
 794 92 l 2
 794 68 809 45 882 45 c 1
 882 0 l 1
EndSplineSet
EndChar

StartChar: N
Encoding: 78 78 47
Width: 721
Flags: W
HStem: -14 21G<574.06 624> 0 45<0 87.666 174.807 263> 645 45<0 73.9981 458 544.652 633.906 720>
VStem: 97 69<57.8952 518> 554 70<229 632.543>
DStem2: 189 690 166 518 0.62326 -0.782015<120.172 587.999>
LayerCount: 2
Fore
SplineSet
720 645 m 1x78
 639 645 624 621 624 598 c 2
 624 -14 l 1
 590 -14 l 1xb8
 166 518 l 1
 166 92 l 2
 166 68 180 45 263 45 c 1
 263 0 l 1
 0 0 l 1
 0 45 l 1
 81 45 97 68 97 92 c 2
 97 596 l 1
 91 605 l 1
 63 636 57 645 0 645 c 1
 0 690 l 1
 189 690 l 1
 554 229 l 1
 554 598 l 2
 554 621 541 645 458 645 c 1
 458 690 l 1
 720 690 l 1
 720 645 l 1x78
EndSplineSet
EndChar

StartChar: O
Encoding: 79 79 48
Width: 721
Flags: W
HStem: -14 62<276.053 444.819> 639 61<275.094 446.422>
VStem: 22 138<212.651 478.897> 562 137<209.614 476.486>
LayerCount: 2
Fore
SplineSet
699 343 m 0
 699 143 568 -14 361 -14 c 0
 178 -14 22 124 22 343 c 0
 22 550 153 700 361 700 c 0
 549 700 699 564 699 343 c 0
562 343 m 0
 562 492 514 639 361 639 c 0
 225 639 160 526 160 343 c 0
 160 146 241 48 361 48 c 0
 525 48 562 235 562 343 c 0
EndSplineSet
EndChar

StartChar: P
Encoding: 80 80 49
Width: 556
Flags: W
HStem: 0 45<-2 79.0352 222.543 301> 289 63<214 356.807> 627 63<214.134 354.014> 645 45<5 79.1475>
VStem: 88 126<57.1204 292 352.458 626.668> 421 133<412.361 570.078>
LayerCount: 2
Fore
SplineSet
554 502 m 0xec
 554 347 422 289 287 289 c 0
 264 289 238 290 214 292 c 1
 214 92 l 2
 214 68 229 45 301 45 c 1
 301 0 l 1
 -2 0 l 1
 -2 45 l 1
 72 45 88 68 88 92 c 2
 88 598 l 2
 88 621 74 645 5 645 c 1
 5 690 l 1xdc
 267 690 l 2
 430 690 554 627 554 502 c 0xec
421 495 m 0
 421 601 333 627 244 627 c 0xec
 215 627 214 624 214 594 c 2
 214 355 l 1
 226 353 238 352 250 352 c 0
 350 352 421 387 421 495 c 0
EndSplineSet
EndChar

StartChar: Q
Encoding: 81 81 50
Width: 721
Flags: W
HStem: -177 42<604.359 713> 639 61<275.947 444.293>
VStem: 22 138<210.442 476.055> 562 137<210.476 475.419>
LayerCount: 2
Fore
SplineSet
713 -177 m 1
 347 -177 313 -44 258 -5 c 1
 250 5 237 8 230 9 c 0
 95 46 22 201 22 343 c 0
 22 545 149 700 361 700 c 0
 570 700 699 544 699 343 c 0
 699 154 578 14 449 -6 c 1
 515 -84 594 -132 713 -135 c 1
 713 -177 l 1
562 343 m 0
 562 531 484 639 361 639 c 0
 232 639 160 533 160 343 c 0
 160 155 237 48 361 48 c 0
 493 48 562 167 562 343 c 0
EndSplineSet
EndChar

StartChar: R
Encoding: 82 82 51
Width: 666
Flags: W
HStem: 0 45<0 76.1426 220.332 300 597.213 665> 306 61<212 249> 627 63<212.577 360.05> 645 45<0 75.3669>
VStem: 84 128<56.3647 306 367 625.766> 421 133<429.986 573.917>
DStem2: 384 323 249 307 0.612692 -0.790322<0 318.381>
LayerCount: 2
Fore
SplineSet
665 0 m 1xec
 487 0 l 1
 249 307 l 1
 212 306 l 1
 212 92 l 2
 212 68 226 45 300 45 c 1
 300 0 l 1
 0 0 l 1
 0 45 l 1
 71 45 84 68 84 92 c 2
 84 598 l 2
 84 621 71 645 0 645 c 1
 0 690 l 1xdc
 276 690 l 2
 452 690 554 624 554 501 c 0
 554 395 475 341 384 323 c 1
 568 95 l 1
 593 66 613 48 665 43 c 1
 665 0 l 1xec
421 499 m 0
 421 590 355 627 273 627 c 0xec
 220 627 212 630 212 591 c 2
 212 367 l 1
 339 373 421 401 421 499 c 0
EndSplineSet
EndChar

StartChar: S
Encoding: 83 83 52
Width: 556
Flags: W
HStem: -14 63<188.685 337.606> 634 66<195.155 337.097>
VStem: 58 111<500.144 606.088> 61 43<-14 20.9915> 377 125<96.2878 215.486> 433 49<462 521.943>
LayerCount: 2
Fore
SplineSet
377 149 m 0xd8
 377 317 58 316 58 521 c 0
 58 627 144 700 247 700 c 0
 314 700 356 665 384 665 c 0
 398 665 408 674 416 700 c 1
 458 700 l 1
 482 462 l 1
 433 462 l 1
 410 559 349 634 263 634 c 0
 210 634 169 607 169 551 c 0xe4
 169 498 229 461 269 436 c 1
 410 352 502 306 502 181 c 0
 502 86 425 -14 280 -14 c 0
 215 -14 164 22 133 22 c 0
 118 22 108 13 104 -14 c 1
 61 -14 l 1
 29 226 l 1
 74 226 l 1
 106 129 172 49 272 49 c 0
 333 49 377 93 377 149 c 0xd8
EndSplineSet
EndChar

StartChar: T
Encoding: 84 84 53
Width: 609
Flags: W
HStem: 0 45<154 232.721 377.016 456> 622 68<94.413 241 369 517.297>
VStem: 6 48<495 570.412> 241 128<56.3647 622> 559 46<495 570.412>
LayerCount: 2
Fore
SplineSet
605 495 m 1
 559 495 l 1
 537 619 496 622 435 622 c 2
 369 622 l 1
 369 92 l 2
 369 68 382 45 456 45 c 1
 456 0 l 1
 154 0 l 1
 154 45 l 1
 227 45 241 68 241 92 c 2
 241 622 l 1
 175 622 l 2
 114 622 76 619 54 495 c 1
 6 495 l 1
 12 690 l 1
 599 690 l 1
 605 495 l 1
EndSplineSet
EndChar

StartChar: U
Encoding: 85 85 54
Width: 721
Flags: W
HStem: -14 69<284.024 477.059> 645 45<5 82.6301 227.429 306 461 544.273 631.787 716>
VStem: 92 126<128.324 633.312> 554 68<135.796 632.543>
LayerCount: 2
Fore
SplineSet
716 645 m 1
 637 645 622 621 622 598 c 2
 622 280 l 2
 622 161 611 69 492 14 c 1
 459 -3 404 -14 359 -14 c 0
 169 -14 92 74 92 266 c 2
 92 598 l 2
 92 621 77 645 5 645 c 1
 5 690 l 1
 306 690 l 1
 306 645 l 1
 233 645 218 621 218 598 c 2
 218 258 l 2
 218 112 261 55 379 55 c 0
 554 55 554 190 554 280 c 2
 554 598 l 2
 554 621 539 645 461 645 c 1
 461 690 l 1
 716 690 l 1
 716 645 l 1
EndSplineSet
EndChar

StartChar: V
Encoding: 86 86 55
Width: 721
Flags: W
HStem: -14 21G<357.087 422.5> 645 45<8 67.665 223.083 298 484 554.691 653.167 713>
DStem2: 267 507 120 538 0.407059 -0.913402<-121.135 331.714> 402 204 393 -14 0.367039 0.930206<0 436.978>
LayerCount: 2
Fore
SplineSet
713 645 m 1
 659 645 642 616 628 581 c 0
 554 404 452 138 393 -14 c 1
 366 -14 l 1
 120 538 l 2
 95 593 74 645 8 645 c 1
 8 690 l 1
 298 690 l 1
 298 645 l 1
 235 645 223 641 223 621 c 0
 223 601 260 527 267 507 c 1
 402 204 l 1
 533 536 l 2
 541 556 556 593 556 614 c 0
 556 645 518 645 484 645 c 1
 484 690 l 1
 713 690 l 1
 713 645 l 1
EndSplineSet
EndChar

StartChar: W
Encoding: 87 87 56
Width: 943
Flags: W
HStem: -14 21G<288.925 336.246 619.457 663.013> 645 45<-3 55.5322 201.415 266 304 377.328 519.014 596 725 791.973 881.83 948>
DStem2: 215 573 140 427 0.333491 -0.942753<-45.7373 363.556> 344 233 475 389 0.340619 0.940201<0 191.293> 527 590 475 389 0.352904 -0.93566<169.717 382.378> 664 233 656 -14 0.330915 0.943661<0 399.861>
LayerCount: 2
Fore
SplineSet
794 612 m 0
 794 645 758 644 725 647 c 1
 725 690 l 1
 948 690 l 1
 948 647 l 1
 892 642 875 631 865 582 c 1
 656 -14 l 1
 627 -14 l 1
 475 389 l 1
 329 -14 l 1
 296 -14 l 1
 140 427 l 1
 69 610 78 635 -3 647 c 1
 -3 690 l 1
 266 690 l 1
 266 645 l 1
 241 645 l 1
 217 642 201 644 201 617 c 0
 201 608 212 581 215 573 c 2
 344 233 l 1
 436 481 l 1
 424 522 409 570 389 607 c 0
 373 637 350 645 304 645 c 1
 304 690 l 1
 596 690 l 1
 596 645 l 1
 560 645 l 2
 538 645 519 643 519 627 c 0
 519 613 525 596 527 590 c 2
 664 233 l 1
 774 533 l 2
 786 566 794 594 794 612 c 0
EndSplineSet
EndChar

StartChar: X
Encoding: 88 88 57
Width: 721
Flags: W
HStem: 0 45<0 65.127 182.865 257 396 470.985 646.972 717> 645 45<12 87.2695 263.009 338 447 517.985 631.602 710>
DStem2: 155 163 238 154 0.629027 0.777383<-53.2561 206.066 354.831 586.63> 352 476 201 485 0.568604 -0.822611<-173.63 45.2203 153.271 406.603>
LayerCount: 2
Fore
SplineSet
717 0 m 1
 396 0 l 1
 396 45 l 1
 451 45 471 48 471 63 c 0
 471 83 443 131 416 164 c 1
 338 280 l 1
 238 154 l 2
 213 123 182 85 182 72 c 0
 182 56 206 45 257 45 c 1
 257 0 l 1
 0 0 l 1
 0 45 l 1
 66 45 106 100 155 163 c 1
 298 339 l 1
 201 485 l 2
 123 602 94 642 12 645 c 1
 12 690 l 1
 338 690 l 1
 338 645 l 1
 275 645 263 645 263 627 c 0
 263 598 335 499 352 476 c 2
 378 439 l 1
 473 556 l 2
 485 571 518 602 518 625 c 0
 518 643 498 645 477 645 c 2
 447 645 l 1
 447 690 l 1
 710 690 l 1
 710 645 l 1
 630 645 578 582 550 547 c 2
 418 381 l 1
 596 123 l 1
 639 65 662 45 717 45 c 1
 717 0 l 1
EndSplineSet
EndChar

StartChar: Y
Encoding: 89 89 58
Width: 721
Flags: W
HStem: 0 45<201 293.402 438.281 530> 645 45<11 75.0889 243.008 315 472 540.987 654.339 714>
VStem: 303 126<57.8952 303>
DStem2: 264 582 180 484 0.5586 -0.829437<-50.8032 236.305> 396 386 429 315 0.546508 0.837454<0 278.003>
LayerCount: 2
Fore
SplineSet
541 624 m 0
 541 644 524 645 472 645 c 1
 472 690 l 1
 714 690 l 1
 714 647 l 1
 637 636 596 570 568 528 c 2
 429 315 l 1
 429 92 l 2
 429 68 444 45 530 45 c 1
 530 0 l 1
 201 0 l 1
 201 45 l 1
 287 45 303 68 303 92 c 2
 303 303 l 1
 180 484 l 2
 115 579 91 644 11 645 c 1
 11 690 l 1
 315 690 l 1
 315 645 l 1
 288 645 l 2
 254 645 243 644 243 630 c 0
 243 611 253 596 264 582 c 1
 396 386 l 1
 522 584 l 2
 529 596 541 610 541 624 c 0
EndSplineSet
EndChar

StartChar: Z
Encoding: 90 90 59
Width: 609
Flags: W
HStem: 0 63<169 496.501> 627 63<125.904 421>
VStem: 17 51<493 552.957> 564 46<146.885 201>
DStem2: -5 29 169 63 0.580207 0.814469<128.648 734.221>
LayerCount: 2
Fore
SplineSet
610 201 m 1
 584 0 l 1
 -5 0 l 1
 -5 29 l 1
 421 627 l 1
 237 627 l 2
 141 627 86 610 68 493 c 1
 17 493 l 1
 40 690 l 1
 593 690 l 1
 590 662 l 1
 169 63 l 1
 390 63 l 2
 492 63 535 89 564 201 c 1
 610 201 l 1
EndSplineSet
EndChar

StartChar: bracketleft
Encoding: 91 91 60
Width: 333
Flags: W
HStem: -157 51<179.903 312> 639 51<178.953 312>
VStem: 75 102<-103.33 636.951>
LayerCount: 2
Fore
SplineSet
312 -157 m 1
 75 -157 l 1
 75 690 l 1
 312 690 l 1
 312 639 l 1
 221 639 l 2
 186 639 177 631 177 596 c 2
 177 -55 l 2
 177 -97 186 -106 224 -106 c 2
 312 -106 l 1
 312 -157 l 1
EndSplineSet
EndChar

StartChar: backslash
Encoding: 92 92 61
Width: 278
Flags: W
HStem: 0 21G<270.109 382>
DStem2: -3 707 -104 707 0.478243 -0.878228<0 756.728>
LayerCount: 2
Fore
SplineSet
382 0 m 1
 281 0 l 1
 -104 707 l 1
 -3 707 l 1
 382 0 l 1
EndSplineSet
EndChar

StartChar: bracketright
Encoding: 93 93 62
Width: 333
Flags: W
HStem: -157 51<22 154.345> 639 51<22 155.445>
VStem: 157 100<-102.193 637.924>
LayerCount: 2
Fore
SplineSet
257 -157 m 1
 22 -157 l 1
 22 -106 l 1
 103 -106 l 1
 152 -104 157 -98 157 -51 c 2
 157 571 l 2
 157 616 161 639 123 639 c 2
 22 639 l 1
 22 690 l 1
 257 690 l 1
 257 -157 l 1
EndSplineSet
EndChar

StartChar: asciicircum
Encoding: 94 94 63
Width: 468
Flags: W
LayerCount: 2
Fore
SplineSet
475 257 m 1
 375 257 l 1
 235 576 l 1
 94 257 l 1
 -5 257 l 1
 195 687 l 1
 275 687 l 1
 475 257 l 1
EndSplineSet
EndChar

StartChar: underscore
Encoding: 95 95 64
Width: 499
Flags: W
HStem: -166 68<-12 511>
LayerCount: 2
Fore
SplineSet
511 -166 m 1
 -12 -166 l 1
 -12 -98 l 1
 511 -98 l 1
 511 -166 l 1
EndSplineSet
EndChar

StartChar: grave
Encoding: 96 96 65
Width: 333
Flags: W
HStem: 507 195
VStem: 5 270
LayerCount: 2
Fore
SplineSet
275 507 m 1
 200 508 l 1
 54 599 l 1
 34 610 5 633 5 653 c 0
 5 684 20 702 48 702 c 0
 68 702 98 688 114 665 c 1
 275 507 l 1
EndSplineSet
EndChar

StartChar: a
Encoding: 97 97 66
Width: 443
Flags: W
HStem: -11 82<109 213.857 334.5 407.986> 435 47<157.057 256.132>
VStem: 25 112<87.36 177.608> 42 115<318.257 414.93> 270 109<90.9775 260 301.764 422.421>
LayerCount: 2
Fore
SplineSet
42 356 m 0xd8
 42 381 67 482 224 482 c 0
 344 482 379 432 379 300 c 2
 379 89 l 2
 379 77 382 71 390 71 c 0
 402 71 422 83 455 108 c 1
 453 52 l 1
 436 32 390 -11 359 -11 c 0
 310 -11 286 18 278 54 c 1
 235 18 183 -11 143 -11 c 0
 75 -11 25 43 25 108 c 0xe8
 25 229 181 276 270 310 c 1
 270 399 266 435 210 435 c 0
 194 435 164 430 155 415 c 0
 154 412 154 410 154 406 c 0
 154 395 157 380 157 361 c 0
 157 332 129 304 100 304 c 0
 61 304 42 327 42 356 c 0xd8
270 108 m 1
 270 260 l 1
 212 238 137 220 137 143 c 0
 137 108 155 74 195 74 c 0
 210 74 258 89 270 108 c 1
EndSplineSet
EndChar

StartChar: b
Encoding: 98 98 67
Width: 499
Flags: W
HStem: -11 59<181.156 320.457> 396 86<212.762 318.159> 619 40<-3 58.972> 693 20G<114.857 172>
VStem: 61 111<61.1035 375.318 429 618.463> 373 112<148.303 329.471>
LayerCount: 2
Fore
SplineSet
485 255 m 0
 485 118 387 -11 243 -11 c 0
 183 -11 121 6 78 40 c 0
 68 48 61 61 61 80 c 2
 61 571 l 2
 61 615 56 619 27 619 c 2
 -3 619 l 1
 -3 659 l 1
 41 671 68 676 92 685 c 2
 172 713 l 1
 172 429 l 1
 204 464 252 482 301 482 c 0
 424 482 485 362 485 255 c 0
172 89 m 2
 172 55 235 48 257 48 c 0
 349 48 373 135 373 212 c 0
 373 286 352 396 258 396 c 0
 194 396 172 359 172 321 c 2
 172 89 l 2
EndSplineSet
EndChar

StartChar: c
Encoding: 99 99 68
Width: 443
Flags: W
HStem: -11 95<186.799 300.431> 429 53<169.828 283.836>
VStem: 12 103<167.177 341.134> 295 115<330.735 416.006>
LayerCount: 2
Fore
SplineSet
429 167 m 1
 379 66 319 -11 212 -11 c 0
 98 -11 12 95 12 226 c 0
 12 362 92 482 249 482 c 0
 310 482 406 447 410 373 c 1
 410 344 382 316 353 316 c 0
 324 316 295 344 295 372 c 0
 295 406 275 429 230 429 c 0
 151 429 115 344 115 267 c 0
 115 181 161 84 257 84 c 0
 318 84 356 129 395 186 c 1
 429 167 l 1
EndSplineSet
EndChar

StartChar: d
Encoding: 100 100 69
Width: 499
Flags: W
HStem: -11 74<186.895 290.045> 48 36<462.518 502> 427 55<177.27 294.87> 619 40<261 324.914> 693 20G<378.857 436>
VStem: 14 110<140.563 328.786> 327 109<83.9288 393.5 456 618.341>
LayerCount: 2
Fore
SplineSet
502 48 m 1x7e
 447 31 396 14 327 -22 c 1
 327 38 l 1
 296 9 255 -11 212 -11 c 0xbe
 80 -11 14 104 14 223 c 0
 14 346 101 482 237 482 c 0
 275 482 306 468 327 456 c 1
 327 571 l 2
 327 615 323 619 289 619 c 2
 261 619 l 1
 261 659 l 1
 307 671 332 677 356 685 c 2
 436 713 l 1
 436 103 l 2
 436 86 446 82 462 82 c 0
 473 82 487 84 502 84 c 1
 502 48 l 1x7e
327 129 m 2
 327 312 l 2
 327 376 300 427 235 427 c 0
 158 427 124 338 124 253 c 0
 124 132 177 63 250 63 c 0
 300 63 327 100 327 129 c 2
EndSplineSet
EndChar

StartChar: e
Encoding: 101 101 70
Width: 443
Flags: W
HStem: -11 92<184.404 300.524> 276 56<109 286> 422 60<142.774 257.663>
VStem: 11 92<180.054 273.559>
LayerCount: 2
Fore
SplineSet
438 178 m 1
 401 71 316 -11 212 -11 c 0
 91 -11 11 100 11 226 c 0
 11 376 97 482 226 482 c 0
 341 482 412 399 415 276 c 1
 103 276 l 1
 109 189 152 81 253 81 c 0
 315 81 364 131 399 194 c 1
 438 178 l 1
286 332 m 1
 281 378 258 422 204 422 c 0
 146 422 118 382 109 332 c 1
 286 332 l 1
EndSplineSet
EndChar

StartChar: f
Encoding: 102 102 71
Width: 333
Flags: W
HStem: 0 37<8 78.562 213.612 292> 416 56<9 91 200 321> 654 53<209.429 280.162>
VStem: 91 109<50.6197 416 472 599.963>
LayerCount: 2
Fore
SplineSet
344 579 m 0
 280 579 298 654 242 654 c 0
 206 654 200 617 200 587 c 2
 200 472 l 1
 321 472 l 1
 321 416 l 1
 200 416 l 1
 200 92 l 2
 200 55 215 43 292 37 c 1
 292 0 l 1
 8 0 l 1
 8 37 l 1
 77 43 91 55 91 92 c 2
 91 416 l 1
 9 416 l 1
 9 472 l 1
 91 472 l 1
 91 504 92 530 98 559 c 0
 117 642 184 707 273 707 c 0
 354 707 393 662 393 632 c 0
 393 611 373 579 344 579 c 0
EndSplineSet
EndChar

StartChar: g
Encoding: 103 103 72
Width: 499
Flags: W
HStem: -217 80<134.97 318.247> 147 51<202.658 299.578> 386 60<408.773 482> 430 52<182.309 275.075>
VStem: 15 96<-114.201 -51.1163> 57 107<243.715 393.087> 61 85<53 117.926> 316 102<228.025 379.303> 421 52<-97.8378 -24.6819>
LayerCount: 2
Fore
SplineSet
482 386 m 1xe580
 406 386 l 1
 415 359 418 332 418 312 c 0
 418 209 338 147 244 147 c 0
 229 147 210 151 192 154 c 1
 181 150 146 127 146 103 c 0xe380
 146 90 204 89 223 88 c 0
 366 81 473 88 473 -37 c 0
 473 -157 298 -217 200 -217 c 0
 75 -217 15 -144 15 -101 c 0xe980
 15 -61 54 -32 104 11 c 1
 83 22 61 40 61 66 c 0xe380
 61 104 101 143 140 174 c 1
 88 200 57 244 57 309 c 0
 57 415 141 482 244 482 c 0xd580
 317 482 334 446 425 446 c 0
 441 446 460 447 482 450 c 1
 482 386 l 1xe580
316 284 m 0
 316 335 292 430 230 430 c 0
 178 430 164 390 164 347 c 0xd580
 164 290 181 198 255 198 c 0
 304 198 316 241 316 284 c 0
421 -55 m 0
 421 -11 356 -15 298 -14 c 0
 255 -14 198 -12 151 -5 c 1
 134 -25 111 -52 111 -78 c 0xc980
 111 -111 147 -137 240 -137 c 0
 349 -137 421 -108 421 -55 c 0
EndSplineSet
EndChar

StartChar: h
Encoding: 104 104 73
Width: 499
Flags: W
HStem: 0 37<-3 50.0964 178.904 232 267 320.096 449.24 502> 404 78<218.4 313.034> 619 40<-3 58.0762> 693 20G<111.857 169>
VStem: 60 109<46.2868 373.795 422 618.006> 330 109<46.9316 388.205>
LayerCount: 2
Fore
SplineSet
502 0 m 1
 267 0 l 1
 267 37 l 1
 318 41 330 57 330 92 c 2
 330 300 l 2
 330 350 329 404 266 404 c 0
 217 404 194 379 169 352 c 1
 169 92 l 2
 169 57 181 41 232 37 c 1
 232 0 l 1
 -3 0 l 1
 -3 37 l 1
 48 41 60 57 60 92 c 2
 60 571 l 2
 60 613 55 619 22 619 c 2
 -3 619 l 1
 -3 659 l 1
 40 671 65 677 89 685 c 2
 169 713 l 1
 169 422 l 1
 203 458 249 482 301 482 c 0
 410 482 439 421 439 301 c 2
 439 92 l 2
 439 57 452 41 502 37 c 1
 502 0 l 1
EndSplineSet
EndChar

StartChar: i
Encoding: 105 105 74
Width: 278
Flags: W
HStem: 0 38<11 75.1975 205.97 272> 579 128<86.5937 180.006>
VStem: 71 126<595.644 690.5> 86 109<49.1885 394.41>
LayerCount: 2
Fore
SplineSet
197 642 m 0xe0
 197 608 167 579 134 579 c 0
 97 579 71 608 71 642 c 0
 71 679 97 707 134 707 c 0
 167 707 197 679 197 642 c 0xe0
272 0 m 1
 11 0 l 1
 11 38 l 1
 72 41 86 57 86 92 c 2
 86 335 l 2
 86 379 82 395 57 395 c 0
 46 395 31 392 11 386 c 1
 11 425 l 1
 195 488 l 1
 195 92 l 2xd0
 195 57 209 41 272 38 c 1
 272 0 l 1
EndSplineSet
EndChar

StartChar: j
Encoding: 106 106 75
Width: 278
Flags: W
HStem: -217 56<21.5 102.189> 579 128<114.644 207.356>
VStem: 98 126<595.644 690.5> 109 109<-108.054 393.555>
LayerCount: 2
Fore
SplineSet
224 642 m 0xe0
 224 608 195 579 161 579 c 0
 127 579 98 608 98 642 c 0
 98 679 127 707 161 707 c 0
 195 707 224 679 224 642 c 0xe0
-67 -146 m 0
 -67 -104 -31 -94 -13 -94 c 0
 3 -94 17 -101 26 -112 c 1
 47 -146 73 -161 84 -161 c 0
 108 -161 109 -110 109 -81 c 2
 109 355 l 2
 109 385 103 394 80 394 c 0
 69 394 54 392 35 389 c 1
 35 425 l 1
 218 488 l 1
 218 25 l 2xd0
 218 -137 154 -217 35 -217 c 0
 8 -217 -67 -204 -67 -146 c 0
EndSplineSet
EndChar

StartChar: k
Encoding: 107 107 76
Width: 499
Flags: W
HStem: 0 38<-11 54.1138 184.479 249 270 303.995 450.419 511> 433 39<258 308.996 396.015 487> 617 42<-2 41.5283> 693 20G<116.857 174>
VStem: 65 109<48.4951 224 301 619.982>
DStem2: 247 293 174 224 0.61643 -0.78741<9.33193 227.19>
LayerCount: 2
Fore
SplineSet
511 0 m 1
 270 0 l 1
 270 38 l 1
 297 38 304 43 304 49 c 0
 304 51 303 53 301 55 c 2
 174 224 l 1
 174 92 l 2
 174 57 187 41 249 38 c 1
 249 0 l 1
 -11 0 l 1
 -11 38 l 1
 51 41 65 57 65 92 c 2
 65 591 l 2
 65 614 60 620 42 620 c 0
 32 620 18 619 -2 617 c 1
 -2 659 l 1
 45 671 69 677 94 685 c 2
 174 713 l 1
 174 301 l 1
 280 395 l 1
 290 406 301 415 309 427 c 1
 309 432 304 433 292 433 c 2
 258 433 l 1
 258 472 l 1
 487 472 l 1
 487 433 l 1
 378 433 330 367 247 293 c 1
 384 118 l 2
 413 81 452 41 511 37 c 1
 511 0 l 1
EndSplineSet
EndChar

StartChar: l
Encoding: 108 108 77
Width: 278
Flags: W
HStem: 0 38<8 73.7598 205.324 272> 624 36<8 79.3769> 691 20G<165 195>
VStem: 84 111<48.4951 623.222>
LayerCount: 2
Fore
SplineSet
272 0 m 1
 8 0 l 1
 8 38 l 1
 72 41 84 57 84 92 c 2
 84 571 l 2
 84 619 80 624 46 624 c 2
 8 624 l 1
 8 660 l 1
 65 671 135 690 195 711 c 1
 195 92 l 2
 195 57 207 41 272 38 c 1
 272 0 l 1
EndSplineSet
EndChar

StartChar: m
Encoding: 109 109 78
Width: 777
Flags: W
HStem: 0 37<2 54.7596 183.904 237 270 323.096 452.24 505 541 593.76 722.904 776> 404 78<231.776 320.745 496.188 590.971>
VStem: 65 109<46.9316 376.858> 333 109<46.9316 376.919> 604 109<46.9316 389.728>
LayerCount: 2
Fore
SplineSet
776 0 m 1
 541 0 l 1
 541 37 l 1
 591 41 604 57 604 92 c 2
 604 295 l 2
 604 381 593 404 538 404 c 0
 498 404 462 384 442 353 c 1
 442 92 l 2
 442 57 455 41 505 37 c 1
 505 0 l 1
 270 0 l 1
 270 37 l 1
 321 41 333 57 333 92 c 2
 333 322 l 2
 333 363 326 404 276 404 c 0
 240 404 194 386 174 355 c 1
 174 92 l 2
 174 57 186 41 237 37 c 1
 237 0 l 1
 2 0 l 1
 2 37 l 1
 52 41 65 57 65 92 c 2
 65 346 l 2
 65 381 50 389 2 389 c 1
 2 427 l 1
 174 488 l 1
 174 398 l 1
 176 398 179 426 189 433 c 0
 224 461 269 482 316 482 c 0
 366 482 406 452 425 409 c 1
 464 447 522 482 574 482 c 0
 702 482 713 375 713 280 c 2
 713 92 l 2
 713 57 725 41 776 37 c 1
 776 0 l 1
EndSplineSet
EndChar

StartChar: n
Encoding: 110 110 79
Width: 499
Flags: W
HStem: 0 37<-3 50.0964 178.904 232 267 320.096 449.24 502> 395 37<-3 18.8909> 404 78<222.549 315.114>
VStem: 60 109<46.2868 373.359> 330 109<46.9316 388.986>
LayerCount: 2
Fore
SplineSet
502 0 m 1xb8
 267 0 l 1
 267 37 l 1
 318 41 330 57 330 92 c 2
 330 307 l 2
 330 358 327 404 266 404 c 0xb8
 223 404 192 378 169 353 c 1
 169 92 l 2
 169 57 181 41 232 37 c 1
 232 0 l 1
 -3 0 l 1
 -3 37 l 1
 48 41 60 57 60 92 c 2
 60 336 l 2
 60 386 56 396 26 396 c 0
 18 396 8 396 -3 395 c 1
 -3 432 l 1xd8
 169 487 l 1
 169 421 l 1
 204 453 247 482 310 482 c 0
 393 482 439 425 439 309 c 2
 439 92 l 2
 439 57 452 41 502 37 c 1
 502 0 l 1xb8
EndSplineSet
EndChar

StartChar: o
Encoding: 111 111 80
Width: 499
Flags: W
HStem: -11 56<203.494 317.854> 427 55<176.029 296.171>
VStem: 18 117<138.501 345.789> 366 116<139.249 333.785>
LayerCount: 2
Fore
SplineSet
482 250 m 0
 482 114 392 -11 246 -11 c 0
 111 -11 18 103 18 230 c 0
 18 370 100 482 246 482 c 0
 386 482 482 389 482 250 c 0
366 203 m 0
 366 287 341 427 233 427 c 0
 164 427 135 361 135 279 c 0
 135 148 176 45 264 45 c 0
 336 45 366 124 366 203 c 0
EndSplineSet
EndChar

StartChar: p
Encoding: 112 112 81
Width: 499
Flags: W
HStem: -217 39<-9 54.0569 181.681 255> -11 59<197.478 318.293> 395 37<-9 14.0364> 402 80<212.942 318.215>
VStem: 63 109<-167.097 20 73.5859 379.202> 372 110<142.476 337.148>
LayerCount: 2
Fore
SplineSet
172 429 m 1xec
 177 431 211 482 306 482 c 0xdc
 424 482 482 379 482 255 c 0
 482 114 389 -11 253 -11 c 0
 224 -11 195 2 172 20 c 1
 172 -124 l 2
 172 -161 186 -175 255 -178 c 1
 255 -217 l 1
 -9 -217 l 1
 -9 -180 l 1
 49 -175 63 -161 63 -124 c 2
 63 339 l 2
 63 379 63 397 19 397 c 0
 11 397 2 396 -9 395 c 1
 -9 432 l 1
 172 487 l 1
 172 429 l 1xec
172 115 m 2
 172 69 232 48 263 48 c 0
 329 48 372 123 372 215 c 0
 372 290 355 402 258 402 c 0
 232 402 172 385 172 336 c 2
 172 115 l 2
EndSplineSet
EndChar

StartChar: q
Encoding: 113 113 82
Width: 499
Flags: W
HStem: -217 37<244 313.549 448.524 510> -11 86<175.11 272.641> 433 49<180.923 308.988>
VStem: 12 111<141.592 334.694> 327 109<-167.097 46 95.5048 414.859>
LayerCount: 2
Fore
SplineSet
510 -217 m 1
 244 -217 l 1
 244 -178 l 1
 313 -175 327 -161 327 -124 c 2
 327 46 l 1
 287 15 243 -11 194 -11 c 0
 55 -11 12 117 12 226 c 0
 12 361 106 482 250 482 c 0
 290 482 327 473 359 453 c 1
 401 479 l 2
 409 483 415 485 419 485 c 0
 434 485 436 467 436 452 c 2
 436 -124 l 2
 436 -161 450 -175 510 -180 c 1
 510 -217 l 1
233 75 m 0
 270 75 327 93 327 131 c 2
 327 359 l 2
 327 379 325 433 244 433 c 0
 154 433 123 333 123 257 c 0
 123 154 160 75 233 75 c 0
EndSplineSet
EndChar

StartChar: r
Encoding: 114 114 83
Width: 333
Flags: W
HStem: 0 38<-8 57.1138 187.479 252> 396 86<218.179 298.5>
VStem: 68 109<48.4951 376.048>
LayerCount: 2
Fore
SplineSet
347 417 m 0
 347 372 319 361 293 361 c 0
 258 361 250 396 226 396 c 0
 209 396 177 355 177 330 c 2
 177 92 l 2
 177 57 190 41 252 38 c 1
 252 0 l 1
 -8 0 l 1
 -8 38 l 1
 54 41 68 57 68 92 c 2
 68 310 l 2
 68 369 63 392 33 392 c 0
 23 392 9 389 -8 384 c 1
 -8 425 l 1
 177 488 l 1
 177 419 l 1
 201 452 238 482 278 482 c 0
 319 482 347 460 347 417 c 0
EndSplineSet
EndChar

StartChar: s
Encoding: 115 115 84
Width: 388
Flags: W
HStem: -11 49<133.438 251.21> -3 21G<38 76> 435 47<138.607 244.622> 453 20G<295 327>
VStem: 38 88<333.802 419.644> 38 37<-3 11.9956 120.522 178> 266 93<57.7601 145.09> 290 37<313 368.342>
LayerCount: 2
Fore
SplineSet
190 482 m 0xaa
 239 482 265 461 281 461 c 0
 290 461 292 467 298 473 c 1
 327 473 l 1
 327 313 l 1
 290 313 l 1x19
 270 386 250 435 189 435 c 0
 157 435 126 415 126 382 c 0
 126 283 359 263 359 137 c 0
 359 43 287 -11 200 -11 c 0xaa
 153 -11 118 12 90 12 c 0
 78 12 77 6 75 -3 c 1
 38 -3 l 1
 38 178 l 1x46
 78 178 l 1
 91 101 121 38 198 38 c 0
 233 38 266 60 266 97 c 0
 266 203 38 206 38 347 c 0
 38 433 111 482 190 482 c 0xaa
EndSplineSet
EndChar

StartChar: t
Encoding: 116 116 85
Width: 278
Flags: W
HStem: -11 78<115 220.846> 416 56<169 267>
VStem: 58 111<70.525 416>
LayerCount: 2
Fore
SplineSet
202 67 m 0
 232 67 250 93 266 111 c 1
 296 81 l 1
 250 22 201 -11 151 -11 c 0
 79 -11 58 30 58 133 c 2
 58 416 l 1
 41 416 l 2
 26 416 2 417 2 435 c 0
 2 439 3 444 6 450 c 1
 61 487 100 545 169 624 c 1
 169 472 l 1
 267 472 l 1
 267 416 l 1
 169 416 l 1
 169 158 l 2
 169 107 171 67 202 67 c 0
EndSplineSet
EndChar

StartChar: u
Encoding: 117 117 86
Width: 499
Flags: W
HStem: -11 83<184.171 268.889> 40 37<474.235 492> 433 39<-3 55.0957 247 313.593>
VStem: 60 109<87.7434 428.493> 319 110<97.582 427.438>
LayerCount: 2
Fore
SplineSet
232 72 m 0xb8
 259 72 319 96 319 135 c 2
 319 372 l 2
 319 422 315 433 247 433 c 1
 247 472 l 1
 429 472 l 1
 429 132 l 2
 429 94 431 76 474 76 c 0
 479 76 485 76 492 77 c 1
 492 40 l 1x78
 442 25 390 6 326 -17 c 1
 326 58 l 1
 303 32 258 -11 189 -11 c 0
 101 -11 60 51 60 144 c 2
 60 373 l 2
 60 422 54 433 -3 433 c 1
 -3 472 l 1
 169 472 l 1
 169 149 l 2
 169 106 184 72 232 72 c 0xb8
EndSplineSet
EndChar

StartChar: v
Encoding: 118 118 87
Width: 499
Flags: W
HStem: -11 21G<244 252> 433 39<-2 45.8459 175.453 218 316 358.869 439.155 479>
DStem2: 270 164 220 25 0.397892 -0.917432<-262.138 0> 270 164 276 25 0.381179 0.924501<0 261.618>
LayerCount: 2
Fore
SplineSet
479 433 m 1
 435 433 427 393 410 350 c 2
 276 25 l 1
 273 14 257 -11 247 -11 c 0
 241 -11 225 14 220 25 c 2
 63 387 l 2
 49 418 31 433 -2 433 c 1
 -2 472 l 1
 218 472 l 1
 218 433 l 1
 184 433 175 423 175 409 c 0
 175 399 180 387 184 375 c 2
 270 164 l 1
 336 339 l 2
 348 372 359 396 359 411 c 0
 359 426 348 433 316 433 c 1
 316 472 l 1
 479 472 l 1
 479 433 l 1
EndSplineSet
EndChar

StartChar: w
Encoding: 119 119 88
Width: 721
Flags: W
HStem: -11 21G<232 238 485 491.5> 433 39<9 50.4448 167.033 214 250 300.633 420.725 476 558 600.794 675.935 705>
DStem2: 221 261 77 350 0.376017 -0.926613<-159.075 110.482> 261 158 370 250 0.424907 0.905237<0 129.597> 507 167 507 5 0.373105 0.927789<0 259.864>
LayerCount: 2
Fore
SplineSet
705 436 m 1
 674 425 665 393 657 378 c 1
 507 5 l 2
 504 -2 495 -11 488 -11 c 0
 482 -11 475 -2 468 3 c 1
 370 250 l 1
 255 5 l 2
 252 -2 241 -11 235 -11 c 0
 229 -11 220 -2 217 5 c 2
 77 350 l 2
 54 406 54 433 9 433 c 1
 9 472 l 1
 214 472 l 1
 214 432 l 1
 178 432 167 432 167 412 c 0
 167 387 212 287 221 261 c 1
 261 158 l 1
 336 323 l 1
 315 399 307 433 250 433 c 1
 250 472 l 1
 476 472 l 1
 476 433 l 1
 435 433 420 426 420 407 c 0
 420 396 425 380 433 359 c 2
 507 167 l 1
 579 339 l 1
 591 372 601 395 601 410 c 0
 601 426 590 433 558 433 c 1
 558 472 l 1
 705 472 l 1
 705 436 l 1
EndSplineSet
EndChar

StartChar: x
Encoding: 120 120 89
Width: 499
Flags: W
HStem: 0 38<5 55.572 139.007 175 266 315.985 439.594 492> 433 39<12 75.9803 201.006 244 264 303.993 384.87 445>
DStem2: 86 97 160 91 0.554044 0.832487<-9.44407 148.887 288.441 390.533> 249 335 189 244 0.545456 -0.83814<-96.1579 0 109.61 277.851>
LayerCount: 2
Fore
SplineSet
492 0 m 1
 266 0 l 1
 266 38 l 1
 296 40 316 39 316 47 c 0
 316 49 315 51 313 54 c 2
 221 186 l 1
 160 91 l 2
 147 71 139 58 139 50 c 0
 139 41 149 38 175 38 c 1
 175 0 l 1
 5 0 l 1
 5 38 l 1
 49 38 63 63 86 97 c 2
 189 244 l 1
 108 369 l 1
 86 401 83 430 12 433 c 1
 12 472 l 1
 244 472 l 1
 244 433 l 1
 209 433 201 427 201 419 c 0
 201 409 232 362 249 335 c 1
 270 361 304 402 304 422 c 0
 304 432 295 433 264 433 c 1
 264 472 l 1
 445 472 l 1
 445 433 l 1
 401 433 373 409 355 384 c 2
 284 281 l 1
 401 103 l 2
 424 68 447 38 492 38 c 1
 492 0 l 1
EndSplineSet
EndChar

StartChar: y
Encoding: 121 121 90
Width: 499
Flags: W
HStem: -217 107<62.7591 168.569> 433 39<3 50.4558 176.382 233 329 374.993 452.438 488>
DStem2: 286 160 230 32 0.421257 -0.906941<-272.773 0> 286 160 287 0 0.345915 0.938266<-291.32 -143.321 0 270.894>
LayerCount: 2
Fore
SplineSet
83 -92 m 0
 101 -92 140 -110 153 -110 c 0
 173 -110 189 -83 220 -6 c 0
 223 4 231 18 231 28 c 0
 231 29 230 31 230 32 c 2
 60 398 l 2
 51 419 38 430 3 435 c 1
 3 472 l 1
 233 472 l 1
 233 433 l 1
 190 433 176 425 176 410 c 0
 176 403 180 394 184 384 c 2
 286 160 l 1
 373 409 l 2
 374 412 375 414 375 416 c 0
 375 425 365 432 329 433 c 1
 329 472 l 1
 488 472 l 1
 488 433 l 1
 459 433 442 402 435 384 c 2
 287 0 l 2
 258 -78 207 -217 103 -217 c 0
 59 -217 19 -189 19 -146 c 0
 19 -125 32 -92 83 -92 c 0
EndSplineSet
EndChar

StartChar: z
Encoding: 122 122 91
Width: 443
Flags: W
HStem: 0 55<157 359.405> 416 56<98.5 270>
VStem: 41 40<330 397.687> 392 40<96.5266 159.575>
DStem2: 12 29 157 55 0.5547 0.83205<102.065 465.116>
LayerCount: 2
Fore
SplineSet
432 158 m 1
 415 0 l 1
 12 0 l 1
 12 29 l 1
 270 416 l 1
 167 416 l 2
 92 416 88 389 81 330 c 1
 41 330 l 1
 45 472 l 1
 418 472 l 1
 415 442 l 1
 157 55 l 1
 260 55 l 2
 287 55 316 57 343 68 c 1
 378 77 379 124 392 167 c 1
 432 158 l 1
EndSplineSet
EndChar

StartChar: braceleft
Encoding: 123 123 92
Width: 479
Flags: W
HStem: -164 24<313.602 341> 682 25<316.589 341>
VStem: 174 96<-111.437 228.483 311.388 650.982>
LayerCount: 2
Fore
SplineSet
344 -140 m 1
 341 -164 l 1
 218 -167 174 -138 174 -5 c 2
 174 155 l 2
 174 214 166 241 63 269 c 1
 161 296 174 326 174 382 c 2
 174 556 l 2
 174 684 233 707 341 707 c 1
 344 682 l 1
 286 667 270 633 270 571 c 2
 270 396 l 2
 270 332 260 292 214 269 c 1
 261 244 270 200 270 134 c 2
 270 -31 l 2
 270 -91 287 -129 344 -140 c 1
EndSplineSet
EndChar

StartChar: bar
Encoding: 124 124 93
Width: 199
Flags: W
HStem: 0 21G<55 144>
VStem: 55 89<0 707>
LayerCount: 2
Fore
SplineSet
144 0 m 1
 55 0 l 1
 55 707 l 1
 144 707 l 1
 144 0 l 1
EndSplineSet
EndChar

StartChar: braceright
Encoding: 125 125 94
Width: 479
Flags: W
HStem: -164 24<140 166.983> 682 25<140 167.256>
VStem: 210 96<-111.437 226.885 311.388 650.982>
LayerCount: 2
Fore
SplineSet
419 269 m 1
 315 241 306 214 306 155 c 2
 306 -5 l 2
 306 -138 261 -167 140 -164 c 1
 137 -140 l 1
 194 -129 210 -91 210 -31 c 2
 210 134 l 2
 210 198 218 244 266 269 c 1
 220 292 210 332 210 396 c 2
 210 571 l 2
 210 633 195 667 137 682 c 1
 140 707 l 1
 247 707 306 684 306 556 c 2
 306 382 l 2
 306 326 318 296 419 269 c 1
EndSplineSet
EndChar

StartChar: asciitilde
Encoding: 126 126 95
Width: 540
Flags: W
HStem: 198 88<309.895 429.846> 267 89<108.246 239.461>
LayerCount: 2
Fore
SplineSet
538 321 m 1x80
 502 257 450 198 381 198 c 0x80
 304 198 229 267 160 267 c 0
 109 267 86 220 57 169 c 1
 5 229 l 1
 40 292 84 356 160 356 c 0x40
 229 356 329 286 382 286 c 0
 422 286 458 330 485 381 c 1
 538 321 l 1x80
EndSplineSet
EndChar

StartChar: uni0E10.descless
Encoding: 63232 63232 96
Width: 508
Flags: W
HStem: -5 50<269.021 317.129> 166 44<96.7727 165.43> 315 43<96.9443 182.319> 489 76<253.065 410.73> 528 70<105.197 256.064>
VStem: 43 44<218.932 306.022> 166 101<45.4684 169> 192 75<218.867 305.565> 319 102<45.9959 369.11>
DStem2: 86 478 17 445 0.966178 -0.257877<0 259.53>
LayerCount: 2
Fore
SplineSet
447 579 m 0xf680
 447 572 432 489 348 489 c 0xf680
 286 489 212 528 156 528 c 0
 125 528 100 516 86 478 c 1
 358 407 l 1
 373 402 421 395 421 335 c 2
 421 106 l 2
 421 34 379 -5 293 -5 c 0
 221 -5 166 38 166 106 c 2
 166 169 l 1xee80
 157 167 149 166 140 166 c 0
 80 166 43 213 43 265 c 0
 43 300 70 358 140 358 c 0
 230 358 267 313 267 258 c 2xed80
 267 75 l 2
 267 61 275 45 293 45 c 0
 312 45 319 61 319 74 c 2
 319 333 l 2
 319 358 310 367 298 370 c 2
 17 445 l 1
 33 497 69 598 189 598 c 0xee80
 235 598 310 565 365 565 c 0
 419 565 415 594 435 594 c 0
 442 594 447 590 447 579 c 0xf680
140 210 m 0
 175 210 192 236 192 262 c 0xe580
 192 289 175 315 140 315 c 0
 104 315 87 289 87 262 c 0
 87 236 104 210 140 210 c 0
EndSplineSet
EndChar

StartChar: uni0E34.left
Encoding: 63233 63233 97
Width: 0
Flags: W
HStem: 713 21<-701.5 -695.5> 726 45<-630.641 -428.045> 839 55<-575.14 -397.892>
LayerCount: 2
Back
SplineSet
-233 636 m 1
 -368 694 -470 726 -577 726 c 0
 -617 726 -657 722 -700 713 c 1
 -669 833 -570 894 -470 894 c 0
 -351 894 -233 808 -233 636 c 1
-293 708 m 1
 -322 788 -400 839 -477 839 c 0
 -528 839 -579 818 -616 768 c 1
 -597 770 -578 771 -558 771 c 0
 -472 771 -377 750 -293 708 c 1
EndSplineSet
Fore
Refer: 180 3636 N 1 0 0 1 -164 0 2
EndChar

StartChar: uni0E35.left
Encoding: 63234 63234 98
Width: 0
Flags: W
HStem: 713 21<-702 -695.5> 726 45<-630.641 -428.045> 839 55<-575.462 -397.846>
VStem: -358 100<862 948>
LayerCount: 2
Back
SplineSet
-233 636 m 1
 -368 694 -470 726 -577 726 c 0
 -617 726 -657 722 -700 713 c 1
 -671 829 -577 882 -482 882 c 0
 -438 882 -394 870 -355 849 c 1
 -355 948 l 1
 -258 948 l 1
 -258 751 l 1
 -247 739 -233 690 -233 636 c 1
-296 710 m 1
 -320 781 -403 827 -483 827 c 0
 -533 827 -582 809 -616 768 c 1
 -596 770 -576 772 -555 772 c 0
 -470 772 -379 752 -296 710 c 1
EndSplineSet
Fore
Refer: 181 3637 N 1 0 0 1 -164 0 2
EndChar

StartChar: uni0E36.left
Encoding: 63235 63235 99
Width: 0
Flags: W
HStem: 713 21<-702 -695.5> 726 45<-630.641 -428.045> 839 55<-575.241 -402.359> 906 46<-348.535 -265.777>
VStem: -258 49<815.522 898.239>
LayerCount: 2
Back
SplineSet
-233 636 m 1
 -368 694 -470 726 -577 726 c 0
 -617 726 -657 722 -700 713 c 1
 -670 832 -572 881 -483 881 c 0
 -460 881 -437 878 -416 872 c 1
 -416 875 l 0
 -416 909 -387 952 -327 952 c 0
 -262 952 -232 908 -232 866 c 0
 -232 833 -250 801 -283 791 c 1
 -250 768 -233 688 -233 636 c 1
-327 819 m 0
 -292 819 -275 843 -275 866 c 0
 -275 890 -292 914 -327 914 c 0
 -362 914 -379 890 -379 866 c 0
 -379 843 -362 819 -327 819 c 0
-296 710 m 1
 -320 781 -403 827 -483 827 c 0
 -533 827 -582 809 -616 768 c 1
 -596 770 -576 772 -555 772 c 0
 -470 772 -379 752 -296 710 c 1
EndSplineSet
Fore
Refer: 182 3638 N 1 0 0 1 -164 0 2
EndChar

StartChar: uni0E37.left
Encoding: 63236 63236 100
Width: 0
Flags: W
HStem: 713 21<-701.5 -695.5> 726 45<-630.641 -428.045> 839 55<-573.39 -477.474>
VStem: -477 75<894 949> -339 80<849 949>
LayerCount: 2
Back
SplineSet
-296 710 m 1xd0
 -320 781 -403 827 -483 827 c 0
 -533 827 -582 809 -616 768 c 1
 -596 770 -576 772 -555 772 c 0
 -470 772 -379 752 -296 710 c 1xd0
-258 743 m 1
 -246 733 -233 684 -233 636 c 1
 -368 694 -470 726 -577 726 c 0
 -617 726 -657 722 -700 713 c 1
 -670 831 -573 883 -476 882 c 1xd0
 -475 948 l 1
 -402 948 l 1
 -401 869 l 1
 -387 866 -352 851 -338 839 c 1
 -336 948 l 1
 -260 948 l 1xb0
 -258 743 l 1
EndSplineSet
Fore
Refer: 183 3639 N 1 0 0 1 -164 0 2
EndChar

StartChar: ellipsis
Encoding: 8230 8230 101
Width: 998
Flags: W
HStem: -14 140<119.299 215.75 450.625 548.375 784.299 880.75>
VStem: 98 139<6.875 104.625> 430 140<7.625 104.625> 763 139<6.875 104.625>
CounterMasks: 1 70
LayerCount: 2
Fore
SplineSet
902 57 m 0
 902 18 869 -14 831 -14 c 0
 794 -14 763 20 763 57 c 0
 763 92 796 126 831 126 c 0
 868 126 902 94 902 57 c 0
570 57 m 0
 570 18 536 -14 499 -14 c 0
 461 -14 430 20 430 57 c 0
 430 92 462 126 499 126 c 0
 536 126 570 94 570 57 c 0
237 57 m 0
 237 18 204 -14 166 -14 c 0
 129 -14 98 20 98 57 c 0
 98 92 131 126 166 126 c 0
 203 126 237 94 237 57 c 0
EndSplineSet
EndChar

StartChar: uni0E48.low_left
Encoding: 63237 63237 102
Width: 0
Flags: W
HStem: 688 238<-347 -267>
VStem: -347 80<688 786>
LayerCount: 2
Back
SplineSet
-266 926 m 1
 -281 688 l 1
 -353 688 l 1
 -370 926 l 1
 -266 926 l 1
EndSplineSet
Fore
Refer: 107 63242 N 1 0 0 1 -164 0 2
EndChar

StartChar: uni0E49.low_left
Encoding: 63238 63238 103
Width: 0
Flags: W
HStem: 677 50<-542 -483.332> 778 45<-509.262 -462.557> 925 53<-509.753 -426.933>
VStem: -574 56<830.236 916.927> -418 57<832.575 915.573> -215 108<877.83 972>
LayerCount: 2
Back
SplineSet
-229 940 m 17
 -266 627 -570 665 -624 670 c 1
 -624 710 l 1
 -578 716 -559 736 -550 757 c 1
 -550 760 l 1
 -550 760 -559 757 -576 759 c 0
 -626 767 -652 808 -652 850 c 0
 -652 895 -621 940 -556 940 c 0
 -458 940 -458 851 -458 849 c 0
 -458 765 -502 725 -502 725 c 1
 -502 722 l 1
 -502 722 -326 737 -330 940 c 1
 -229 940 l 17
-556 800 m 0
 -526 800 -510 823 -510 846 c 0
 -510 869 -526 892 -556 892 c 0
 -586 892 -602 869 -602 846 c 0
 -602 823 -586 800 -556 800 c 0
EndSplineSet
Fore
Refer: 108 63243 N 1 0 0 1 -164 0 2
EndChar

StartChar: uni0E4A.low_left
Encoding: 63239 63239 104
Width: 0
Flags: W
HStem: 671 40<-553.666 -483.578 -397 -374.817> 794 39<-553.861 -484.211>
VStem: -637 60<809 880.508> -478 42<715.68 788.883> -340 66<756.908 876.227> -235 91<892.938 954> -228 84<826.724 952.97>
LayerCount: 2
Back
SplineSet
-237 917 m 17
 -227 790 -307 677 -447 677 c 1
 -447 713 l 1
 -413 731 -400 763 -400 794 c 0
 -400 827 -416 858 -438 866 c 1
 -493 828 l 1
 -556 869 l 1
 -587 863 -601 822 -598 799 c 1
 -594 796 l 1
 -594 796 -582 816 -548 816 c 0
 -508 816 -478 790 -478 748 c 0
 -478 705 -507 677 -548 677 c 0
 -613 677 -651 734 -651 806 c 0
 -651 851 -613 919 -551 923 c 1
 -493 874 l 1
 -435 923 l 1
 -367 904 -344 858 -344 814 c 0
 -344 789 -352 764 -364 746 c 1
 -361 745 l 1
 -319 771 -290 833 -310 917 c 1
 -237 917 l 17
-550 708 m 0
 -524 708 -511 727 -511 746 c 0
 -511 766 -524 785 -550 785 c 0
 -576 785 -588 766 -588 746 c 0
 -588 727 -576 708 -550 708 c 0
EndSplineSet
Fore
Refer: 109 63244 N 1 0 0 1 -164 0 2
EndChar

StartChar: uni0E4B.low_left
Encoding: 63240 63240 105
Width: 0
Flags: W
HStem: 770 81<-456 -354 -259 -159>
VStem: -353 92<677 768 852 942>
LayerCount: 2
Back
SplineSet
-253 774 m 1
 -347 773 l 1
 -349 691 l 1
 -422 691 l 1
 -424 773 l 1
 -518 774 l 1
 -518 848 l 1
 -424 849 l 1
 -425 931 l 1
 -346 931 l 1
 -347 849 l 1
 -253 848 l 1
 -253 774 l 1
EndSplineSet
Fore
Refer: 110 63245 N 1 0 0 1 -164 0 2
EndChar

StartChar: uni0E4C.low_left
Encoding: 63241 63241 106
Width: 0
Flags: W
HStem: 671 48<-379.875 -303.743>
VStem: -437 50<724.989 802.333> -297 52<725.003 802.621> -209 85<941.524 975.976>
LayerCount: 2
Back
SplineSet
-238 954 m 17
 -264 857 -375 836 -399 829 c 1
 -399 826 l 1
 -375 825 -349 802 -349 760 c 0
 -349 714 -384 679 -435 679 c 0
 -490 679 -524 720 -524 766 c 0
 -524 806 -495 859 -404 876 c 0
 -358 885 -326 919 -316 975 c 1
 -238 954 l 17
-435 722 m 0
 -408 722 -395 743 -395 764 c 0
 -395 784 -408 805 -435 805 c 0
 -464 805 -478 784 -478 764 c 0
 -478 743 -464 722 -435 722 c 0
EndSplineSet
Fore
Refer: 111 63246 S 1 0 0 1 -164 0 2
EndChar

StartChar: uni0E48.low
Encoding: 63242 63242 107
Width: 0
Flags: W
HStem: 688 238<-183 -103>
VStem: -183 80<688 786>
AnchorPoint: "AboveBase" -94 630 mark 0
LayerCount: 2
Fore
SplineSet
-88 926 m 1
 -103 688 l 1
 -183 688 l 1
 -200 926 l 1
 -88 926 l 1
EndSplineSet
EndChar

StartChar: uni0E49.low
Encoding: 63243 63243 108
Width: 0
Flags: W
HStem: 677 50<-378 -319.332> 778 45<-345.262 -298.557> 925 53<-345.753 -262.933>
VStem: -410 56<830.236 916.927> -254 57<832.575 915.573> -51 108<877.83 972>
AnchorPoint: "AboveBase" -94 630 mark 0
LayerCount: 2
Fore
SplineSet
-315 778 m 0
 -377 778 -410 828 -410 877 c 0
 -410 927 -376 978 -303 978 c 0
 -229 978 -197 927 -197 879 c 0
 -197 771 -252 736 -252 736 c 1
 -250 733 l 1
 -250 733 -51 762 -51 958 c 2
 -51 972 l 1
 57 972 l 17
 31 707 -190 673 -308 673 c 0
 -342 673 -368 676 -378 677 c 1
 -378 727 l 1
 -349 730 -312 742 -298 777 c 1
 -298 780 l 1
 -298 780 -305 778 -315 778 c 0
-307 823 m 0
 -272 823 -254 848 -254 874 c 0
 -254 900 -272 925 -307 925 c 0
 -338 925 -354 900 -354 874 c 0
 -354 848 -338 823 -307 823 c 0
EndSplineSet
EndChar

StartChar: uni0E4A.low
Encoding: 63244 63244 109
Width: 0
Flags: W
HStem: 671 40<-389.666 -319.578 -233 -210.817> 794 39<-389.861 -320.211>
VStem: -473 60<809 880.508> -314 42<715.68 788.883> -176 66<756.908 876.227> -71 91<892.938 954> -64 84<826.724 952.97>
AnchorPoint: "AboveBase" -94 630 mark 0
LayerCount: 2
Fore
SplineSet
20 954 m 17xfc
 20 942 l 2xfc
 20 796 -72 671 -233 671 c 1
 -233 713 l 1
 -192 734 -176 773 -176 809 c 0
 -176 849 -195 885 -221 894 c 1
 -289 848 l 1
 -362 899 l 1
 -395 892 -413 851 -413 824 c 0
 -413 813 -407 810 -407 809 c 2
 -407 809 -393 833 -353 833 c 0
 -307 833 -272 803 -272 757 c 0
 -272 705 -304 671 -353 671 c 0
 -429 671 -473 737 -473 823 c 0
 -473 877 -429 955 -356 963 c 1
 -289 906 l 1
 -218 963 l 1
 -138 940 -110 884 -110 833 c 0
 -110 802 -120 773 -134 753 c 1
 -131 750 l 1
 -92 775 -64 825 -64 892 c 0xfa
 -64 912 -66 932 -71 954 c 1
 20 954 l 17xfc
-353 711 m 0
 -327 711 -314 732 -314 752 c 0
 -314 773 -327 794 -353 794 c 0
 -382 794 -396 773 -396 752 c 0
 -396 732 -382 711 -353 711 c 0
EndSplineSet
EndChar

StartChar: uni0E4B.low
Encoding: 63245 63245 110
Width: 0
Flags: W
HStem: 770 81<-292 -190 -95 5>
VStem: -189 92<677 768 852 942>
AnchorPoint: "AboveBase" -94 630 mark 0
LayerCount: 2
Fore
SplineSet
5 770 m 1
 -97 768 l 1
 -98 677 l 1
 -187 677 l 1
 -189 768 l 1
 -292 770 l 1
 -292 851 l 1
 -190 852 l 1
 -192 942 l 1
 -94 942 l 1
 -95 852 l 1
 5 851 l 1
 5 770 l 1
EndSplineSet
EndChar

StartChar: uni0E4C.low
Encoding: 63246 63246 111
Width: 0
Flags: W
HStem: 671 48<-215.875 -139.743>
VStem: -273 50<724.989 802.333> -133 52<725.003 802.621> -45 85<941.524 975.976>
AnchorPoint: "AboveBase" -94 630 mark 0
LayerCount: 2
Fore
SplineSet
40 974 m 17
 11 866 -111 843 -137 837 c 1
 -137 836 l 1
 -111 834 -81 806 -81 760 c 0
 -81 710 -120 671 -177 671 c 0
 -237 671 -273 717 -273 768 c 0
 -273 811 -241 865 -143 889 c 0
 -94 902 -55 935 -45 998 c 1
 40 974 l 17
-178 719 m 0
 -148 719 -133 742 -133 764 c 0
 -133 786 -148 809 -178 809 c 0
 -208 809 -223 786 -223 764 c 0
 -223 742 -208 719 -178 719 c 0
EndSplineSet
EndChar

StartChar: uni0E0D.descless
Encoding: 63247 63247 112
Width: 800
Flags: W
HStem: -5 43<169.637 254.95 499.573 586.538> 143 44<186.302 255.423> 378 44<88 117 191.732 276> 545 53<170.09 316.051>
VStem: 83 103<183 370.537> 83 76<48.4731 134.087> 265 45<47.6273 133.858> 379 103<59.5854 482.54> 604 103<60.5729 519>
LayerCount: 2
Back
SplineSet
707 117 m 2xf780
 707 61 639 -8 542 -8 c 0
 449 -8 379 54 379 124 c 2
 379 401 l 2
 379 496 312 545 242 545 c 0
 178 545 112 505 88 422 c 1
 276 422 l 1
 276 378 l 1
 226 378 l 2
 198 378 186 355 186 326 c 2
 186 183 l 1xf780
 197 186 208 187 217 187 c 0
 278 187 310 140 310 93 c 0
 310 46 279 -1 212 -5 c 0
 106 -9 83 80 83 124 c 2xfb80
 83 315 l 2
 83 336 97 373 117 378 c 1
 34 378 l 1
 39 522 157 598 271 598 c 0
 375 598 475 534 482 401 c 1
 482 101 l 2
 482 68 507 41 542 41 c 0
 579 41 604 66 604 100 c 1
 605 519 l 1
 656 582 l 2
 674 593 707 608 707 551 c 2
 707 117 l 2xf780
212 38 m 0
 248 38 265 64 265 90 c 0
 265 117 248 143 212 143 c 0
 176 143 159 117 159 90 c 0xfb80
 159 64 176 38 212 38 c 0
EndSplineSet
Fore
SplineSet
310 93 m 0xfb80
 310 34 266 -5 205 -5 c 0
 105 -5 83 81 83 124 c 2xf780
 83 315 l 2
 83 336 97 373 117 378 c 1
 34 378 l 1
 39 522 157 598 271 598 c 0
 379 598 482 524 482 401 c 2
 482 101 l 2
 482 68 507 41 542 41 c 0
 579 41 604 66 604 100 c 2
 604 519 l 1
 656 582 l 2
 662 589 675 592 684 592 c 0
 697 592 707 583 707 551 c 2
 707 117 l 2
 707 61 639 -8 542 -8 c 0
 449 -8 379 54 379 124 c 2
 379 401 l 2
 379 496 312 545 242 545 c 0
 178 545 112 505 88 422 c 1
 276 422 l 1
 276 378 l 1
 226 378 l 2
 198 378 186 355 186 326 c 2
 186 183 l 1
 197 186 208 187 217 187 c 0
 278 187 310 140 310 93 c 0xfb80
212 38 m 0
 248 38 265 64 265 90 c 0
 265 117 248 143 212 143 c 0
 176 143 159 117 159 90 c 0
 159 64 176 38 212 38 c 0
EndSplineSet
EndChar

StartChar: quoteleft
Encoding: 8216 8216 113
Width: 333
Flags: W
HStem: 452 129<143.957 204.635> 703 28<208.518 220.25>
VStem: 89 54<531.5 636.909>
LayerCount: 2
Fore
SplineSet
247 524 m 0
 247 479 218 452 175 452 c 0
 109 452 89 504 89 559 c 0
 89 637 157 713 217 731 c 1
 230 703 l 1
 178 680 143 622 143 588 c 0
 143 583 143 581 145 581 c 0
 148 581 156 588 181 588 c 0
 217 588 247 564 247 524 c 0
EndSplineSet
EndChar

StartChar: quoteright
Encoding: 8217 8217 114
Width: 333
Flags: W
HStem: 452 27<111.37 123.482> 602 129<127.182 188.043>
VStem: 189 54<545.584 651.5>
LayerCount: 2
Fore
SplineSet
187 602 m 0
 183 602 180 594 151 594 c 0
 115 594 84 619 84 659 c 0
 84 703 114 731 157 731 c 0
 223 731 243 679 243 624 c 0
 243 545 175 470 115 452 c 1
 101 479 l 1
 154 502 189 561 189 594 c 0
 189 597 189 602 187 602 c 0
EndSplineSet
EndChar

StartChar: bullet
Encoding: 8226 8226 117
Width: 385
Flags: W
HStem: 177 285<119.274 267.049>
VStem: 51 284<245.556 393.161>
LayerCount: 2
Fore
SplineSet
335 319 m 0
 335 241 273 177 192 177 c 0
 115 177 51 241 51 319 c 0
 51 398 114 462 192 462 c 0
 273 462 335 398 335 319 c 0
EndSplineSet
EndChar

StartChar: endash
Encoding: 8211 8211 118
Width: 768
Flags: W
HStem: 201 72<22 746>
LayerCount: 2
Fore
SplineSet
746 201 m 1
 22 201 l 1
 22 273 l 1
 746 273 l 1
 746 201 l 1
EndSplineSet
EndChar

StartChar: emdash
Encoding: 8212 8212 119
Width: 1536
Flags: W
HStem: 201 72<9 1527>
LayerCount: 2
Fore
SplineSet
1527 201 m 1
 9 201 l 1
 9 273 l 1
 1527 273 l 1
 1527 201 l 1
EndSplineSet
EndChar

StartChar: uni0E31.left
Encoding: 63248 63248 120
Width: 0
Flags: W
HStem: 676 49<-390.817 -216.551> 880 49<-477.668 -392.006>
VStem: -540 53<786.429 871.296> -382 52<784.647 871.355> -109 102<859.846 923>
LayerCount: 2
Back
SplineSet
92 923 m 17xb8
 55 737 -134 676 -281 676 c 0
 -399 676 -508 736 -508 823 c 0
 -508 882 -461 929 -402 929 c 0
 -339 929 -296 885 -296 826 c 0
 -296 786 -318 754 -359 737 c 1
 -333 730 -304 726 -275 726 c 0
 -164 726 -42 782 -9 923 c 1
 92 923 l 17xb8
-402 776 m 0x78
 -367 776 -350 802 -350 828 c 0
 -350 854 -367 880 -402 880 c 0
 -438 880 -455 854 -455 828 c 0
 -455 802 -438 776 -402 776 c 0x78
EndSplineSet
Fore
Refer: 177 3633 N 1 0 0 1 -164 0 2
EndChar

StartChar: uni0E4D.left
Encoding: 63249 63249 121
Width: 0
Flags: W
HStem: 673 54<-371.927 -286.134> 831 57<-371.927 -286.134>
VStem: -437 55<736.067 822.076> -276 54<736.067 822.076>
LayerCount: 2
Back
SplineSet
-336 673 m 0
 -408 673 -445 727 -445 780 c 0
 -445 834 -408 888 -336 888 c 0
 -265 888 -230 834 -230 780 c 0
 -230 727 -265 673 -336 673 c 0
-336 727 m 0
 -301 727 -284 753 -284 779 c 0
 -284 805 -301 831 -336 831 c 0
 -372 831 -389 805 -389 779 c 0
 -389 753 -372 727 -336 727 c 0
EndSplineSet
Fore
Refer: 203 3661 N 1 0 0 1 -197 0 2
EndChar

StartChar: uni0E47.left
Encoding: 63250 63250 122
Width: 0
Flags: W
HStem: 656 49<-339.293 -264.767> 736 56<-504.515 -432.661> 796 46<-340.8 -264.359> 888 50<-485.771 -308.785> 895 54<-531.56 -352.337>
VStem: -630 75<751.09 871.771> -389 42<749.007 789.064> -295 95<951.714 1025> -258 49<711.658 790.034>
LayerCount: 2
Back
SplineSet
-218 1008 m 17
 -220 897 -298 872 -370 876 c 0
 -404 877 -467 886 -505 888 c 0
 -545 891 -573 861 -573 818 c 0
 -574 797 -568 773 -554 748 c 1
 -525 813 -444 777 -410 742 c 1
 -410 742 -396 733 -396 746 c 0
 -396 801 -354 830 -312 830 c 0
 -270 830 -227 802 -227 743 c 0
 -227 684 -276 656 -315 656 c 0
 -395 656 -441 733 -496 733 c 0
 -538 733 -533 687 -504 656 c 1
 -573 657 l 1
 -619 698 -641 753 -641 804 c 0
 -642 882 -592 949 -502 940 c 0
 -470 937 -409 931 -379 928 c 0
 -355 925 -300 928 -309 1008 c 1
 -218 1008 l 17
-269 743 m 0
 -269 772 -291 787 -312 787 c 0
 -334 787 -356 772 -356 743 c 0
 -356 714 -334 700 -312 700 c 0
 -291 700 -269 714 -269 743 c 0
EndSplineSet
Fore
Refer: 197 3655 N 1 0 0 1 -129 0 2
EndChar

StartChar: uni0E48.left
Encoding: 63251 63251 123
Width: 0
Flags: W
HStem: 1021 206<-345 -268>
VStem: -345 77<1021 1124>
LayerCount: 2
Back
SplineSet
-240 1227 m 1
 -253 1021 l 1
 -330 1021 l 1
 -344 1227 l 1
 -240 1227 l 1
EndSplineSet
Fore
Refer: 198 3656 N 1 0 0 1 -164 0 2
EndChar

StartChar: uni0E49.left
Encoding: 63252 63252 124
Width: 0
Flags: W
HStem: 991 49<-399 -306.959> 994 35<-505 -459.568> 1072 37<-481.974 -441.458> 1187 42<-483.68 -411.724>
VStem: -530 42<1113.59 1182.78> -407 46<1113.06 1182.57> -198 89<1150.46 1229>
LayerCount: 2
Back
SplineSet
-54 1229 m 17
 -86 957 -358 991 -404 994 c 1
 -404 1029 l 1
 -364 1034 -349 1052 -339 1071 c 1
 -339 1074 l 1
 -339 1074 -349 1071 -362 1072 c 0
 -406 1079 -429 1115 -429 1151 c 0
 -429 1190 -402 1229 -346 1229 c 0
 -260 1229 -260 1152 -260 1150 c 0
 -260 1077 -298 1043 -298 1043 c 1
 -298 1040 l 1
 -298 1040 -138 1054 -143 1229 c 1
 -54 1229 l 17
-347 1109 m 0
 -320 1109 -306 1128 -306 1148 c 0
 -306 1168 -320 1187 -347 1187 c 0
 -373 1187 -386 1168 -386 1148 c 0
 -386 1128 -373 1109 -347 1109 c 0
EndSplineSet
Fore
Refer: 199 3657 N 1 0 0 1 -261 0 2
EndChar

StartChar: uni0E4A.left
Encoding: 63253 63253 125
Width: 0
Flags: W
HStem: 986 35<-406.608 -347.936> 1089 35<-406.849 -348.365>
VStem: -481 54<1104 1165.79> -344 35<1025.4 1085.05> -229 56<1055.1 1163.72> -134 69<1107.29 1226>
LayerCount: 2
Back
SplineSet
-58 1226 m 17
 -49 1098 -129 986 -269 986 c 1
 -269 1021 l 1
 -235 1039 -222 1071 -222 1102 c 0
 -222 1136 -238 1167 -260 1175 c 1
 -315 1137 l 1
 -378 1178 l 1
 -409 1172 -422 1130 -419 1107 c 1
 -416 1104 l 1
 -416 1104 -404 1124 -370 1124 c 0
 -330 1124 -301 1098 -301 1057 c 0
 -301 1014 -329 986 -370 986 c 0
 -435 986 -473 1043 -473 1115 c 0
 -473 1160 -435 1227 -373 1232 c 1
 -315 1183 l 1
 -257 1232 l 1
 -189 1213 -166 1167 -166 1123 c 0
 -166 1098 -174 1073 -186 1055 c 1
 -183 1054 l 1
 -141 1080 -112 1141 -132 1226 c 1
 -58 1226 l 17
-370 1021 m 0
 -347 1021 -336 1038 -336 1055 c 0
 -336 1072 -347 1089 -370 1089 c 0
 -392 1089 -404 1072 -404 1055 c 0
 -404 1038 -392 1021 -370 1021 c 0
EndSplineSet
Fore
Refer: 200 3658 N 1 0 0 1 -132 0 2
EndChar

StartChar: uni0E4B.left
Encoding: 63254 63254 126
Width: 0
Flags: W
HStem: 1072 74<-439 -345 -268 -175>
VStem: -345 77<992 1071 1147 1226>
LayerCount: 2
Back
SplineSet
-164 1075 m 1
 -258 1074 l 1
 -260 995 l 1
 -333 995 l 1
 -335 1074 l 1
 -429 1075 l 1
 -429 1149 l 1
 -335 1150 l 1
 -336 1229 l 1
 -257 1229 l 1
 -258 1150 l 1
 -164 1149 l 1
 -164 1075 l 1
EndSplineSet
Fore
Refer: 201 3659 N 1 0 0 1 -164 0 2
EndChar

StartChar: uni0E4C.left
Encoding: 63255 63255 127
Width: 0
Flags: W
HStem: 895 42<-344.437 -273.315>
VStem: -396 46<942.092 1014.76> -268 47<940.866 1016.36> -188 78<1137.48 1171.97>
LayerCount: 2
Back
SplineSet
-112 1201 m 17
 -138 1104 -249 1086 -273 1080 c 1
 -273 1077 l 1
 -249 1075 -223 1049 -223 1008 c 0
 -223 962 -258 926 -309 926 c 0
 -364 926 -398 968 -398 1014 c 0
 -398 1054 -369 1106 -278 1123 c 0
 -232 1132 -200 1166 -190 1223 c 1
 -112 1201 l 17
-309 968 m 0
 -283 968 -270 989 -270 1010 c 0
 -270 1030 -283 1051 -309 1051 c 0
 -338 1051 -352 1030 -352 1010 c 0
 -352 989 -338 968 -309 968 c 0
EndSplineSet
Fore
Refer: 202 3660 N 1 0 0 1 -147 0 2
EndChar

StartChar: uni0E01
Encoding: 3585 3585 129
Width: 602
Flags: W
HStem: 0 21G<83 187 410 511> 378 44<89 117 193.011 276> 544 54<180.026 340.181>
VStem: 83 104<0 370.537> 410 101<0 477.055>
LayerCount: 2
Fore
SplineSet
511 0 m 1
 410 0 l 1
 410 399 l 2
 410 495 335 544 257 544 c 0
 186 544 112 503 89 422 c 1
 276 422 l 1
 276 378 l 1
 227 378 l 2
 200 378 187 355 187 326 c 2
 187 0 l 1
 83 0 l 1
 83 315 l 2
 83 336 97 373 117 378 c 1
 34 378 l 1
 39 522 166 598 288 598 c 0
 402 598 511 527 511 404 c 2
 511 0 l 1
EndSplineSet
EndChar

StartChar: uni0E02
Encoding: 3586 3586 130
Width: 585
Flags: W
HStem: -8 46<329.583 390.127> 298 35<82.5912 158.706> 432 35<83.0061 159.269> 542 56<91.0452 202.007>
VStem: 14 47<436 511.027> 170 37<343.504 421.951> 224 103<47.3711 520.682> 392 103<44.0105 521>
LayerCount: 2
Fore
SplineSet
14 439 m 0
 14 526 69 598 170 598 c 0
 270 598 327 527 327 436 c 2
 327 69 l 2
 327 54 341 38 359 38 c 0
 376 38 392 54 392 68 c 2
 392 521 l 1
 444 584 l 2
 449 590 463 594 472 594 c 0
 485 594 495 585 495 553 c 2
 495 118 l 2
 495 46 447 -8 359 -8 c 0
 280 -8 224 48 224 118 c 2
 224 472 l 2
 224 516 186 542 147 542 c 0
 113 542 61 523 61 436 c 1
 77 461 100 467 121 467 c 0
 175 467 207 430 207 384 c 0
 207 339 177 298 121 298 c 0
 44 298 14 372 14 439 c 0
121 333 m 0
 154 333 170 358 170 382 c 0
 170 407 154 432 121 432 c 0
 88 432 72 407 72 382 c 0
 72 358 88 333 121 333 c 0
EndSplineSet
EndChar

StartChar: uni0E03
Encoding: 3587 3587 131
Width: 637
Flags: W
HStem: -8 46<380.249 438.972> 255 37<92.1512 169.924> 390 37<92.1504 169.924> 579 20G<77 135.649 237.811 305 518 529>
VStem: 15 47<396.416 508.098> 180 40<300.732 381.307> 273 105<51.2323 523.898> 442 103<44.0105 521>
LayerCount: 2
Fore
SplineSet
131 255 m 0
 38 255 15 355 15 430 c 0
 15 482 37 560 117 599 c 1
 186 525 l 1
 257 599 l 1
 353 588 378 521 378 455 c 2
 378 69 l 2
 378 54 389 38 410 38 c 0
 430 38 442 54 442 68 c 2
 442 521 l 1
 495 584 l 2
 499 589 513 594 523 594 c 0
 535 594 545 585 545 553 c 2
 545 118 l 2
 545 46 498 -8 410 -8 c 0
 330 -8 273 51 273 118 c 2
 273 485 l 2
 273 505 267 521 250 525 c 1
 186 459 l 1
 112 536 l 1
 86 518 62 488 62 430 c 0
 62 419 63 408 65 395 c 1
 81 421 112 427 131 427 c 0
 190 426 220 383 220 340 c 0
 220 297 190 255 131 255 c 0
131 292 m 0
 164 292 180 316 180 341 c 0
 180 366 164 390 131 390 c 0
 98 390 82 366 82 341 c 0
 82 316 98 292 131 292 c 0
EndSplineSet
EndChar

StartChar: uni0E04
Encoding: 3588 3588 132
Width: 589
Flags: W
HStem: 0 21G<89 192 399 501> 249 44<216.068 302.184> 398 46<216.153 302.737> 547 52<154.128 334.333>
VStem: 25 49<341.755 474.391> 89 103<0 265.235> 312 48<301.689 389.404> 399 102<0 480.74>
LayerCount: 2
Fore
SplineSet
501 0 m 1
 399 0 l 1
 399 389 l 2
 399 484 350 547 249 547 c 0
 141 547 74 482 74 401 c 0
 74 361 101 333 114 319 c 1
 117 319 l 1
 135 387 167 444 258 444 c 0
 326 444 360 394 360 345 c 0
 360 297 327 249 260 249 c 0
 235 249 212 258 200 267 c 1
 194 257 192 233 192 206 c 2
 192 0 l 1
 89 0 l 1
 89 233 l 2
 89 275 25 304 25 401 c 0
 25 525 123 599 247 599 c 0
 386 599 501 550 501 404 c 2
 501 0 l 1
260 293 m 0
 295 293 312 319 312 346 c 0
 312 372 295 398 260 398 c 0
 224 398 207 372 207 346 c 0
 207 319 224 293 260 293 c 0
EndSplineSet
EndChar

StartChar: uni0E05
Encoding: 3589 3589 133
Width: 591
Flags: W
HStem: 0 21G<89 192 398 499> 218 45<217.388 304.177> 367 46<217.654 304.727> 578 20G<143 195.558 318.6 371.5>
VStem: 25 49<331.922 473.082> 89 103<0 235.634> 314 46<272.186 357.352> 398 101<0 494.916>
DStem2: 174 598 169 535 0.756823 -0.65362<27.0832 113.145> 257 521 257 459 0.760462 0.649383<0 82.228>
LayerCount: 2
Fore
SplineSet
499 0 m 1
 398 0 l 1
 398 404 l 2
 398 456 396 507 346 535 c 1
 257 459 l 1
 169 535 l 1
 135 527 74 475 74 401 c 0
 74 362 95 327 123 295 c 1
 126 295 l 1
 143 346 170 413 258 413 c 0
 326 413 360 363 360 314 c 0
 360 266 327 218 260 218 c 0
 235 218 215 223 200 237 c 1
 194 226 192 197 192 186 c 2
 192 0 l 1
 89 0 l 1
 89 229 l 2
 89 264 25 304 25 401 c 0
 25 525 112 576 174 598 c 1
 257 521 l 1
 341 596 l 1
 402 581 499 548 499 387 c 2
 499 0 l 1
261 263 m 0
 296 263 314 289 314 315 c 0
 314 341 296 367 261 367 c 0
 226 367 208 341 208 315 c 0
 208 289 226 263 261 263 c 0
EndSplineSet
EndChar

StartChar: uni0E06
Encoding: 3590 3590 134
Width: 757
Flags: W
HStem: -8 66<225.687 325> 0 21G<544.5 662> 163 51<379 432.387> 174 49<236.158 273> 255 37<92.4849 169.924> 390 37<92.1504 169.924> 579 20G<76 135.649 237.811 305 635 646>
VStem: 15 47<395.981 507.254> 171 49<62.464 158.626> 180 40<300.732 381.307> 273 105<58.6504 163 219.269 523.898> 561 101<120 520>
LayerCount: 2
Fore
SplineSet
662 0 m 9x6f70
 576 0 l 17
 513 120 415 152 379 163 c 1x6f70
 379 139 l 2
 379 62 367 -8 283 -8 c 0
 207 -8 171 47 171 104 c 0
 171 160 206 217 273 223 c 1x9fb0
 273 485 l 2
 273 505 267 521 250 525 c 1
 186 459 l 1
 112 536 l 1
 86 518 62 488 62 430 c 0
 62 419 63 408 65 395 c 1
 81 421 112 427 131 427 c 0
 190 426 220 383 220 340 c 0
 220 297 190 255 131 255 c 0
 40 255 15 346 15 427 c 0
 15 480 35 559 117 599 c 1
 186 525 l 1
 257 599 l 1
 353 588 378 521 378 455 c 2
 378 214 l 1
 409 206 496 183 561 120 c 1
 561 520 l 1
 613 583 l 2
 618 588 630 594 640 594 c 0
 652 594 662 586 662 558 c 2
 662 0 l 9x6f70
273 80 m 2
 273 174 l 1
 238 170 220 136 220 106 c 0
 220 81 233 58 261 58 c 0x9fb0
 269 58 273 66 273 80 c 2
131 292 m 0
 164 292 180 316 180 341 c 0x0f70
 180 366 164 390 131 390 c 0
 98 390 82 366 82 341 c 0
 82 316 98 292 131 292 c 0
EndSplineSet
EndChar

StartChar: uni0E07
Encoding: 3591 3591 135
Width: 479
Flags: W
HStem: 0 21G<272.77 390> 399 46<209.243 285.341> 549 49<209.351 295.533>
VStem: 157 43<455.187 539.424> 286 104<117 403> 306 84<453.867 540.133>
LayerCount: 2
Fore
SplineSet
390 0 m 1xf4
 290 0 l 1
 35 296 l 1
 37 353 l 1
 286 117 l 1
 286 403 l 1xf8
 276 400 266 399 257 399 c 0
 191 399 157 449 157 499 c 0
 157 548 191 598 264 598 c 0
 383 598 390 517 390 488 c 2
 390 0 l 1xf4
253 445 m 0
 288 445 306 471 306 497 c 0xf4
 306 523 288 549 253 549 c 0
 218 549 200 523 200 497 c 0
 200 471 218 445 253 445 c 0
EndSplineSet
EndChar

StartChar: uni0E08
Encoding: 3592 3592 136
Width: 565
Flags: W
HStem: -5 50<307.774 368.948> 237 44<133.462 202.55> 386 46<133.414 219.844> 540 57<150.741 313.232>
VStem: 80 44<290.869 376.582> 203 103<54.375 240> 230 76<289.913 375.281> 370 105<49.4922 485.571>
LayerCount: 2
Fore
SplineSet
80 333 m 0xfd
 80 393 124 432 184 432 c 0
 276 432 306 381 306 327 c 2xfb
 306 75 l 2
 306 60 318 45 338 45 c 0
 359 45 370 60 370 74 c 2
 370 415 l 2
 370 498 306 540 235 540 c 0
 169 540 95 503 61 430 c 1
 23 450 l 1
 71 553 165 597 255 597 c 0
 368 597 475 527 475 413 c 2
 475 121 l 2
 475 49 425 -5 338 -5 c 0
 266 -5 203 54 203 121 c 2
 203 240 l 1
 195 238 187 237 178 237 c 0
 119 237 80 281 80 333 c 0xfd
177 281 m 0
 212 281 230 307 230 334 c 0
 230 360 212 386 177 386 c 0
 142 386 124 360 124 334 c 0
 124 307 142 281 177 281 c 0
EndSplineSet
EndChar

StartChar: uni0E09
Encoding: 3593 3593 137
Width: 615
Flags: W
HStem: -8 43<426.053 510.973> 0 21G<164 249.5> 195 45<94.2121 163.66> 344 46<94.0182 180> 542 57<171.726 354.643>
VStem: 41 43<250.073 333.699> 164 83<0 39.375> 190 76<248.867 333.606> 370 46<44.0741 119.715> 419 103<184.007 486.194> 419 88<180.493 433.875> 521 49<44.7356 130.486>
LayerCount: 2
Fore
SplineSet
41 294 m 0x7eb0
 41 341 76 390 144 390 c 0
 237 390 266 339 266 286 c 2
 266 154 l 2
 266 131 261 109 261 109 c 1
 280 131 329 175 419 183 c 1x7da0
 419 421 l 2
 419 499 347 542 266 542 c 0
 193 542 112 506 74 430 c 1
 35 450 l 1
 80 552 186 599 287 599 c 0
 407 599 522 532 522 412 c 2
 522 226 l 2x7dc0
 522 194 507 184 507 184 c 1
 507 181 l 1
 548 169 570 130 570 90 c 0
 570 41 537 -8 467 -8 c 0xbcb0
 408 -8 370 38 370 84 c 0
 370 96 373 109 378 120 c 1
 295 92 252 20 247 0 c 1
 164 0 l 1
 164 198 l 1
 157 197 147 195 138 195 c 0
 77 195 41 243 41 294 c 0x7eb0
137 240 m 0
 172 240 190 266 190 292 c 0
 190 318 172 344 137 344 c 0
 102 344 84 318 84 292 c 0
 84 266 102 240 137 240 c 0
468 35 m 0xbc90
 504 35 521 61 521 88 c 0
 521 114 504 140 468 140 c 0
 433 140 416 114 416 88 c 0
 416 61 433 35 468 35 c 0xbc90
EndSplineSet
EndChar

StartChar: uni0E0A
Encoding: 3594 3594 138
Width: 583
Flags: W
HStem: 0 45<157 224 326 387.316> 298 35<82.5912 158.706> 432 35<83.0061 159.269> 541 57<89.1163 201.78>
VStem: 14 47<436 510.858> 170 37<343.504 421.951> 224 102<45 393 445 518.713> 416 103<95.1993 335.616> 439 114<517.256 594>
LayerCount: 2
Fore
SplineSet
14 439 m 0xff
 14 526 69 598 170 598 c 0
 270 598 327 524 327 445 c 1
 402 449 438 531 439 594 c 1
 553 594 l 17xfe80
 538 476 473 435 409 418 c 1
 478 415 519 316 519 215 c 0
 519 108 474 0 369 0 c 2
 157 0 l 1
 157 45 l 1
 224 45 l 1
 224 470 l 2
 224 514 185 541 146 541 c 0
 112 541 61 522 61 436 c 1
 77 461 100 467 121 467 c 0
 175 467 207 430 207 384 c 0
 207 339 177 298 121 298 c 0
 44 298 14 372 14 439 c 0xff
366 386 m 1
 355 392 336 393 326 393 c 1
 326 45 l 1
 355 45 l 2
 396 45 416 124 416 206 c 0xff
 416 283 399 363 366 386 c 1
121 333 m 0
 154 333 170 358 170 382 c 0
 170 407 154 432 121 432 c 0
 88 432 72 407 72 382 c 0
 72 358 88 333 121 333 c 0
EndSplineSet
EndChar

StartChar: uni0E0B
Encoding: 3595 3595 139
Width: 649
Flags: W
HStem: 0 45<210 273 378 439.316> 255 37<92.4849 169.924> 390 37<92.1504 169.924> 393 57<378 431.927> 574 20G<76 135.649 237.811 306 491 605>
VStem: 15 47<395.981 508.33> 180 40<300.732 381.307> 273 105<45 393 450 522.141> 468 103<96.838 335.616> 492 113<515.826 594>
LayerCount: 2
Fore
SplineSet
605 594 m 17xdf40
 590 476 525 435 461 418 c 1
 531 415 571 316 571 215 c 0
 571 109 526 0 421 0 c 2
 210 0 l 1
 210 45 l 1
 273 45 l 1
 273 485 l 2
 273 505 267 521 250 525 c 1
 186 459 l 1
 112 536 l 1
 86 518 62 488 62 430 c 0
 62 419 63 408 65 395 c 1
 81 421 112 427 131 427 c 0
 190 426 220 383 220 340 c 0
 220 297 190 255 131 255 c 0
 40 255 15 346 15 427 c 0xef80
 15 478 35 559 117 599 c 1
 186 525 l 1
 257 599 l 1
 355 588 378 520 378 450 c 1
 458 453 490 531 492 594 c 1
 605 594 l 17xdf40
418 386 m 1
 407 392 389 393 378 393 c 1xdf80
 378 45 l 1
 407 45 l 2
 448 45 468 124 468 206 c 0
 468 283 451 363 418 386 c 1
131 292 m 0
 164 292 180 316 180 341 c 0
 180 366 164 390 131 390 c 0xef
 98 390 82 366 82 341 c 0
 82 316 98 292 131 292 c 0
EndSplineSet
EndChar

StartChar: uni0E0C
Encoding: 3596 3596 140
Width: 800
Flags: W
HStem: -8 61<371.881 461> -6 43<148.001 233.886> 141 42<186.771 231.837 511 551.858> 144 46<377.769 410> 378 44<89 117 191.732 276> 543 56<179.632 342.851>
VStem: 83 103<183 370.537> 83 55<45.9826 132.133> 243 46<46.2247 131.334> 321 48<54.3025 136.068> 410 101<53.2793 135 186.809 479.428> 619 103<132 521> 639 83<0 61.8589>
LayerCount: 2
Fore
SplineSet
369 91 m 0x9ce0
 369 69 379 53 394 53 c 0
 403 53 412 58 412 71 c 2
 412 144 l 1
 385 142 369 116 369 91 c 0x9ce0
186 183 m 1x2ee8
 196 183 l 2
 257 183 289 135 289 87 c 0
 289 40 259 -6 194 -6 c 0
 100 -6 83 77 83 121 c 2x6de0
 83 315 l 2
 83 336 97 373 117 378 c 1
 34 378 l 1
 39 522 165 599 287 599 c 0
 397 599 504 535 511 402 c 1
 511 184 l 1
 530 180 587 167 619 132 c 1
 619 521 l 1x6ef0
 671 584 l 2
 675 589 690 594 700 594 c 0
 712 594 722 585 722 553 c 2
 722 0 l 1
 639 0 l 1
 634 78 556 129 511 135 c 1
 511 52 504 -8 418 -8 c 0
 352 -8 321 40 321 89 c 0
 321 138 351 187 410 190 c 1x9ce8
 410 404 l 2
 410 496 335 543 257 543 c 0
 186 543 112 504 89 422 c 1
 276 422 l 1
 276 378 l 1
 226 378 l 2
 198 378 186 355 186 326 c 2
 186 183 l 1x2ee8
190 37 m 0
 226 37 243 63 243 89 c 0
 243 115 226 141 190 141 c 0
 155 141 138 115 138 89 c 0
 138 63 155 37 190 37 c 0
EndSplineSet
EndChar

StartChar: uni0E0D
Encoding: 3597 3597 141
Width: 800
Flags: W
HStem: -248 51<475.878 581.513> -178 26<475 503.646> -62 31<437.425 507.12> -5 43<169.637 254.95 499.573 586.538> 143 44<186.302 255.423> 378 44<88 117 191.732 276> 545 53<170.09 316.051>
VStem: 83 103<183 370.537> 83 76<48.4731 134.087> 265 45<47.6273 133.858> 379 103<59.5854 482.54> 382 45<-144.807 -68.4615> 518 30<-139.995 -73.4797> 604 103<60.5729 519> 611 96<-168.523 -43>
LayerCount: 2
Fore
SplineSet
310 93 m 0xff6c
 310 34 266 -5 205 -5 c 0
 105 -5 83 81 83 124 c 2xfec8
 83 315 l 2
 83 336 97 373 117 378 c 1
 34 378 l 1
 39 522 157 598 271 598 c 0
 379 598 482 524 482 401 c 2
 482 101 l 2
 482 68 507 41 542 41 c 0
 579 41 604 66 604 100 c 2
 604 519 l 1xff6c
 656 582 l 2
 662 589 675 592 684 592 c 0
 697 592 707 583 707 551 c 2xfe4a
 707 117 l 2
 707 61 639 -8 542 -8 c 0
 449 -8 379 54 379 124 c 2
 379 401 l 2
 379 496 312 545 242 545 c 0
 178 545 112 505 88 422 c 1
 276 422 l 1
 276 378 l 1
 226 378 l 2
 198 378 186 355 186 326 c 2
 186 183 l 1
 197 186 208 187 217 187 c 0
 278 187 310 140 310 93 c 0xff6c
212 38 m 0
 248 38 265 64 265 90 c 0
 265 117 248 143 212 143 c 0
 176 143 159 117 159 90 c 0
 159 64 176 38 212 38 c 0
707 -109 m 2xfe5a
 707 -199 621 -248 537 -248 c 0
 458 -248 382 -204 382 -112 c 0
 382 -83 404 -31 470 -31 c 0
 524 -31 548 -69 548 -111 c 0
 548 -144 521 -178 484 -178 c 0
 481 -178 478 -177 475 -177 c 1
 475 -181 l 1
 490 -192 508 -197 525 -197 c 0
 569 -197 611 -164 611 -114 c 2
 611 -43 l 1
 707 -43 l 1
 707 -109 l 2xfe5a
518 -106 m 0
 518 -77 495 -62 472 -62 c 0
 450 -62 427 -77 427 -106 c 0
 427 -136 450 -152 472 -152 c 0
 495 -152 518 -136 518 -106 c 0
EndSplineSet
Substitution2: "'ccmp' Pali-Sanskrit Descender Removal" uni0E0D.descless
Substitution2: "Thai Descender Removal Single Substitution" uni0E0D.descless
EndChar

StartChar: uni0E0E
Encoding: 3598 3598 142
Width: 612
Flags: W
HStem: -223 51<129.948 225.291> -90 52<133.314 252.289> -5 43<57.1135 142.544> 143 44<57.2051 95> 378 44<103 129 205.775 290> 544 55<193.369 355.355>
VStem: 4 43<47.3284 134.05> 74 52<-165.463 -98.7051> 95 102<187 369.724> 152 45<48.029 134.087> 419 103<-126.981 484.272> 438 84<-241 -205.827>
AnchorPoint: "BelowBase" 519 -241 basechar 0
LayerCount: 2
Fore
SplineSet
522 -241 m 1xfe10
 438 -241 l 1
 410 -183 356 -146 301 -118 c 1
 282 -190 224 -223 171 -223 c 0
 120 -223 74 -191 74 -132 c 0xff10
 74 -78 121 -38 195 -38 c 0
 218 -38 244 -42 272 -51 c 1
 292 -5 313 6 327 15 c 1
 376 -9 l 1
 352 -22 333 -41 321 -71 c 1
 352 -80 398 -104 422 -127 c 1
 422 -127 419 -101 419 -77 c 2
 419 413 l 2
 419 499 347 544 271 544 c 0
 199 544 124 504 103 422 c 1
 290 422 l 1
 290 378 l 1
 238 378 l 2
 210 378 197 346 197 318 c 2xfea0
 197 92 l 2xfe40
 197 29 154 -5 100 -5 c 0
 36 -5 4 43 4 92 c 0
 4 138 34 185 95 187 c 1
 95 304 l 2
 95 329 109 373 129 378 c 1
 48 378 l 1
 53 522 180 599 301 599 c 0
 409 599 522 531 522 407 c 2xfea0
 522 -241 l 1xfe10
253 -100 m 1
 230 -93 208 -90 189 -90 c 0
 152 -90 126 -103 126 -135 c 0
 126 -158 148 -172 173 -172 c 0
 210 -172 241 -146 253 -100 c 1
100 38 m 0
 135 38 152 64 152 90 c 0xfe40
 152 117 135 143 100 143 c 0
 64 143 47 117 47 90 c 0
 47 64 64 38 100 38 c 0
EndSplineSet
EndChar

StartChar: uni0E0F
Encoding: 3599 3599 143
Width: 612
Flags: W
HStem: -240 51<27.4173 112.309> -158 58<306.704 404.732> -99 48<30.7162 133.975> -25 20G<215 252.895> -8 45<55.9132 142.544> 141 46<56.2271 94> 378 44<103 129 205.775 290> 544 55<193.369 355.355>
VStem: -28 50<-182.513 -109.436> 3 44<46.0965 131.907> 94 103<187 368.119> 152 45<47.5065 132.133> 419 103<-123 484.272> 439 83<-240 -194.499>
AnchorPoint: "BelowBase" 519 -241 basechar 0
LayerCount: 2
Fore
SplineSet
522 -240 m 1xef04
 439 -240 l 1
 424 -188 390 -158 355 -158 c 0
 323 -158 290 -183 270 -240 c 1
 227 -240 l 1
 220 -207 197 -172 177 -154 c 1
 161 -214 115 -240 70 -240 c 0
 20 -240 -28 -207 -28 -151 c 0
 -28 -85 19 -51 75 -51 c 0
 101 -51 129 -58 155 -74 c 1
 167 -45 195 -20 235 -5 c 1
 269 -43 l 1
 240 -51 207 -75 197 -104 c 1xf794
 218 -115 240 -147 250 -169 c 1
 270 -126 310 -100 353 -100 c 0
 375 -100 398 -107 419 -123 c 1
 419 413 l 2
 419 499 347 544 271 544 c 0
 199 544 124 504 103 422 c 1
 290 422 l 1
 290 378 l 1
 238 378 l 2
 210 378 197 346 197 318 c 2xf728
 197 92 l 2xf710
 197 29 154 -8 100 -8 c 0
 36 -8 3 42 3 91 c 0
 3 138 33 185 94 187 c 1
 94 304 l 2
 94 329 109 373 129 378 c 1
 48 378 l 1
 53 522 180 599 301 599 c 0
 409 599 522 531 522 407 c 2xef68
 522 -240 l 1xef04
135 -120 m 1
 114 -105 94 -99 77 -99 c 0
 44 -99 22 -122 22 -147 c 0
 22 -172 43 -189 68 -189 c 0
 94 -189 125 -169 135 -120 c 1
100 37 m 0xef50
 135 37 152 63 152 89 c 0
 152 115 135 141 100 141 c 0
 64 141 47 115 47 89 c 0
 47 63 64 37 100 37 c 0xef50
EndSplineSet
EndChar

StartChar: uni0E10
Encoding: 3600 3600 144
Width: 508
Flags: W
HStem: -289 48<221 328.542> -243 42<51.3949 115.705> -202 36<271.593 328.532> -122 42<53.5793 123.896> -74 40<270.735 346.246> -5 50<269.021 317.129> 166 44<96.7727 165.43> 315 43<96.9443 182.319> 489 76<253.065 410.73> 528 70<105.197 256.064>
VStem: 6 42<-197.885 -129.944> 43 44<218.932 306.022> 124 40<-193.066 -166> 172 49<-241 -168.019> 192 75<218.867 305.565> 221 41<-158.114 -82.336> 319 102<45.9959 369.11> 329 90<-240.649 -197> 354 65<-160.52 -79.4795>
DStem2: 86 478 17 445 0.966178 -0.257877<0 259.53>
LayerCount: 2
Fore
SplineSet
447 579 m 0x1f9a80
 447 572 432 489 348 489 c 0x1f9a80
 286 489 212 528 156 528 c 0
 125 528 100 516 86 478 c 1
 358 407 l 1
 373 402 421 395 421 335 c 2
 421 106 l 2
 421 34 379 -5 293 -5 c 0
 221 -5 166 38 166 106 c 2
 166 169 l 1
 157 167 149 166 140 166 c 0
 80 166 43 213 43 265 c 0
 43 300 70 358 140 358 c 0
 230 358 267 313 267 258 c 2
 267 75 l 2
 267 61 275 45 293 45 c 0
 312 45 319 61 319 74 c 2
 319 333 l 2
 319 358 310 367 298 370 c 2
 17 445 l 1
 33 497 69 598 189 598 c 0x1f5a80
 235 598 310 565 365 565 c 0
 419 565 415 594 435 594 c 0
 442 594 447 590 447 579 c 0x1f9a80
140 210 m 0
 175 210 192 236 192 262 c 0
 192 289 175 315 140 315 c 0
 104 315 87 289 87 262 c 0
 87 236 104 210 140 210 c 0
308 -202 m 0xbf2c40
 250 -202 221 -163 221 -120 c 0
 221 -77 250 -34 307 -34 c 0
 383 -34 419 -80 419 -129 c 2xbf0920
 419 -218 l 2
 419 -249 406 -289 355 -289 c 2
 172 -289 l 1
 172 -206 l 2
 172 -190 171 -175 164 -166 c 1xbf0c40
 163 -210 134 -243 84 -243 c 0x5f0c40
 21 -243 6 -188 6 -164 c 0
 6 -124 38 -80 92 -80 c 0
 101 -80 110 -81 120 -84 c 1
 121 -71 123 -58 132 -46 c 1
 180 -52 l 1
 167 -66 164 -85 164 -106 c 1
 217 -130 221 -195 221 -228 c 2
 221 -241 l 1
 313 -241 l 2
 327 -241 329 -224 329 -208 c 2
 329 -197 l 1
 320 -200 316 -202 308 -202 c 0xbf2c40
310 -166 m 0
 340 -166 354 -143 354 -120 c 0
 354 -97 340 -74 310 -74 c 0
 278 -74 262 -97 262 -120 c 0
 262 -143 278 -166 310 -166 c 0
121 -124 m 1
 115 -122 108 -122 101 -122 c 0
 76 -122 48 -133 48 -163 c 0
 48 -183 60 -201 84 -201 c 0x5f28
 109 -201 124 -175 124 -146 c 0
 124 -139 123 -131 121 -124 c 1
EndSplineSet
Substitution2: "'ccmp' Pali-Sanskrit Descender Removal" uni0E10.descless
Substitution2: "Thai Descender Removal Single Substitution" uni0E10.descless
EndChar

StartChar: uni0E11
Encoding: 3601 3601 145
Width: 780
Flags: W
HStem: 0 21G<275 364.723 584 687> 255 37<92.4849 169.924> 390 37<92.1504 169.924> 508 88<526.167 615>
VStem: 15 47<395.981 508.534> 180 40<300.732 381.307> 275 101<206.938 523.898> 584 103<0 504.533>
DStem2: 393 269 516 470 0.318647 0.947874<-67.3153 276.67>
LayerCount: 2
Fore
SplineSet
687 0 m 1
 584 0 l 1
 584 473 l 2
 584 494 571 508 555 508 c 0
 541 508 525 497 516 470 c 2
 358 0 l 1
 275 0 l 1
 275 485 l 2
 275 505 267 521 250 525 c 1
 186 459 l 1
 112 536 l 1
 86 518 62 488 62 430 c 0
 62 419 63 408 65 395 c 1
 81 421 112 427 131 427 c 0
 190 426 220 383 220 340 c 0
 220 297 190 255 131 255 c 0
 40 255 15 346 15 427 c 0
 15 479 35 559 117 599 c 1
 186 525 l 1
 257 599 l 1
 353 588 376 521 376 455 c 2
 376 273 l 2
 376 246 372 226 370 206 c 1
 375 204 l 1
 375 204 386 247 393 269 c 2
 468 490 l 2
 493 563 543 596 589 596 c 0
 641 596 687 554 687 482 c 2
 687 0 l 1
131 292 m 0
 164 292 180 316 180 341 c 0
 180 366 164 390 131 390 c 0
 98 390 82 366 82 341 c 0
 82 316 98 292 131 292 c 0
EndSplineSet
EndChar

StartChar: uni0E12
Encoding: 3602 3602 146
Width: 798
Flags: W
HStem: -8 57<356.219 449> 0 21G<89 192 624.5 710> 135 49<499 552.799> 146 44<363.588 398> 235 40<216.332 251> 379 43<214.149 299.723> 578 20G<149 195.558 320.662 375 682.5 693.5>
VStem: 25 50<311.048 473.774> 89 103<0 118.812> 161 43<284.426 369.316> 309 44<50.4525 136.116 285.096 370.065> 398 101<50.4683 135 186.809 498.643> 607 103<132 521> 627 83<0 61.8589>
DStem2: 174 598 169 535 0.756823 -0.65362<27.5399 113.145> 257 521 257 459 0.760462 0.649383<0 81.6151>
LayerCount: 2
Fore
SplineSet
357 327 m 0x9f74
 357 213 203 163 192 65 c 1
 192 0 l 1
 89 0 l 1
 89 109 l 2
 89 158 25 261 25 384 c 0
 25 535 124 581 174 598 c 1
 257 521 l 1
 343 598 l 1
 407 581 499 539 499 396 c 2
 499 184 l 1
 518 180 574 167 607 132 c 1
 607 521 l 1x6fb8
 659 584 l 2
 664 589 678 594 687 594 c 0
 700 594 710 585 710 553 c 2
 710 0 l 9
 627 0 l 17
 622 78 544 129 499 135 c 1x6f34
 499 52 492 -8 406 -8 c 0
 340 -8 309 40 309 89 c 0
 309 138 339 187 398 190 c 1
 398 401 l 2
 398 482 384 511 346 535 c 1
 257 459 l 1
 169 535 l 1
 134 524 75 476 75 402 c 0
 75 300 158 227 172 164 c 1
 200 210 251 231 251 235 c 1
 192 235 161 281 161 330 c 0
 161 344 170 422 255 422 c 0
 316 422 357 382 357 327 c 0x9f74
353 90 m 0
 353 68 364 49 381 49 c 0
 390 49 398 55 398 68 c 2
 398 146 l 1x9f30
 370 144 353 116 353 90 c 0
257 275 m 0
 292 275 310 301 310 327 c 0
 310 353 292 379 257 379 c 0
 222 379 204 353 204 327 c 0x0f70
 204 301 222 275 257 275 c 0
EndSplineSet
EndChar

StartChar: uni0E13
Encoding: 3603 3603 147
Width: 800
Flags: W
HStem: -6 44<169.302 255.579 611.531 700.298> 0 21G<379 482> 143 44<186.302 255.423> 378 44<88 117 191.732 276> 545 53<170.09 315.74>
VStem: 83 103<183 370.537> 83 76<48.0199 134.087> 265 45<47.2124 133.684> 379 103<0 57.99 126 479.912> 562 44<41.8036 124.295> 604 103<183 521> 706 45<41.8102 123.857>
LayerCount: 2
Fore
SplineSet
310 92 m 0x7dd0
 310 43 275 -6 204 -6 c 0
 105 -6 83 81 83 124 c 2xbb80
 83 315 l 2
 83 336 97 373 117 378 c 1
 34 378 l 1
 39 522 157 598 271 598 c 0
 377 598 482 526 482 401 c 2
 482 126 l 1
 507 150 544 183 604 183 c 1
 604 521 l 1
 656 584 l 2
 661 590 675 594 684 594 c 0
 697 594 707 585 707 553 c 2
 707 203 l 2xbda0
 707 194 700 175 694 169 c 1
 731 156 751 120 751 84 c 0
 751 38 720 -9 656 -9 c 0
 580 -9 562 48 562 82 c 0
 562 99 566 117 578 131 c 1
 513 101 485 23 479 0 c 1
 379 0 l 1
 379 401 l 2
 379 496 312 545 242 545 c 0
 178 545 112 505 88 422 c 1
 276 422 l 1
 276 378 l 1
 226 378 l 2
 198 378 186 355 186 326 c 2
 186 183 l 1
 197 186 208 187 217 187 c 0
 278 187 310 140 310 92 c 0x7dd0
656 34 m 0
 689 34 706 58 706 83 c 0
 706 108 689 132 656 132 c 0
 623 132 606 108 606 83 c 0x39d0
 606 58 623 34 656 34 c 0
212 38 m 0xbb80
 248 38 265 64 265 90 c 0
 265 117 248 143 212 143 c 0
 176 143 159 117 159 90 c 0
 159 64 176 38 212 38 c 0xbb80
EndSplineSet
EndChar

StartChar: uni0E14
Encoding: 3604 3604 148
Width: 608
Flags: W
HStem: 0 21G<101 203 418 519> 263 40<229.658 267> 407 43<229.035 315.7> 548 50<172.918 357.557>
VStem: 38 51<315.996 475.003> 101 102<0 112.106> 175 44<312.06 398.169> 325 46<312.085 397.897> 418 101<0 488.079>
LayerCount: 2
Fore
SplineSet
371 356 m 0xfb80
 371 255 207 132 203 65 c 1
 203 0 l 1
 101 0 l 1
 101 94 l 2xfd80
 101 177 38 270 38 384 c 0
 38 574 201 598 278 598 c 0
 399 598 519 545 519 412 c 2
 519 0 l 1
 418 0 l 1
 418 412 l 2
 418 470 381 548 278 548 c 0
 157 548 89 487 89 399 c 0
 89 323 157 240 183 163 c 1
 212 208 267 256 267 262 c 0
 267 263 267 263 266 263 c 0
 207 263 175 309 175 358 c 0
 175 405 210 450 270 450 c 0
 330 450 371 410 371 356 c 0xfb80
272 303 m 0
 308 303 325 329 325 355 c 0
 325 381 308 407 272 407 c 0
 236 407 219 381 219 355 c 0xfb80
 219 329 236 303 272 303 c 0
EndSplineSet
EndChar

StartChar: uni0E15
Encoding: 3605 3605 149
Width: 611
Flags: W
HStem: 0 21G<103 206 418 519> 235 40<229.855 265> 379 43<227.865 313.378> 578 20G<162.5 208.558 338.104 394.5>
VStem: 38 51<316.965 475.004> 103 103<0 119.716> 175 43<284.06 369.397> 323 48<285.449 369.712> 418 101<0 498.643>
DStem2: 187 598 183 535 0.753113 -0.657892<29.1446 113.166> 270 521 270 459 0.784046 0.620703<0 89.5885>
LayerCount: 2
Fore
SplineSet
371 327 m 0xfb80
 371 213 217 163 206 65 c 1
 206 0 l 1
 103 0 l 1
 103 94 l 2xfd80
 103 192 38 255 38 384 c 0
 38 535 138 581 187 598 c 1
 270 521 l 1
 362 598 l 1
 427 581 519 539 519 396 c 2
 519 0 l 1
 418 0 l 1
 418 401 l 2
 418 482 404 511 366 535 c 1
 270 459 l 1
 183 535 l 1
 147 524 89 476 89 402 c 0
 89 315 174 224 187 161 c 1
 215 206 265 231 265 234 c 0
 265 235 265 235 264 235 c 0
 206 235 175 281 175 330 c 0
 175 378 208 422 269 422 c 0
 330 422 371 382 371 327 c 0xfb80
270 275 m 0
 306 275 323 301 323 327 c 0
 323 353 306 379 270 379 c 0
 235 379 218 353 218 327 c 0xfb80
 218 301 235 275 270 275 c 0
EndSplineSet
EndChar

StartChar: uni0E16
Encoding: 3606 3606 150
Width: 602
Flags: W
HStem: -6 43<162.384 248.366> 141 45<186.409 248.409> 378 44<89 117 191.732 276> 543 56<179.632 340.74>
VStem: 83 103<183 370.537> 83 70<46.3795 132.133> 258 44<46.5723 131.42> 410 101<0 476.224>
LayerCount: 2
Fore
SplineSet
302 89 m 0xfb
 302 40 271 -6 199 -6 c 0
 102 -6 83 78 83 121 c 2xf7
 83 315 l 2
 83 336 97 373 117 378 c 1
 34 378 l 1
 39 522 165 599 287 599 c 0
 398 599 511 527 511 402 c 2
 511 0 l 1
 410 0 l 1
 410 404 l 2
 410 496 335 543 257 543 c 0
 186 543 112 504 89 422 c 1
 276 422 l 1
 276 378 l 1
 226 378 l 2
 198 378 186 355 186 326 c 2
 186 183 l 1
 195 185 203 186 211 186 c 0
 270 186 302 137 302 89 c 0xfb
206 37 m 0
 241 37 258 63 258 89 c 0
 258 115 241 141 206 141 c 0
 170 141 153 115 153 89 c 0
 153 63 170 37 206 37 c 0
EndSplineSet
EndChar

StartChar: uni0E17
Encoding: 3607 3607 151
Width: 655
Flags: W
HStem: 0 21G<154 243.723 462 565> 393 48<79.5882 153.257> 508 90<405.072 492.5> 545 51<79.7865 166.021>
VStem: 21 49<450.216 536.015> 154 101<206 399> 176 79<449.867 536.087> 462 103<0 504.859>
DStem2: 272 269 395 470 0.318647 0.947874<-67.6339 274.483>
LayerCount: 2
Fore
SplineSet
565 0 m 1xed
 462 0 l 1
 462 473 l 2
 462 494 449 508 433 508 c 0
 420 508 404 497 395 470 c 2
 237 0 l 1
 154 0 l 1
 154 399 l 1xed
 143 395 135 393 124 393 c 0
 57 393 21 444 21 494 c 0
 21 545 57 596 131 596 c 0
 248 596 255 515 255 487 c 2xdb
 255 273 l 2
 255 246 250 226 249 206 c 1
 253 204 l 1
 253 204 264 247 272 269 c 2
 347 490 l 2
 372 565 422 598 467 598 c 0
 518 598 565 555 565 482 c 2
 565 0 l 1xed
123 441 m 0
 158 441 176 467 176 493 c 0
 176 519 158 545 123 545 c 0xdb
 88 545 70 519 70 493 c 0
 70 467 88 441 123 441 c 0
EndSplineSet
EndChar

StartChar: uni0E18
Encoding: 3608 3608 152
Width: 508
Flags: W
HStem: 0 45<40 84 187 309.135> 489 76<251.258 409.153> 528 70<103.777 254.262>
VStem: 84 103<45 364> 318 101<55.8325 369.11>
DStem2: 84 478 15 445 0.966178 -0.257877<0 260.85>
LayerCount: 2
Fore
SplineSet
446 579 m 0xd8
 446 572 431 489 346 489 c 0xd8
 285 489 210 528 154 528 c 0
 123 528 98 516 84 478 c 1
 356 407 l 2
 372 402 419 395 419 335 c 2
 419 120 l 2
 419 38 378 0 306 0 c 2
 40 0 l 1
 40 45 l 1
 84 45 l 1
 84 364 l 1
 187 364 l 1
 187 45 l 1
 250 45 l 2
 295 45 318 61 318 101 c 2
 318 333 l 2
 318 358 309 367 296 370 c 2
 15 445 l 1
 32 495 67 598 187 598 c 0xb8
 233 598 308 565 363 565 c 0
 418 565 412 594 434 594 c 0
 441 594 446 590 446 579 c 0xd8
EndSplineSet
EndChar

StartChar: uni0E19
Encoding: 3609 3609 153
Width: 663
Flags: W
HStem: -8 46<462.897 545.585> 0 21G<154 240.5> 393 49<77.3536 153.318> 547 51<78.1756 164.314>
VStem: 21 47<450.862 537.402> 154 81<0 38.9064> 174 81<450.867 537.652> 405 49<45.8288 129.273> 456 103<186 520> 554 50<46.2489 128.894>
LayerCount: 2
Fore
SplineSet
559 214 m 2x7b80
 559 206 551 189 544 183 c 1
 584 168 604 130 604 92 c 0
 604 42 571 -8 504 -8 c 0xb940
 439 -8 405 40 405 86 c 0
 405 102 409 118 418 132 c 1
 307 124 246 34 235 0 c 1
 154 0 l 1
 154 396 l 1x7d40
 143 393 133 393 122 393 c 0
 41 393 21 459 21 494 c 0
 21 546 56 598 129 598 c 0
 248 598 255 516 255 489 c 2
 255 147 l 2
 255 135 253 123 252 111 c 1
 293 152 344 184 456 186 c 1
 456 520 l 1
 510 585 l 2
 514 590 526 594 536 594 c 0
 548 594 559 586 559 553 c 2
 559 214 l 2x7b80
504 38 m 0
 537 38 554 63 554 88 c 0
 554 112 537 137 504 137 c 0
 471 137 454 112 454 88 c 0
 454 63 471 38 504 38 c 0
121 442 m 0
 156 442 174 468 174 494 c 0x3b
 174 521 156 547 121 547 c 0
 86 547 68 521 68 494 c 0
 68 468 86 442 121 442 c 0
EndSplineSet
EndChar

StartChar: uni0E1A
Encoding: 3610 3610 154
Width: 649
Flags: W
HStem: 0 45<98 154 255 444.688> 393 49<78.3773 153.317> 547 51<77.5357 162.777>
VStem: 21 47<451.582 537.402> 154 101<45 396> 174 81<450.867 537.199> 455 103<56.913 520>
LayerCount: 2
Fore
SplineSet
558 120 m 2xfa
 558 74 532 0 441 0 c 2
 98 0 l 1
 98 45 l 1
 154 45 l 1
 154 396 l 1xfa
 143 395 132 393 124 393 c 0
 56 393 21 443 21 494 c 0
 21 546 57 598 131 598 c 0
 248 598 255 516 255 487 c 2xf6
 255 45 l 1
 399 45 l 2
 430 45 455 63 455 106 c 2
 455 520 l 1
 508 583 l 2
 512 588 527 594 537 594 c 0
 549 594 558 586 558 559 c 2
 558 120 l 2xfa
121 442 m 0
 156 442 174 468 174 494 c 0xf6
 174 521 156 547 121 547 c 0
 86 547 68 521 68 494 c 0
 68 468 86 442 121 442 c 0
EndSplineSet
EndChar

StartChar: uni0E1B
Encoding: 3611 3611 155
Width: 649
Flags: W
HStem: 0 45<98 154 255 460.027> 393 49<78.3773 153.317> 547 51<77.5357 162.777>
VStem: 21 47<451.582 537.402> 154 101<45 396> 174 81<450.867 537.199> 470 103<54.4897 903>
AnchorPoint: "AboveBase" 407 630 basechar 0
LayerCount: 2
Fore
SplineSet
573 120 m 2xfa
 573 74 548 0 457 0 c 2
 98 0 l 1
 98 45 l 1
 154 45 l 1
 154 396 l 1xfa
 143 395 132 393 124 393 c 0
 56 393 21 443 21 494 c 0
 21 546 57 598 131 598 c 0
 248 598 255 516 255 487 c 2xf6
 255 45 l 1
 415 45 l 2
 446 45 470 63 470 106 c 2
 470 903 l 1
 523 966 l 2
 527 971 542 977 552 977 c 0
 564 977 573 969 573 942 c 2
 573 120 l 2xfa
121 442 m 0
 156 442 174 468 174 494 c 0xf6
 174 521 156 547 121 547 c 0
 86 547 68 521 68 494 c 0
 68 468 86 442 121 442 c 0
EndSplineSet
EndChar

StartChar: uni0E1C
Encoding: 3612 3612 156
Width: 649
Flags: W
HStem: 0 21G<80 184 455 558> 397 48<181.474 250.612> 550 48<164.583 250.182>
VStem: 80 101<0 79.8125 129.025 399> 80 74<453.913 540.345> 260 51<454.516 540.61> 455 103<0 83.2656 132.025 522>
DStem2: 203 183 194 66 0.50702 0.861934<-60.7086 150.991> 324 382 324 287 0.47718 -0.878806<83.4865 285.044>
LayerCount: 2
Fore
SplineSet
558 0 m 1xf6
 455 0 l 1
 455 34 l 2
 455 52 445 60 444 66 c 1
 324 287 l 1
 194 66 l 1
 192 60 184 54 184 34 c 2
 184 0 l 1
 80 0 l 1xf6
 80 478 l 2xee
 80 539 108 598 207 598 c 0
 276 598 311 547 311 496 c 0
 311 446 277 397 208 397 c 0
 199 397 190 397 181 399 c 1
 181 187 l 2
 181 163 175 129 175 129 c 1
 175 129 195 169 203 183 c 2
 324 382 l 1
 436 187 l 2
 445 172 461 132 461 132 c 1
 461 132 455 166 455 190 c 2
 455 522 l 1
 508 585 l 2
 513 591 527 596 537 596 c 0
 549 596 558 588 558 561 c 2
 558 0 l 1xf6
207 445 m 0
 242 445 260 471 260 498 c 0
 260 524 242 550 207 550 c 0
 172 550 154 524 154 498 c 0xee
 154 471 172 445 207 445 c 0
EndSplineSet
EndChar

StartChar: uni0E1D
Encoding: 3613 3613 157
Width: 662
Flags: W
HStem: 0 21G<80 184 470 573> 397 48<181.474 250.612> 550 48<164.583 250.182>
VStem: 80 101<0 80.3125 129.025 399> 80 74<453.913 540.345> 260 51<454.516 540.61> 470 103<0 83.8906 132.025 894>
DStem2: 332 390 332 295 0.516145 0.856501<-304.549 -81.3676> 332 390 332 295 0.484994 -0.874517<83.0791 295.434>
AnchorPoint: "AboveBase" 404 630 basechar 0
LayerCount: 2
Fore
SplineSet
573 0 m 1xf6
 470 0 l 1
 470 34 l 2
 470 52 461 60 459 66 c 1
 332 295 l 1
 194 66 l 1
 192 60 184 54 184 34 c 2
 184 0 l 1
 80 0 l 1xf6
 80 478 l 2xee
 80 539 108 598 207 598 c 0
 276 598 311 547 311 496 c 0
 311 446 277 397 208 397 c 0
 199 397 190 397 181 399 c 1
 181 187 l 2
 181 163 175 129 175 129 c 1
 175 129 195 169 203 183 c 2
 332 390 l 1
 452 187 l 2
 461 172 476 132 476 132 c 1
 476 132 470 166 470 190 c 2
 470 894 l 1
 524 957 l 2
 529 962 543 968 552 968 c 0
 564 968 573 960 573 933 c 2
 573 0 l 1xf6
207 445 m 0
 242 445 260 471 260 498 c 0
 260 524 242 550 207 550 c 0
 172 550 154 524 154 498 c 0xee
 154 471 172 445 207 445 c 0
EndSplineSet
EndChar

StartChar: uni0E1E
Encoding: 3614 3614 158
Width: 723
Flags: W
HStem: 0 21G<155 256.356 528.689 631> 392 49<80.2991 154.293> 545 49<80.2865 166.668>
VStem: 22 48<450.396 536.11> 155 102<160.048 395> 176 81<449.867 535.41> 530 101<0 6.56934 160.048 519>
DStem2: 387 588 393 450 0.302854 0.953037<-448.44 -129.702> 399 588 393 450 0.300929 -0.953647<129.798 448.443>
LayerCount: 2
Fore
SplineSet
631 0 m 1xfa
 535 0 l 1
 393 450 l 1
 250 0 l 1
 155 0 l 1
 155 395 l 1xfa
 144 393 134 392 126 392 c 0
 58 392 22 442 22 492 c 0
 22 543 58 594 132 594 c 0
 250 594 257 515 257 487 c 2xf6
 257 253 l 2
 257 226 247 160 247 160 c 1
 253 160 l 1
 253 160 264 217 273 249 c 1
 387 588 l 1
 399 588 l 1
 513 249 l 1
 522 217 533 160 533 160 c 1
 539 160 l 1
 539 160 530 226 530 253 c 2
 530 519 l 1
 584 582 l 2
 589 588 603 594 612 594 c 0
 623 594 631 586 631 559 c 2
 631 0 l 1xfa
123 441 m 0
 158 441 176 467 176 493 c 0xf6
 176 519 158 545 123 545 c 0
 88 545 70 519 70 493 c 0
 70 467 88 441 123 441 c 0
EndSplineSet
EndChar

StartChar: uni0E1F
Encoding: 3615 3615 159
Width: 723
Flags: W
HStem: 0 21G<155 256.356 528.689 631> 392 49<80.2991 154.293> 545 49<80.2865 166.668>
VStem: 22 48<450.396 536.11> 155 102<160.048 395> 176 81<449.867 535.41> 530 101<0 6.56934 160.048 894>
DStem2: 387 588 393 450 0.302854 0.953037<-448.44 -129.702> 399 588 393 450 0.300929 -0.953647<129.798 448.443>
AnchorPoint: "AboveBase" 465 630 basechar 0
LayerCount: 2
Fore
SplineSet
631 0 m 1xfa
 535 0 l 1
 393 450 l 1
 250 0 l 1
 155 0 l 1
 155 395 l 1xfa
 144 393 134 392 126 392 c 0
 58 392 22 442 22 492 c 0
 22 543 58 594 132 594 c 0
 250 594 257 515 257 487 c 2xf6
 257 253 l 2
 257 226 247 160 247 160 c 1
 253 160 l 1
 253 160 264 217 273 249 c 1
 387 588 l 1
 399 588 l 1
 513 249 l 1
 522 217 533 160 533 160 c 1
 539 160 l 1
 539 160 530 226 530 253 c 2
 530 894 l 1
 584 957 l 2
 589 962 603 968 612 968 c 0
 623 968 631 960 631 933 c 2
 631 0 l 1xfa
123 441 m 0
 158 441 176 467 176 493 c 0xf6
 176 519 158 545 123 545 c 0
 88 545 70 519 70 493 c 0
 70 467 88 441 123 441 c 0
EndSplineSet
EndChar

StartChar: uni0E20
Encoding: 3616 3616 160
Width: 617
Flags: W
HStem: -8 45<61.9132 150.06> 0 21G<425 528> 141 46<62.2271 100> 378 44<109 135 212.126 296> 544 55<199.369 359.193>
VStem: 9 44<46.0965 131.907> 100 103<187 368.119> 159 44<47.5065 132.133> 425 103<0 483.98>
LayerCount: 2
Fore
SplineSet
528 0 m 1x7e80
 425 0 l 1
 425 413 l 2
 425 499 353 544 277 544 c 0
 205 544 130 504 109 422 c 1
 296 422 l 1
 296 378 l 1
 244 378 l 2
 217 378 203 346 203 318 c 2x7e80
 203 92 l 2
 203 29 160 -8 106 -8 c 0xbd80
 42 -8 9 42 9 91 c 0
 9 138 39 185 100 187 c 1
 100 304 l 2
 100 329 115 373 135 378 c 1
 54 378 l 1
 59 522 186 599 307 599 c 0
 417 599 528 529 528 407 c 2
 528 0 l 1x7e80
106 37 m 0xbd80
 142 37 159 63 159 89 c 0
 159 115 142 141 106 141 c 0
 70 141 53 115 53 89 c 0
 53 63 70 37 106 37 c 0xbd80
EndSplineSet
EndChar

StartChar: uni0E21
Encoding: 3617 3617 161
Width: 652
Flags: W
HStem: -8 63<99.6731 199.5> 0 21G<449.5 564> 177 47<255 310.588> 187 46<111.15 154> 392 49<77.4003 153.317> 545 49<77.5357 162.777>
VStem: 21 47<450.582 535.2> 43 46<64.4067 165.123> 154 101<55.7272 177 230.165 395> 174 81<449.867 535.41> 462 102<114 519> 470 94<0 36.0855>
LayerCount: 2
Fore
SplineSet
256 123 m 0x6c90
 256 46 239 -8 160 -8 c 0
 80 -8 43 49 43 108 c 0
 43 167 81 228 154 233 c 1
 154 395 l 1x9d90
 143 393 132 392 124 392 c 0
 57 392 21 442 21 493 c 0
 21 543 57 594 131 594 c 0
 248 594 255 515 255 487 c 2
 255 224 l 1
 307 215 402 175 462 114 c 1
 462 519 l 1x2e60
 516 583 l 2
 521 588 532 594 542 594 c 0
 554 594 564 586 564 557 c 2
 564 0 l 25
 470 0 l 17
 429 80 373 141 255 177 c 1
 255 158 256 139 256 123 c 0x6c90
89 112 m 0
 89 83 110 55 132 55 c 0
 143 55 154 60 154 75 c 2
 154 187 l 1
 118 186 89 149 89 112 c 0
121 441 m 0
 156 441 174 467 174 493 c 0
 174 519 156 545 121 545 c 0
 86 545 68 519 68 493 c 0x0e40
 68 467 86 441 121 441 c 0
EndSplineSet
EndChar

StartChar: uni0E22
Encoding: 3618 3618 162
Width: 603
Flags: W
HStem: -8 46<212.649 372.514> 283 44<192.724 278> 398 47<174.661 250.52> 550 48<164.712 250.182>
VStem: 74 103<76.5398 262.758 346.096 407> 74 80<453.913 540.038> 260 51<454.83 540.61> 410 101<87.4085 518>
LayerCount: 2
Fore
SplineSet
511 174 m 2xfb
 511 65 433 -8 292 -8 c 0
 161 -8 74 49 74 163 c 2
 74 187 l 2xfb
 74 257 114 289 141 306 c 1
 117 318 74 349 74 424 c 2
 74 452 l 2xf7
 74 521 98 598 207 598 c 0
 276 598 311 547 311 496 c 0
 311 447 278 398 212 398 c 0
 200 398 184 399 174 407 c 1
 174 358 197 327 238 327 c 2
 278 327 l 1
 278 283 l 1
 238 283 l 2
 203 283 177 258 177 203 c 2
 177 124 l 2
 177 66 233 38 293 38 c 0
 361 38 410 71 410 126 c 2
 410 518 l 1
 461 583 l 2
 465 589 478 594 488 594 c 0
 500 594 511 585 511 557 c 2
 511 174 l 2xfb
207 445 m 0
 242 445 260 471 260 498 c 0
 260 524 242 550 207 550 c 0
 172 550 154 524 154 498 c 0xf7
 154 471 172 445 207 445 c 0
EndSplineSet
EndChar

StartChar: uni0E23
Encoding: 3619 3619 163
Width: 448
Flags: W
HStem: -3 49<182.356 269.07> 151 49<183.145 254.626> 495 71<248.189 387.753> 530 68<105.027 259.063>
VStem: 123 50<55.3959 141.693> 255 101<195 386.508> 278 78<56.5215 142.087>
DStem2: 83 478 15 445 0.966087 -0.258217<0 196.771>
LayerCount: 2
Fore
SplineSet
416 576 m 0xec
 416 556 398 495 326 495 c 0xec
 276 495 217 530 159 530 c 0
 121 530 99 513 83 478 c 1
 298 422 l 2
 333 413 356 393 356 350 c 2xdc
 356 104 l 2xda
 356 73 348 -3 230 -3 c 0
 157 -3 123 47 123 97 c 0
 123 148 159 200 226 200 c 0
 235 200 246 198 255 195 c 1
 255 350 l 2
 255 369 252 382 232 387 c 2
 15 445 l 1
 32 499 74 598 183 598 c 0xdc
 237 598 307 566 350 566 c 0
 388 566 383 594 404 594 c 0
 411 594 416 588 416 576 c 0xec
226 46 m 0
 261 46 278 72 278 98 c 0xca
 278 125 261 151 226 151 c 0
 190 151 173 125 173 98 c 0
 173 72 190 46 226 46 c 0
EndSplineSet
EndChar

StartChar: uni0E24
Encoding: 3620 3620 164
Width: 599
Flags: W
HStem: -6 43<158.539 243.466> 141 45<183.267 244.511> 378 44<86 114 188.732 273> 543 56<176.51 337.407>
VStem: 80 103<183 370.537> 80 68<46.3795 132.133> 254 45<46.5723 131.42> 406 101<-169 475.823>
LayerCount: 2
Fore
SplineSet
299 89 m 0xfb
 299 40 268 -6 196 -6 c 0
 99 -6 80 78 80 121 c 2xf7
 80 315 l 2
 80 336 94 373 114 378 c 1
 31 378 l 1
 36 522 162 599 284 599 c 0
 396 599 508 526 508 402 c 2
 507 -169 l 1
 453 -233 l 2
 448 -239 435 -245 426 -245 c 0
 415 -245 406 -235 406 -203 c 2
 406 404 l 2
 406 496 331 543 253 543 c 0
 183 543 109 504 86 422 c 1
 273 422 l 1
 273 378 l 1
 223 378 l 2
 195 378 183 355 183 326 c 2
 183 183 l 1
 192 185 200 186 208 186 c 0
 266 186 299 137 299 89 c 0xfb
201 37 m 0
 236 37 254 63 254 89 c 0
 254 115 236 141 201 141 c 0
 166 141 148 115 148 89 c 0
 148 63 166 37 201 37 c 0
EndSplineSet
EndChar

StartChar: uni0E25
Encoding: 3621 3621 165
Width: 579
Flags: W
HStem: -5 46<155.528 241.335> 146 45<175.654 241.866> 376 54<212.893 344.667> 540 58<164.617 335.207>
VStem: 72 103<187 337.766> 72 73<50.47 137.133> 251 49<49.7397 136.814> 387 101<0 336.339 379 490.393>
LayerCount: 2
Fore
SplineSet
300 95 m 0xfb
 300 35 253 -5 196 -5 c 0
 103 -5 72 75 72 120 c 2xf7
 72 266 l 2
 72 350 146 430 257 430 c 0
 319 430 362 410 389 379 c 1
 389 422 l 2
 389 498 325 540 251 540 c 0
 184 540 109 505 68 430 c 1
 31 450 l 1
 86 554 179 598 267 598 c 0
 382 598 488 523 488 413 c 2
 488 0 l 1
 387 0 l 1
 387 283 l 2
 387 329 338 376 278 376 c 0
 214 376 175 329 175 276 c 2
 175 187 l 1
 186 189 196 191 206 191 c 0
 267 191 300 143 300 95 c 0xfb
198 41 m 0
 234 41 251 67 251 94 c 0
 251 120 234 146 198 146 c 0
 162 146 145 120 145 94 c 0
 145 67 162 41 198 41 c 0
EndSplineSet
EndChar

StartChar: uni0E26
Encoding: 3622 3622 166
Width: 612
Flags: W
HStem: -8 45<55.5752 142.544> 141 46<56.2271 94> 378 44<103 129 205.775 290> 544 55<193.369 353.193>
VStem: 3 44<45.9724 131.783> 94 103<187 368.119> 152 45<46.6074 132.133> 419 103<-169 484.272>
LayerCount: 2
Fore
SplineSet
522 407 m 2xfd
 522 -169 l 1
 467 -233 l 2
 463 -238 449 -245 440 -245 c 0
 428 -245 419 -235 419 -203 c 2
 419 413 l 2
 419 499 347 544 271 544 c 0
 199 544 124 504 103 422 c 1
 290 422 l 1
 290 378 l 1
 238 378 l 2
 210 378 197 346 197 318 c 2xfd
 197 83 l 2xfb
 197 20 154 -8 100 -8 c 0
 36 -8 3 42 3 91 c 0
 3 138 33 185 94 187 c 1
 94 304 l 2
 94 329 109 373 129 378 c 1
 48 378 l 1
 53 522 180 599 301 599 c 0
 411 599 522 531 522 407 c 2xfd
100 37 m 0
 135 37 152 63 152 89 c 0xfb
 152 115 135 141 100 141 c 0
 64 141 47 114 47 89 c 0
 47 62 64 37 100 37 c 0
EndSplineSet
EndChar

StartChar: uni0E27
Encoding: 3623 3623 167
Width: 502
Flags: W
HStem: -5 45<238.166 323.818> 144 46<237.798 309.752> 542 55<118.728 268.848>
VStem: 181 47<49.5636 134.161> 310 103<186 503.044> 334 79<50.6152 135.133>
LayerCount: 2
Fore
SplineSet
276 -5 m 0xf4
 223 -5 181 40 181 91 c 0
 181 144 216 190 276 190 c 0
 292 190 301 189 310 186 c 1
 310 441 l 2
 310 505 257 542 196 542 c 0
 139 542 76 509 45 436 c 1
 5 458 l 1
 42 554 128 597 211 597 c 0
 314 597 413 532 413 421 c 2xf8
 413 131 l 2
 413 46 379 -5 276 -5 c 0xf4
281 40 m 0
 316 40 334 66 334 92 c 0xf4
 334 118 316 144 281 144 c 0
 246 144 228 118 228 92 c 0
 228 66 246 40 281 40 c 0
EndSplineSet
EndChar

StartChar: uni0E28
Encoding: 3624 3624 168
Width: 589
Flags: W
HStem: 0 21G<89 192 399 501> 249 44<208.252 295.629> 398 46<209.078 295.49> 545 54<154.128 334.203>
VStem: 25 49<341.755 474.138> 89 103<0 265.235> 305 45<302.188 361.563> 399 102<0 386> 465 102<555.598 627>
LayerCount: 2
Fore
SplineSet
338 401 m 1xfe
 352 409 379 436 390 452 c 1
 370 510 321 545 249 545 c 0
 141 545 74 482 74 401 c 0
 74 361 101 333 114 319 c 1
 117 319 l 1
 134 390 164 444 255 444 c 0
 295 444 319 427 338 401 c 1xfe
399 386 m 17xff
 382 375 362 361 349 356 c 1
 350 351 350 347 350 342 c 0
 350 297 319 249 257 249 c 0
 232 249 212 257 200 266 c 1
 194 255 192 233 192 206 c 2
 192 0 l 1
 89 0 l 1
 89 233 l 2
 89 275 25 304 25 401 c 0
 25 525 123 599 247 599 c 0
 323 599 398 581 444 539 c 1
 453 554 465 592 465 627 c 1
 567 627 l 1xfe80
 558 561 515 498 488 468 c 1
 496 450 501 427 501 396 c 2
 501 0 l 1
 399 0 l 1
 399 386 l 17xff
252 293 m 0
 288 293 305 319 305 346 c 0
 305 372 288 398 252 398 c 0
 216 398 199 372 199 346 c 0
 199 319 216 293 252 293 c 0
EndSplineSet
EndChar

StartChar: uni0E29
Encoding: 3625 3625 169
Width: 662
Flags: W
HStem: 0 45<98 154 255 458.081> 183 51<326.993 414.361> 361 38<255.62 323.787> 396 49<78.0882 153.317> 549 49<77.2213 162.777>
VStem: 20 48<454.396 540.11> 154 80<270.806 353.194> 174 81<453.867 539.41> 334 41<272.243 352.069> 472 101<59.6171 243 292.789 524>
LayerCount: 2
Fore
SplineSet
573 563 m 2xedc0
 573 114 l 2
 573 67 543 0 456 0 c 2
 98 0 l 1
 98 45 l 1
 154 45 l 1
 154 399 l 1xeec0
 143 397 132 396 124 396 c 0xdec0
 55 396 20 446 20 496 c 0
 20 547 56 598 131 598 c 0
 248 598 255 519 255 491 c 2
 255 395 l 1
 267 400 275 399 284 399 c 0
 345 399 375 354 375 311 c 0
 375 280 359 250 326 238 c 1
 335 235 344 234 353 234 c 0
 417 234 472 300 472 356 c 2
 472 524 l 1
 524 587 l 2
 528 592 543 598 552 598 c 0
 564 598 573 590 573 563 c 2xedc0
470 108 m 2
 470 243 l 1
 434 200 389 183 348 183 c 0
 311 183 277 197 255 217 c 1
 255 45 l 1xcdc0
 415 45 l 2
 442 45 470 65 470 108 c 2
284 263 m 0
 317 263 334 288 334 312 c 0
 334 336 317 361 284 361 c 0
 251 361 234 336 234 312 c 0xeec0
 234 288 251 263 284 263 c 0
121 445 m 0xddc0
 156 445 174 471 174 497 c 0
 174 523 156 549 121 549 c 0
 86 549 68 523 68 497 c 0
 68 471 86 445 121 445 c 0xddc0
EndSplineSet
EndChar

StartChar: uni0E2A
Encoding: 3626 3626 170
Width: 577
Flags: W
HStem: -5 46<155.528 241.335> 146 45<175.654 241.866> 335 47<275 339.25> 540 57<162.707 336.003>
VStem: 72 103<187 300.696> 72 73<50.47 137.133> 251 49<49.7397 136.814> 387 101<0 287.707 326 435.148> 465 102<572.506 627>
LayerCount: 2
Fore
SplineSet
300 95 m 0xfb
 300 35 253 -5 196 -5 c 0
 103 -5 72 75 72 120 c 2xf6
 72 227 l 2
 72 324 155 372 190 381 c 1
 238 402 319 449 369 488 c 1
 344 523 301 540 255 540 c 0
 185 540 107 501 68 430 c 1
 31 450 l 1
 84 551 177 597 268 597 c 0
 325 597 381 579 425 544 c 1
 447 570 461 599 465 627 c 1
 567 627 l 17xfa80
 562 584 521 528 470 490 c 1
 478 478 488 452 488 413 c 2
 488 0 l 1
 387 0 l 1
 387 226 l 2
 387 283 336 335 276 335 c 0
 212 335 175 290 175 238 c 2
 175 187 l 1
 186 189 196 191 206 191 c 0
 267 191 300 143 300 95 c 0xfb
390 326 m 1
 390 415 l 2
 390 422 390 430 387 436 c 1xf3
 359 419 312 396 275 382 c 1
 313 382 370 366 390 326 c 1
198 41 m 0
 234 41 251 67 251 94 c 0
 251 120 234 146 198 146 c 0
 162 146 145 120 145 94 c 0xf6
 145 67 162 41 198 41 c 0
EndSplineSet
EndChar

StartChar: uni0E2B
Encoding: 3627 3627 171
Width: 651
Flags: W
HStem: 0 21G<144 247 459 562> 397 48<68.135 143.56> 549 49<68.6634 154.304 442.366 531.886>
VStem: 13 46<454.216 539.604> 144 102<0 174.632 247 402> 165 81<453.867 539.41> 386 48<457.279 542.966> 459 103<0 401.42> 540 47<457.093 542.283>
LayerCount: 2
Fore
SplineSet
562 0 m 1xf3
 459 0 l 1
 459 374 l 2
 459 388 458 396 453 402 c 1
 344 330 266 175 258 157 c 1
 250 134 247 114 247 97 c 2
 247 0 l 1
 144 0 l 1
 144 402 l 1xfb
 135 399 124 397 114 397 c 0
 48 397 13 448 13 498 c 0
 13 548 48 598 123 598 c 0
 239 598 246 519 246 491 c 2xf6
 246 247 l 1
 304 338 386 413 415 433 c 1
 395 453 386 476 386 500 c 0
 386 550 426 598 487 598 c 0
 555 598 587 550 587 502 c 0xfa80
 587 470 573 438 545 422 c 1
 554 411 562 399 562 376 c 2
 562 0 l 1xf3
112 445 m 0
 148 445 165 471 165 497 c 0xf6
 165 523 148 549 112 549 c 0
 76 549 59 523 59 497 c 0
 59 471 76 445 112 445 c 0
487 448 m 0
 522 448 540 474 540 500 c 0xf280
 540 526 522 552 487 552 c 0
 452 552 434 526 434 500 c 0
 434 474 452 448 487 448 c 0
EndSplineSet
EndChar

StartChar: uni0E2C
Encoding: 3628 3628 172
Width: 712
Flags: W
HStem: 0 21G<146 247.634 517.574 624> 396 49<69.944 145.659> 549 49<71.1321 154.969> 594 45<486.439 570.343>
VStem: 13 48<454.582 540.284> 146 101<160.048 399> 166 81<453.867 540.133> 434 44<507.116 585.814> 522 102<160.048 458.34> 578 46<545 585.844> 663 90<570.808 644>
DStem2: 370 558 375 404 0.314818 0.949152<-417.387 -144.595> 379 558 375 404 0.34807 -0.937469<142.978 423.54>
LayerCount: 2
Fore
SplineSet
753 644 m 17xd960
 748 542 654 492 624 482 c 1
 624 0 l 1
 525 0 l 1
 375 404 l 1
 241 0 l 1
 146 0 l 1
 146 399 l 1xdd60
 135 397 124 396 117 396 c 0
 49 396 13 446 13 497 c 0
 13 547 49 598 123 598 c 0
 240 598 247 521 247 492 c 2xeb20
 247 253 l 2
 247 226 238 160 238 160 c 1
 244 160 l 1
 244 160 257 217 266 249 c 1
 370 558 l 1
 379 558 l 1
 501 249 l 1
 510 217 524 160 524 160 c 1
 530 160 l 1
 530 160 522 226 522 253 c 2
 522 455 l 1xeda0
 462 459 434 504 434 548 c 0
 434 593 466 639 528 639 c 0
 584 639 621 607 624 545 c 1
 640 557 663 591 663 632 c 0
 663 636 662 640 662 644 c 1
 753 644 l 17xd960
528 499 m 0
 561 499 578 523 578 546 c 0
 578 570 561 594 528 594 c 0
 495 594 478 570 478 546 c 0
 478 523 495 499 528 499 c 0
114 445 m 0
 149 445 166 471 166 497 c 0
 166 523 149 549 114 549 c 0xeb20
 78 549 61 523 61 497 c 0
 61 471 78 445 114 445 c 0
EndSplineSet
EndChar

StartChar: uni0E2D
Encoding: 3629 3629 173
Width: 566
Flags: W
HStem: -8 46<207.324 342.101> 246 49<174.302 242.427> 399 46<157.163 242.393> 540 58<149.392 318.505>
VStem: 71 103<73.8438 250> 71 76<303.867 388.368> 252 49<304.396 389.572> 373 105<78.8648 487.997>
LayerCount: 2
Fore
SplineSet
194 445 m 0xf7
 268 445 301 396 301 346 c 0
 301 296 268 246 205 246 c 0
 195 246 185 247 174 250 c 1
 174 124 l 1
 175 67 225 38 275 38 c 0
 324 38 373 66 373 124 c 2
 373 422 l 2
 373 498 309 540 235 540 c 0
 168 540 93 505 52 430 c 1
 15 450 l 1
 70 554 165 598 254 598 c 0
 370 598 478 523 478 413 c 2
 478 158 l 2
 478 22 329 -8 275 -8 c 0
 203 -8 71 18 71 160 c 2xfb
 71 315 l 2
 71 358 100 445 194 445 c 0xf7
200 295 m 0
 235 295 252 321 252 347 c 0
 252 373 235 399 200 399 c 0
 164 399 147 373 147 347 c 0xf7
 147 321 164 295 200 295 c 0
EndSplineSet
EndChar

StartChar: uni0E2E
Encoding: 3630 3630 174
Width: 566
Flags: W
HStem: -8 46<207.324 342.101> 177 46<174.279 242.651> 327 45<157.481 242.104> 408 46<113.03 307.331> 543 51<137.111 319.779>
VStem: 41 68<444.427 517.625> 71 103<73.8438 180> 71 76<231.867 315.204> 252 48<232.254 317.64> 373 105<78.8648 444.223>
LayerCount: 2
Fore
SplineSet
372 445 m 1xfac0
 301 411 213 408 173 408 c 0
 90 408 41 426 41 464 c 0xfcc0
 41 543 148 594 257 594 c 0
 304 594 350 585 389 564 c 1
 395 576 398 590 401 602 c 1
 498 602 l 17
 487 564 470 533 450 508 c 1
 467 484 478 452 478 413 c 2
 478 158 l 2
 478 22 329 -8 275 -8 c 0
 203 -8 71 18 71 160 c 2xfac0
 71 241 l 2xf9c0
 71 285 100 372 195 372 c 0
 266 372 300 324 300 275 c 0
 300 226 266 177 203 177 c 0
 194 177 184 178 174 180 c 1
 174 124 l 1
 175 67 225 38 275 38 c 0
 324 38 373 66 373 124 c 2
 373 422 l 2
 373 430 373 438 372 445 c 1xfac0
346 501 m 1
 317 531 272 543 229 543 c 0
 167 543 109 518 109 484 c 0
 109 469 134 454 197 454 c 0
 270 454 311 471 346 501 c 1
200 223 m 0
 235 223 252 249 252 275 c 0
 252 301 235 327 200 327 c 0
 164 327 147 301 147 275 c 0xf9c0
 147 249 164 223 200 223 c 0
EndSplineSet
EndChar

StartChar: uni0E2F
Encoding: 3631 3631 175
Width: 539
Flags: W
HStem: 0 21G<335 438> 391 48<197 284.927> 553 45<75.0679 161.433>
VStem: 17 49<458.083 543.86> 171 50<457.718 543.86> 335 103<0 432> 350 88<502.301 594>
LayerCount: 2
Fore
SplineSet
185 391 m 0xfc
 45 391 17 457 17 501 c 0
 17 551 57 598 120 598 c 0
 180 598 221 551 221 501 c 0
 221 480 214 458 197 439 c 1
 323 439 350 525 350 594 c 1
 438 594 l 1xfa
 438 0 l 1
 335 0 l 1
 335 432 l 1
 290 402 234 391 185 391 c 0xfc
118 449 m 0
 154 449 171 475 171 501 c 0
 171 527 154 553 118 553 c 0
 83 553 66 527 66 501 c 0
 66 475 83 449 118 449 c 0
EndSplineSet
EndChar

StartChar: uni0E30
Encoding: 3632 3632 176
Width: 460
Flags: W
HStem: -6 60<85.731 283.01> 152 45<85.7626 168.657> 396 60<85.731 283.01> 554 45<85.7626 168.657>
VStem: 31 47<61.8525 144.464 463.853 546.686> 177 46<61.7617 143.668 463.603 545.883> 321 88<112.38 192 514.767 594>
LayerCount: 2
Fore
SplineSet
409 594 m 17
 392 444 293 396 190 396 c 0
 68 396 31 456 31 499 c 0
 31 544 52 599 129 599 c 0
 192 599 223 558 223 508 c 0
 223 492 220 464 197 450 c 1
 293 452 322 511 322 577 c 0
 322 583 321 588 321 594 c 1
 409 594 l 17
127 456 m 0
 160 456 177 480 177 505 c 0
 177 530 160 554 127 554 c 0
 94 554 78 530 78 505 c 0
 78 480 94 456 127 456 c 0
409 192 m 17
 392 41 293 -6 190 -6 c 0
 68 -6 31 54 31 97 c 0
 31 141 52 197 129 197 c 0
 192 197 223 155 223 106 c 0
 223 89 220 61 197 48 c 1
 293 49 322 108 322 175 c 0
 322 180 321 186 321 192 c 1
 409 192 l 17
127 54 m 0
 160 54 177 78 177 103 c 0
 177 128 160 152 127 152 c 0
 94 152 78 128 78 103 c 0
 78 78 94 54 127 54 c 0
EndSplineSet
EndChar

StartChar: uni0E31
Encoding: 3633 3633 177
Width: 0
Flags: W
HStem: 676 49<-226.817 -52.5513> 880 49<-313.668 -228.006>
VStem: -376 53<786.429 871.296> -218 52<784.647 871.355> 55 102<859.846 923>
AnchorPoint: "AboveMark" -94 983 basemark 0
AnchorPoint: "AboveBase" -94 630 mark 0
LayerCount: 2
Fore
SplineSet
157 923 m 17
 114 740 -19 676 -151 676 c 0
 -269 676 -376 736 -376 823 c 0
 -376 882 -332 929 -272 929 c 0
 -209 929 -166 885 -166 826 c 0
 -166 786 -187 753 -229 736 c 1
 -203 729 -176 725 -149 725 c 0
 -49 725 42 783 55 923 c 1
 157 923 l 17
-270 776 m 0
 -235 776 -218 802 -218 828 c 0
 -218 854 -235 880 -270 880 c 0
 -306 880 -323 854 -323 828 c 0
 -323 802 -306 776 -270 776 c 0
EndSplineSet
EndChar

StartChar: uni0E32
Encoding: 3634 3634 178
Width: 427
Flags: W
HStem: 0 21G<235 338> 483 21G<0.461537 37.5> 541 57<80.0385 208.679>
VStem: 235 103<0 514.79>
LayerCount: 2
Fore
SplineSet
338 0 m 1
 235 0 l 1
 235 460 l 2
 235 513 192 541 142 541 c 0
 100 541 53 522 22 483 c 1
 -6 509 l 1
 35 566 112 598 182 598 c 0
 264 598 338 554 338 453 c 2
 338 0 l 1
EndSplineSet
EndChar

StartChar: uni0E34
Encoding: 3636 3636 180
Width: 0
Flags: W
HStem: 713 21G<-537.5 -531.5> 726 45<-466.641 -264.045> 839 55<-411.14 -233.892>
AnchorPoint: "AboveMark" -143 983 basemark 0
AnchorPoint: "AboveBase" -94 630 mark 0
LayerCount: 2
Back
SplineSet
-72 636 m 1
 -207 694 -316 726 -427 726 c 0
 -469 726 -510 722 -553 713 c 1
 -522 833 -419 894 -317 894 c 0
 -194 894 -72 808 -72 636 c 1
-132 708 m 1
 -161 788 -243 839 -325 839 c 0
 -378 839 -431 818 -468 768 c 1
 -449 770 -430 771 -409 771 c 0
 -320 771 -216 750 -132 708 c 1
EndSplineSet
Fore
SplineSet
-72 636 m 1xa0
 -207 694 -316 726 -427 726 c 0x60
 -469 726 -510 722 -553 713 c 1
 -522 833 -419 894 -317 894 c 0
 -194 894 -72 808 -72 636 c 1xa0
-132 708 m 1
 -161 788 -243 839 -325 839 c 0
 -378 839 -431 818 -468 768 c 1
 -449 770 -430 771 -409 771 c 0
 -320 771 -216 750 -132 708 c 1
EndSplineSet
EndChar

StartChar: uni0E35
Encoding: 3637 3637 181
Width: 0
Flags: W
HStem: 713 21G<-538 -531.5> 726 45<-466.641 -264.045> 839 55<-411.462 -233.846>
VStem: -194 100<862 948>
AnchorPoint: "AboveMark" -143 983 basemark 0
AnchorPoint: "AboveBase" -94 630 mark 0
LayerCount: 2
Back
SplineSet
-72 636 m 1
 -207 694 -316 726 -427 726 c 0
 -469 726 -510 722 -553 713 c 1
 -523 833 -420 894 -317 894 c 0
 -274 894 -231 883 -194 862 c 1
 -194 948 l 1
 -94 948 l 1
 -94 750 l 1
 -80 717 -72 679 -72 636 c 1
-132 708 m 1
 -161 788 -243 839 -325 839 c 0
 -378 839 -431 818 -468 768 c 1
 -449 770 -430 771 -409 771 c 0
 -320 771 -216 750 -132 708 c 1
EndSplineSet
Fore
SplineSet
-72 636 m 1xb0
 -207 694 -316 726 -427 726 c 0x70
 -469 726 -510 722 -553 713 c 1
 -523 833 -420 894 -317 894 c 0
 -274 894 -231 883 -194 862 c 1
 -194 948 l 1
 -94 948 l 1
 -94 750 l 1
 -80 717 -72 679 -72 636 c 1xb0
-132 708 m 1
 -161 788 -243 839 -325 839 c 0
 -378 839 -431 818 -468 768 c 1
 -449 770 -430 771 -409 771 c 0
 -320 771 -216 750 -132 708 c 1
EndSplineSet
EndChar

StartChar: uni0E36
Encoding: 3638 3638 182
Width: 0
Flags: W
HStem: 713 21G<-538 -531.5> 726 45<-466.641 -264.045> 839 55<-411.241 -238.359> 906 46<-184.535 -101.777>
VStem: -94 49<815.522 898.239>
AnchorPoint: "AboveMark" -143 983 basemark 0
AnchorPoint: "AboveBase" -94 630 mark 0
LayerCount: 2
Back
SplineSet
-72 636 m 1
 -207 694 -316 726 -427 726 c 0
 -469 726 -510 722 -553 713 c 1
 -523 834 -419 894 -317 894 c 0
 -291 894 -265 890 -240 882 c 1
 -235 911 -207 952 -143 952 c 0
 -77 952 -45 906 -45 859 c 0
 -45 823 -64 786 -103 770 c 1
 -83 733 -72 688 -72 636 c 1
-132 708 m 1
 -161 788 -243 839 -325 839 c 0
 -378 839 -431 818 -468 768 c 1
 -449 770 -430 771 -409 771 c 0
 -320 771 -216 750 -132 708 c 1
-143 808 m 0
 -110 808 -94 832 -94 857 c 0
 -94 882 -110 906 -143 906 c 0
 -176 906 -192 882 -192 857 c 0
 -192 832 -176 808 -143 808 c 0
EndSplineSet
Fore
SplineSet
-72 636 m 1xb8
 -207 694 -316 726 -427 726 c 0x78
 -469 726 -510 722 -553 713 c 1
 -523 834 -419 894 -317 894 c 0
 -291 894 -265 890 -240 882 c 1
 -235 911 -207 952 -143 952 c 0
 -77 952 -45 906 -45 859 c 0
 -45 823 -64 786 -103 770 c 1
 -83 733 -72 688 -72 636 c 1xb8
-132 708 m 1
 -161 788 -243 839 -325 839 c 0
 -378 839 -431 818 -468 768 c 1
 -449 770 -430 771 -409 771 c 0
 -320 771 -216 750 -132 708 c 1
-143 808 m 0
 -110 808 -94 832 -94 857 c 0
 -94 882 -110 906 -143 906 c 0
 -176 906 -192 882 -192 857 c 0
 -192 832 -176 808 -143 808 c 0
EndSplineSet
EndChar

StartChar: uni0E37
Encoding: 3639 3639 183
Width: 0
Flags: W
HStem: 713 21G<-537.5 -531.5> 726 45<-466.641 -264.045> 839 55<-409.39 -313.474>
VStem: -313 75<894 949> -175 80<849 949>
AnchorPoint: "AboveMark" -204 983 basemark 0
AnchorPoint: "AboveBase" -94 630 mark 0
LayerCount: 2
Back
SplineSet
-72 636 m 1xb0
 -207 694 -316 726 -427 726 c 0
 -469 726 -510 722 -553 713 c 1
 -522 834 -416 895 -313 894 c 1xd0
 -312 949 l 1
 -240 949 l 1
 -238 879 l 1
 -214 872 -194 860 -175 849 c 1
 -174 949 l 1
 -97 949 l 1
 -95 754 l 1
 -81 720 -72 680 -72 636 c 1xb0
-132 708 m 1
 -161 788 -243 839 -325 839 c 0
 -378 839 -431 818 -468 768 c 1
 -449 770 -430 771 -409 771 c 0
 -320 771 -216 750 -132 708 c 1
EndSplineSet
Fore
SplineSet
-72 636 m 1xb8
 -207 694 -316 726 -427 726 c 0x78
 -469 726 -510 722 -553 713 c 1
 -522 833 -419 894 -313 894 c 1
 -312 949 l 1
 -240 949 l 1
 -238 879 l 1
 -214 872 -194 860 -175 849 c 1
 -174 949 l 1
 -97 949 l 1
 -95 754 l 1
 -81 720 -72 680 -72 636 c 1xb8
-132 708 m 1
 -161 788 -243 839 -325 839 c 0
 -378 839 -431 818 -468 768 c 1
 -449 770 -430 771 -409 771 c 0
 -320 771 -216 750 -132 708 c 1
EndSplineSet
EndChar

StartChar: uni0E38
Encoding: 3640 3640 184
Width: 0
Flags: W
HStem: -227 41<-249.47 -192.381> -97 45<-252.193 -175.881>
VStem: -304 46<-178.914 -102.242> -192 97<-307 -226> -169 74<-180.733 -103.331>
AnchorPoint: "BelowBase" -94 -52 mark 0
LayerCount: 2
Fore
SplineSet
-304 -142 m 0xf0
 -304 -100 -274 -52 -209 -52 c 0
 -142 -52 -95 -92 -95 -149 c 2xe8
 -95 -307 l 1
 -192 -307 l 1
 -192 -226 l 1
 -198 -227 -209 -227 -218 -227 c 0
 -275 -226 -304 -185 -304 -142 c 0xf0
-169 -141 m 0
 -169 -117 -189 -97 -212 -97 c 0
 -243 -97 -258 -115 -258 -141 c 0
 -258 -164 -238 -186 -212 -186 c 0
 -184 -186 -169 -164 -169 -141 c 0
EndSplineSet
Substitution2: "Thai Sara U Mai Ek Reordering" uni0E48.low
Substitution2: "Thai Sara U Mai Tho Reordering" uni0E49.low
Substitution2: "Thai Sara U Mai Tri Reordering" uni0E4A.low
Substitution2: "Thai Sara U Mai Chattawa Reordering" uni0E4B.low
Substitution2: "Thai Sara U Thanthakhat Reordering" uni0E4C.low
Substitution2: "Thai Sara U Nikhahit Reordering" uni0E4D
EndChar

StartChar: uni0E39
Encoding: 3641 3641 185
Width: 0
Flags: W
HStem: -319 39<-236.906 -193.512> -214 37<-368.928 -312.091> -88 37<-371.194 -299.381>
VStem: -417 38<-167.479 -95.056> -312 75<-279.596 -210> -290 53<-171.733 -95.4323> -192 98<-279.607 -57>
AnchorPoint: "BelowBase" -94 -52 mark 0
LayerCount: 2
Fore
SplineSet
-94 -212 m 2xfa
 -94 -270 -129 -319 -198 -319 c 0
 -267 -319 -312 -281 -312 -226 c 2
 -312 -210 l 1xfa
 -316 -212 -323 -214 -332 -214 c 0
 -387 -214 -417 -173 -417 -132 c 0
 -417 -91 -388 -51 -332 -51 c 0
 -263 -51 -235 -92 -237 -151 c 1xf6
 -237 -257 l 1
 -238 -269 -227 -280 -215 -280 c 0
 -201 -280 -192 -272 -192 -257 c 2
 -192 -57 l 1
 -94 -57 l 1
 -94 -212 l 2xfa
-290 -132 m 0xf6
 -290 -108 -310 -88 -333 -88 c 0
 -362 -88 -379 -106 -379 -132 c 0
 -379 -155 -359 -177 -333 -177 c 0
 -306 -177 -290 -155 -290 -132 c 0xf6
EndSplineSet
Substitution2: "Thai Sara UU Mai Ek Reordering" uni0E48.low
Substitution2: "Thai Sara UU Mai Tho Reordering" uni0E49.low
Substitution2: "Thai Sara UU Mai Tri Reordering" uni0E4A.low
Substitution2: "Thai Sara UU Mai Chattawa Reordering" uni0E4B.low
Substitution2: "Thai Sara UU Thanthakhat Reordering" uni0E4C.low
Substitution2: "Thai Sara UU Nikhahit Reordering" uni0E4D
EndChar

StartChar: uni0E3A
Encoding: 3642 3642 186
Width: 0
Flags: W
HStem: -174 131<-193.811 -89.5985>
VStem: -210 136<-157.814 -59.1021>
AnchorPoint: "BelowBase" -94 -43 mark 0
LayerCount: 2
Fore
SplineSet
-141 -174 m 0
 -187 -174 -210 -141 -210 -108 c 0
 -210 -76 -187 -43 -141 -43 c 0
 -96 -43 -74 -76 -74 -108 c 0
 -74 -141 -96 -174 -141 -174 c 0
EndSplineSet
Substitution2: "Thai Phinthu Maitaikhu Reordering" uni0E47
Substitution2: "Thai Phinthu Mai Ek Reordering" uni0E48.low
Substitution2: "Thai Phinthu Mai Tho Reordering" uni0E49.low
Substitution2: "Thai Phinthu Mai Tri Reordering" uni0E4A.low
Substitution2: "Thai Phinthu Mai Chattawa Reordering" uni0E4B.low
Substitution2: "Thai Phinthu Thanthakhat Reordering" uni0E4C.low
Substitution2: "Thai Phinthu Nikhahit Reordering" uni0E4D
EndChar

StartChar: dottedcircle
Encoding: 9676 9676 188
Width: 649
Flags: W
HStem: -14 77<310.341 378.031> 23 77<156.207 224.871> 34 77<441.745 511.233> 118 77<56.1286 124.793> 131 75<525.597 594.277> 263 76<562.723 631.869> 270 77<18.3406 86.8191> 399 77<526.413 593.447> 406 76<64.1286 131.217> 493 77<429.553 497.355> 501 77<167.341 235.819> 535 76<307.767 377.255>
VStem: 14 77<273.723 343.04> 52 77<122.129 190.607> 60 75<409.529 478.664> 152 77<27.393 95.8714> 163 77<504.723 574.211> 306 76<-10.2773 59.2105 538.995 606.871> 425 77<497.129 565.421> 438 77<37.9155 107.233> 522 76<134.359 202.233 403.131 472.277> 559 77<267.584 334.215>
LayerCount: 2
Fore
SplineSet
97 482 m 0x008240
 120 482 135 465 135 445 c 0
 135 424 120 406 97 406 c 0
 77 406 60 424 60 445 c 0
 60 465 77 482 97 482 c 0x008240
201 578 m 0x0020c0
 223 578 240 561 240 538 c 0
 240 518 223 501 201 501 c 0
 181 501 163 518 163 538 c 0
 163 561 181 578 201 578 c 0x0020c0
192 100 m 0x400140
 212 100 229 83 229 63 c 0x800140
 229 41 212 23 192 23 c 0x400140
 169 23 152 41 152 63 c 0x800140
 152 83 169 100 192 100 c 0x400140
89 195 m 0x100440
 112 195 129 177 129 155 c 0
 129 135 112 118 89 118 c 0
 69 118 52 135 52 155 c 0
 52 177 69 195 89 195 c 0x100440
476 111 m 0x200050
 498 111 515 94 515 72 c 0
 515 52 498 34 476 34 c 0
 455 34 438 52 438 72 c 0
 438 94 455 111 476 111 c 0x200050
561 206 m 0x080048
 581 206 598 189 598 167 c 0
 598 146 581 131 561 131 c 0
 538 131 522 146 522 167 c 0
 522 189 538 206 561 206 c 0x080048
561 476 m 0x010048
 581 476 598 459 598 439 c 0
 598 418 581 399 561 399 c 0
 538 399 522 418 522 439 c 0
 522 459 538 476 561 476 c 0x010048
462 570 m 0x004060
 485 570 502 551 502 530 c 0
 502 510 485 493 462 493 c 0
 442 493 425 510 425 530 c 0
 425 551 442 570 462 570 c 0x004060
596 339 m 0x040044
 617 339 636 321 636 301 c 0
 636 280 617 263 596 263 c 0
 576 263 559 280 559 301 c 0
 559 321 576 339 596 339 c 0x040044
52 347 m 0x020440
 74 347 91 329 91 307 c 0x020840
 91 287 74 270 52 270 c 0x020440
 32 270 14 287 14 307 c 0x020840
 14 329 32 347 52 347 c 0x020440
344 63 m 0x800040
 366 63 382 46 382 23 c 0x400040
 382 3 366 -14 344 -14 c 0x800040
 324 -14 306 3 306 23 c 0x400040
 306 46 324 63 344 63 c 0x800040
343 611 m 0x001040
 364 611 381 594 381 574 c 0
 381 551 364 535 343 535 c 0
 321 535 304 551 304 574 c 0
 304 594 321 611 343 611 c 0x001040
EndSplineSet
EndChar

StartChar: uni0E3F
Encoding: 3647 3647 189
Width: 752
Flags: W
HStem: -9 64<251.648 337.391 433 504.126> -9 41<38 129.085> 333 82<433 499.719> 347 65<250 338> 673 63<301.56 338 433 491.379> 694 40<38 126.51>
VStem: 144 106<53.8189 347 412 671.489> 338 95<-118 -11 55 333 415 667 736 834> 541 112<455.363 624.12> 564 124<112.09 278.148>
LayerCount: 2
Fore
SplineSet
688 200 m 0x0b40
 688 58 596 -8 433 -9 c 1x8b40
 432 -118 l 1
 341 -118 l 1
 339 -11 l 1
 38 -9 l 1
 38 32 l 1
 129 32 144 58 144 88 c 2
 144 637 l 2
 144 665 129 693 38 694 c 1
 38 734 l 1x4740
 78 734 287 736 339 736 c 1
 341 834 l 1
 432 834 l 1
 433 731 l 1
 571 731 653 677 653 541 c 0x0b80
 653 445 605 399 535 381 c 1
 614 367 688 312 688 200 c 0x0b40
338 412 m 1x1b
 338 673 l 1
 324 674 311 674 300 674 c 0
 267 674 250 669 250 650 c 2
 250 412 l 1
 338 412 l 1x1b
541 536 m 0x2380
 541 627 498 667 433 667 c 1
 433 415 l 1
 519 418 541 478 541 536 c 0x2380
338 51 m 9
 338 347 l 1
 250 347 l 1x13
 250 100 l 2
 250 73 250 49 304 49 c 0
 313 49 325 49 338 51 c 9
564 203 m 0xa340
 564 278 515 330 433 333 c 1
 433 55 l 1
 527 65 564 114 564 203 c 0xa340
EndSplineSet
EndChar

StartChar: uni0E40
Encoding: 3648 3648 190
Width: 337
Flags: W
HStem: -8 46<163.779 250.296> 143 44<187.785 250.464> 574 20G<159.5 170>
VStem: 84 103<186 519> 84 70<48.7973 134.087> 260 44<47.2542 133.117>
LayerCount: 2
Fore
SplineSet
201 187 m 0xf4
 270 187 304 139 304 90 c 0
 304 41 269 -8 200 -8 c 0
 124 -8 84 57 84 118 c 2xec
 84 519 l 1
 140 582 l 2
 146 588 155 594 164 594 c 0
 176 594 187 584 187 551 c 2
 187 186 l 1
 190 186 198 187 201 187 c 0xf4
207 38 m 0
 242 38 260 64 260 90 c 0
 260 117 242 143 207 143 c 0
 172 143 154 117 154 90 c 0
 154 64 172 38 207 38 c 0
EndSplineSet
EndChar

StartChar: uni0E42
Encoding: 3650 3650 192
Width: 339
Flags: W
HStem: -8 45<200.279 285.617> 141 46<224.674 286.029> 839 74<199.656 320.473> 897 74<18.9329 147.961>
VStem: 121 103<186 741.757> 121 69<46.302 132.133> 296 45<46.7542 132.14>
DStem2: 2 854 -66 831 0.877189 -0.480145<0 175.114>
LayerCount: 2
Fore
SplineSet
348 921 m 0xea
 348 901 328 839 269 839 c 0xea
 219 839 116 897 69 897 c 0
 46 897 31 897 2 854 c 1
 192 750 l 1
 219 734 224 717 224 690 c 2
 224 186 l 1xda
 229 187 235 187 238 187 c 0
 307 187 341 139 341 90 c 0
 341 41 306 -8 237 -8 c 0
 161 -8 121 57 121 118 c 2xd6
 121 691 l 2
 121 720 109 737 100 742 c 2
 -66 831 l 1
 -31 906 12 971 86 971 c 0xda
 130 971 226 913 280 913 c 0
 319 913 312 939 335 939 c 0
 343 939 348 934 348 921 c 0xea
243 37 m 0
 278 37 296 63 296 89 c 0
 296 115 278 141 243 141 c 0
 208 141 190 115 190 89 c 0xc6
 190 63 208 37 243 37 c 0
EndSplineSet
EndChar

StartChar: uni0E43
Encoding: 3651 3651 193
Width: 362
Flags: W
HStem: -8 45<220.279 305.617> 141 46<245.112 305.595> 671 46<4.37074 74.7527> 794 48<3.60197 75.7208> 912 59<9.26282 121.007>
VStem: -69 69<722.612 857.607> 79 46<721.267 790.706> 141 103<186 891.973> 141 69<46.302 132.133> 316 45<46.7542 132.14>
LayerCount: 2
Fore
SplineSet
-69 818 m 0xff40
 -69 881 -28 971 85 971 c 0
 186 971 244 903 244 823 c 2
 244 186 l 1xff40
 247 186 255 187 258 187 c 0
 327 187 361 139 361 90 c 0
 361 41 326 -8 257 -8 c 0
 181 -8 141 57 141 118 c 2xfec0
 141 842 l 2
 141 885 105 912 71 912 c 0
 29 912 -14 894 -20 817 c 1
 -1 839 31 842 37 842 c 0
 96 842 125 800 125 757 c 0
 125 714 95 671 35 671 c 0
 -44 671 -69 755 -69 818 c 0xff40
42 794 m 0
 15 794 0 777 0 756 c 0
 0 739 12 717 38 717 c 0
 66 717 79 737 79 757 c 0
 79 775 67 794 42 794 c 0
263 37 m 0
 298 37 316 63 316 89 c 0
 316 115 298 141 263 141 c 0
 228 141 210 115 210 89 c 0xfec0
 210 63 228 37 263 37 c 0
EndSplineSet
EndChar

StartChar: uni0E44
Encoding: 3652 3652 194
Width: 388
Flags: W
HStem: -8 45<247.843 334.047> 141 43<272.204 333.595> 662 41<30.6643 71.9704> 925 46<133.872 206.5>
VStem: -45 75<703.886 945.512> 73 60<704.636 924.009> 170 102<184 924.174> 170 68<46.302 132.133> 343 46<45.8749 132.314>
LayerCount: 2
Fore
SplineSet
-45 909 m 2xfe80
 -45 947 -97 954 -97 983 c 0
 -97 993 -88 1001 -76 1001 c 0
 -71 1001 -64 999 -57 995 c 2
 4 965 l 1
 27 952 30 940 30 920 c 2
 30 723 l 2
 30 714 41 703 52 703 c 0
 61 703 73 713 73 723 c 2
 73 868 l 2
 73 926 103 971 172 971 c 0
 241 971 272 920 272 871 c 2
 272 184 l 1xfe80
 275 184 280 187 286 187 c 0
 355 187 389 139 389 91 c 0
 389 41 353 -8 284 -8 c 0
 209 -8 170 57 170 118 c 2xfd80
 170 902 l 2
 170 915 164 925 153 925 c 0
 139 925 133 912 133 902 c 2
 133 750 l 2
 133 702 109 662 47 662 c 0
 -11 662 -45 702 -45 754 c 2
 -45 909 l 2xfe80
290 37 m 0
 326 37 343 63 343 89 c 0
 343 115 326 141 290 141 c 0
 255 141 238 115 238 89 c 0xfd80
 238 63 255 37 290 37 c 0
EndSplineSet
EndChar

StartChar: uni0E45
Encoding: 3653 3653 195
Width: 304
Flags: W
HStem: 483 21G<-124.538 -87.5> 541 57<-43.2607 84.679>
VStem: 111 103<-180 514.79>
LayerCount: 2
Fore
SplineSet
214 -180 m 1
 158 -244 l 2
 153 -249 140 -255 132 -255 c 0
 120 -255 111 -246 111 -214 c 2
 111 460 l 2
 111 513 68 541 18 541 c 0
 -24 541 -72 522 -103 483 c 1
 -131 509 l 1
 -89 566 -12 598 58 598 c 0
 140 598 214 554 214 453 c 2
 214 -180 l 1
EndSplineSet
EndChar

StartChar: uni0E46
Encoding: 3654 3654 196
Width: 703
Flags: W
HStem: 255 37<311.066 389.209> 390 37<310.109 389.42> 579 20G<296 354.189 457.081 524.5>
VStem: 235 47<395.537 509.72> 400 39<301.645 380.614> 504 100<-180 518.278>
DStem2: 335 599 330 536 0.70247 -0.711713<39.7299 102.542>
LayerCount: 2
Fore
SplineSet
350 255 m 0
 258 255 235 354 235 434 c 0
 235 485 257 561 335 599 c 1
 406 525 l 1
 476 599 l 1
 573 588 604 521 604 455 c 2
 604 -180 l 1
 551 -244 l 2
 546 -249 535 -253 527 -253 c 0
 514 -253 504 -244 504 -214 c 2
 504 485 l 2
 504 505 487 521 470 525 c 1
 406 459 l 1
 330 536 l 1
 304 518 282 487 282 427 c 0
 282 417 283 406 284 395 c 1
 301 421 332 427 350 427 c 0
 410 426 439 383 439 340 c 0
 439 298 409 255 350 255 c 0
350 292 m 0
 383 292 400 316 400 341 c 0
 400 366 383 390 350 390 c 0
 317 390 300 366 300 341 c 0
 300 316 317 292 350 292 c 0
EndSplineSet
EndChar

StartChar: uni0E47
Encoding: 3655 3655 197
Width: 0
Flags: W
HStem: 656 49<-210.293 -135.767> 736 56<-375.515 -303.661> 796 46<-211.8 -135.359> 888 50<-356.771 -179.785> 895 54<-402.56 -223.337>
VStem: -501 75<751.09 871.771> -260 42<749.007 789.064> -166 95<951.714 1025> -129 49<711.658 790.034>
AnchorPoint: "AboveBase" -129 630 mark 0
LayerCount: 2
Fore
SplineSet
-365 949 m 0xee80
 -349 949 -265 938 -229 938 c 0
 -208 938 -166 944 -166 1007 c 0
 -166 1012 -166 1018 -167 1025 c 1
 -71 1025 l 17
 -72 910 -150 888 -214 888 c 0xf7
 -255 888 -337 895 -350 895 c 0
 -393 895 -426 862 -426 814 c 0
 -426 795 -421 773 -409 750 c 1
 -400 780 -378 792 -353 792 c 0
 -301 792 -266 749 -262 749 c 0
 -259 749 -260 758 -260 762 c 0
 -260 815 -218 842 -174 842 c 0
 -127 842 -80 813 -80 753 c 0
 -80 687 -126 656 -172 656 c 0
 -280 656 -300 736 -346 736 c 0
 -368 736 -379 717 -379 696 c 0
 -379 681 -373 666 -364 656 c 1
 -425 657 l 1
 -478 704 -501 762 -501 813 c 0
 -501 886 -450 949 -365 949 c 0xee80
-174 705 m 0
 -144 705 -129 728 -129 750 c 0xe680
 -129 773 -144 796 -174 796 c 0
 -204 796 -218 773 -218 750 c 0
 -218 728 -204 705 -174 705 c 0
EndSplineSet
Substitution2: "Thai Mark High Variant" uni0E47.high
Substitution2: "Thai Phinthu Maitaikhu Reordering" uni0E3A
EndChar

StartChar: uni0E48
Encoding: 3656 3656 198
Width: 0
Flags: W
HStem: 1021 206<-181 -104>
VStem: -181 77<1021 1124>
AnchorPoint: "AboveMark" -143 983 mark 0
LayerCount: 2
Fore
SplineSet
-91 1227 m 1
 -104 1021 l 1
 -181 1021 l 1
 -195 1227 l 1
 -91 1227 l 1
EndSplineSet
MultipleSubs2: "Thai Tone Nikhahit Attachment" uni0E4D uni0E48
Substitution2: "Thai Tone Low Variant" uni0E48.low
Substitution2: "Thai Sara U Mai Ek Reordering" uni0E38
Substitution2: "Thai Sara UU Mai Ek Reordering" uni0E39
Substitution2: "Thai Phinthu Mai Ek Reordering" uni0E3A
EndChar

StartChar: uni0E49
Encoding: 3657 3657 199
Width: 0
Flags: W
HStem: 991 49<-138 -45.9594> 994 35<-244 -198.568> 1072 37<-220.974 -180.458> 1187 42<-222.68 -150.724>
VStem: -269 42<1113.59 1182.78> -146 46<1113.06 1182.57> 63 89<1150.46 1229>
AnchorPoint: "AboveMark" -46 983 mark 0
LayerCount: 2
Fore
SplineSet
-197 1072 m 0x7e
 -226 1072 -269 1098 -269 1150 c 0
 -269 1190 -242 1229 -186 1229 c 0
 -130 1229 -100 1193 -100 1150 c 0
 -100 1077 -138 1043 -138 1043 c 1
 -138 1040 l 1
 -137 1040 l 2
 -120 1040 50 1045 63 1229 c 1
 152 1229 l 17
 127 1018 -70 991 -179 991 c 0xbe
 -210 991 -234 993 -244 994 c 1
 -244 1029 l 1
 -204 1034 -189 1052 -180 1071 c 1
 -180 1074 l 1
 -180 1074 -187 1072 -197 1072 c 0x7e
-187 1109 m 0
 -160 1109 -146 1128 -146 1148 c 0
 -146 1168 -160 1187 -187 1187 c 0
 -214 1187 -227 1168 -227 1148 c 0
 -227 1128 -214 1109 -187 1109 c 0
EndSplineSet
MultipleSubs2: "Thai Tone Nikhahit Attachment" uni0E4D uni0E49
Substitution2: "Thai Tone Low Variant" uni0E49.low
Substitution2: "Thai Sara U Mai Tho Reordering" uni0E38
Substitution2: "Thai Sara UU Mai Tho Reordering" uni0E39
Substitution2: "Thai Phinthu Mai Tho Reordering" uni0E3A
EndChar

StartChar: uni0E4A
Encoding: 3658 3658 200
Width: 0
Flags: W
HStem: 986 35<-274.608 -215.936> 1089 35<-274.849 -216.365>
VStem: -349 54<1104 1165.79> -212 35<1025.4 1085.05> -97 56<1055.1 1163.72> -2 69<1107.29 1226>
AnchorPoint: "AboveMark" -175 983 mark 0
LayerCount: 2
Fore
SplineSet
66 1226 m 17
 66 1219 67 1213 67 1207 c 0
 67 1087 -12 986 -144 986 c 1
 -144 1021 l 1
 -110 1039 -97 1072 -97 1102 c 0
 -97 1136 -113 1167 -135 1175 c 1
 -190 1137 l 1
 -253 1178 l 1
 -281 1173 -295 1137 -295 1113 c 0
 -295 1103 -292 1105 -292 1104 c 2
 -292 1104 -280 1124 -246 1124 c 0
 -206 1124 -177 1098 -177 1057 c 0
 -177 1014 -204 986 -246 986 c 0
 -310 986 -349 1043 -349 1115 c 0
 -349 1160 -310 1227 -249 1232 c 1
 -190 1183 l 1
 -132 1232 l 1
 -65 1212 -41 1166 -41 1123 c 0
 -41 1097 -49 1073 -61 1055 c 1
 -58 1054 l 1
 -26 1074 -2 1116 -2 1173 c 0
 -2 1189 -4 1207 -8 1226 c 1
 66 1226 l 17
-246 1021 m 0
 -223 1021 -212 1038 -212 1055 c 0
 -212 1072 -223 1089 -246 1089 c 0
 -268 1089 -279 1072 -279 1055 c 0
 -279 1038 -268 1021 -246 1021 c 0
EndSplineSet
MultipleSubs2: "Thai Tone Nikhahit Attachment" uni0E4D uni0E4A
Substitution2: "Thai Tone Low Variant" uni0E4A.low
Substitution2: "Thai Sara U Mai Tri Reordering" uni0E38
Substitution2: "Thai Sara UU Mai Tri Reordering" uni0E39
Substitution2: "Thai Phinthu Mai Tri Reordering" uni0E3A
EndChar

StartChar: uni0E4B
Encoding: 3659 3659 201
Width: 0
Flags: W
HStem: 1072 74<-275 -181 -104 -11>
VStem: -181 77<992 1071 1147 1226>
AnchorPoint: "AboveMark" -143 983 mark 0
LayerCount: 2
Fore
SplineSet
-11 1072 m 1
 -104 1071 l 1
 -106 992 l 1
 -180 992 l 1
 -181 1071 l 1
 -275 1072 l 1
 -275 1146 l 1
 -181 1147 l 1
 -183 1226 l 1
 -103 1226 l 1
 -104 1147 l 1
 -11 1146 l 1
 -11 1072 l 1
EndSplineSet
MultipleSubs2: "Thai Tone Nikhahit Attachment" uni0E4D uni0E4B
Substitution2: "Thai Tone Low Variant" uni0E4B.low
Substitution2: "Thai Sara U Mai Chattawa Reordering" uni0E38
Substitution2: "Thai Sara UU Mai Chattawa Reordering" uni0E39
Substitution2: "Thai Phinthu Mai Chattawa Reordering" uni0E3A
EndChar

StartChar: uni0E4C
Encoding: 3660 3660 202
Width: 0
Flags: W
HStem: 895 42<-197.437 -126.315>
VStem: -249 46<942.092 1014.76> -121 47<940.866 1016.36> -41 78<1137.48 1171.97>
AnchorPoint: "AboveMark" -160 891 mark 0
LayerCount: 2
Fore
SplineSet
37 1170 m 17
 11 1074 -100 1055 -124 1049 c 1
 -124 1046 l 1
 -100 1044 -74 1018 -74 977 c 0
 -74 931 -109 895 -160 895 c 0
 -215 895 -249 937 -249 983 c 0
 -249 1023 -220 1075 -129 1092 c 0
 -83 1101 -51 1135 -41 1192 c 1
 37 1170 l 17
-160 937 m 0
 -134 937 -121 958 -121 978 c 0
 -121 999 -134 1020 -160 1020 c 0
 -188 1020 -203 999 -203 978 c 0
 -203 958 -188 937 -160 937 c 0
EndSplineSet
MultipleSubs2: "Thai Tone Nikhahit Attachment" uni0E4D uni0E4C
Substitution2: "Thai Tone Low Variant" uni0E4C.low
Substitution2: "Thai Sara U Thanthakhat Reordering" uni0E38
Substitution2: "Thai Sara UU Thanthakhat Reordering" uni0E39
Substitution2: "Thai Phinthu Thanthakhat Reordering" uni0E3A
EndChar

StartChar: uni0E4D
Encoding: 3661 3661 203
Width: 0
Flags: W
HStem: 673 54<-174.927 -89.1338> 831 57<-174.927 -89.1338>
VStem: -240 55<736.067 822.076> -79 54<736.067 822.076>
AnchorPoint: "AboveMark" -132 983 basemark 0
AnchorPoint: "AboveBase" -61 630 mark 0
LayerCount: 2
Fore
SplineSet
-132 673 m 0
 -204 673 -240 727 -240 780 c 0
 -240 834 -204 888 -132 888 c 0
 -60 888 -25 834 -25 780 c 0
 -25 727 -60 673 -132 673 c 0
-132 727 m 0
 -96 727 -79 753 -79 779 c 0
 -79 805 -96 831 -132 831 c 0
 -168 831 -185 805 -185 779 c 0
 -185 753 -168 727 -132 727 c 0
EndSplineSet
Substitution2: "Thai Mark High Variant" uni0E4D.high
Substitution2: "Thai Sara U Nikhahit Reordering" uni0E38
Substitution2: "Thai Sara UU Nikhahit Reordering" uni0E39
Substitution2: "Thai Phinthu Nikhahit Reordering" uni0E3A
EndChar

StartChar: uni0E4E
Encoding: 3662 3662 204
Width: 0
Flags: W
HStem: 662 55<-188.495 -172> 777 59<-190.993 -150.756> 909 53<-73.2921 -18>
VStem: -261 69<722.308 776.395> -155 67<829.715 892.659>
AnchorPoint: "AboveBase" -94 630 mark 0
LayerCount: 2
Fore
SplineSet
-9 909 m 1
 -65 904 -88 883 -88 857 c 0
 -88 846 -84 835 -77 823 c 1
 -118 760 l 1
 -137 773 -152 777 -164 777 c 0
 -182 777 -192 765 -192 751 c 0
 -192 730 -172 717 -141 717 c 1
 -172 662 l 1
 -224 662 -261 703 -261 750 c 0
 -261 812 -217 836 -182 836 c 0
 -170 836 -159 833 -152 828 c 1
 -149 831 l 1
 -153 840 -155 851 -155 863 c 0
 -155 907 -123 962 -18 962 c 1
 -9 909 l 1
EndSplineSet
EndChar

StartChar: uni0E4F
Encoding: 3663 3663 205
Width: 737
Flags: W
HStem: -14 79<270.672 465.22> 152 77<320.511 417.176> 364 77<320.511 417.176> 527 80<270.672 465.22>
VStem: 57 80<199.112 389.909> 221 80<248.942 344.328> 436 75<248.388 344.888> 599 80<202.724 389.909>
LayerCount: 2
Fore
SplineSet
679 296 m 0
 679 126 536 -14 369 -14 c 0
 197 -14 57 126 57 296 c 0
 57 468 197 607 369 607 c 0
 536 607 679 468 679 296 c 0
599 296 m 0
 599 424 496 527 369 527 c 0
 238 527 137 424 137 296 c 0
 137 169 238 65 369 65 c 0
 496 65 599 169 599 296 c 0
511 296 m 0
 511 217 445 152 369 152 c 0
 286 152 221 217 221 296 c 0
 221 379 286 441 369 441 c 0
 445 441 511 379 511 296 c 0
436 296 m 0
 436 333 406 364 369 364 c 0
 332 364 301 333 301 296 c 0
 301 260 332 229 369 229 c 0
 406 229 436 260 436 296 c 0
EndSplineSet
EndChar

StartChar: uni0E50
Encoding: 3664 3664 206
Width: 645
Flags: W
HStem: -9 55<242.623 399.782> 430 60<237.942 400>
VStem: 38 106<148.211 329.648> 498 106<150.286 326.43>
LayerCount: 2
Fore
SplineSet
604 237 m 0
 604 92 475 -9 323 -9 c 0
 166 -9 38 89 38 238 c 0
 38 384 166 490 323 490 c 0
 475 490 604 384 604 237 c 0
498 238 m 0
 498 336 425 430 323 430 c 0
 215 430 144 341 144 237 c 0
 144 137 221 46 323 46 c 0
 424 46 498 144 498 238 c 0
EndSplineSet
EndChar

StartChar: uni0E51
Encoding: 3665 3665 207
Width: 645
Flags: W
HStem: -37 23<379.739 495> -6 58<209.417 325.435> 98 53<265.443 343.624> 243 49<264.932 342.503> 427 57<232.432 408.058>
VStem: 40 100<132.712 332.424> 207 51<157.761 236.626> 350 69<118.055 236.945> 504 100<121.741 331.552>
LayerCount: 2
Fore
SplineSet
604 232 m 0
 604 100 521 -8 398 -37 c 1
 338 -14 l 1
 495 32 504 149 504 233 c 0
 504 362 419 427 319 427 c 0
 209 427 140 346 140 232 c 0
 140 113 213 52 272 52 c 0
 306 52 336 72 346 111 c 1
 329 100 315 98 301 98 c 0
 243 98 207 144 207 194 c 0
 207 249 246 292 306 292 c 0
 381 292 419 232 419 164 c 0
 419 53 335 -6 247 -6 c 0
 146 -6 40 69 40 232 c 0
 40 392 172 484 319 484 c 0
 465 484 604 390 604 232 c 0
304 151 m 0
 335 151 350 174 350 197 c 0
 350 220 335 243 304 243 c 0
 274 243 258 220 258 197 c 0
 258 174 274 151 304 151 c 0
EndSplineSet
EndChar

StartChar: uni0E52
Encoding: 3666 3666 208
Width: 645
Flags: W
HStem: -2 48<147.658 519.576> 86 43<262.775 340.431> 221 46<261.421 340.431> 425 65<270.784 331.247 451.677 509.942> 693 20G<38 49>
VStem: 37 92<65.4655 661.257> 180 74<157.215 410.422> 347 46<135.495 214.466> 536 83<61.1332 394.638>
LayerCount: 2
Fore
SplineSet
619 202 m 2
 619 37 581 -2 481 -2 c 2
 194 -2 l 2
 86 -2 37 57 37 134 c 2
 37 561 l 2
 37 670 22 660 22 689 c 0
 22 707 32 713 44 713 c 0
 54 713 68 708 72 703 c 2
 109 660 l 2
 113 655 129 629 129 561 c 2
 129 117 l 2
 129 75 160 46 194 46 c 2
 482 46 l 2
 516 46 524 71 527 91 c 0
 532 127 536 181 536 236 c 0
 536 393 503 426 481 426 c 0
 453 426 427 364 419 321 c 0
 416 302 403 292 389 292 c 0
 376 292 362 302 359 323 c 0
 353 361 334 425 302 425 c 0
 266 425 254 369 254 311 c 0
 254 294 255 275 257 255 c 1
 266 263 287 267 303 267 c 0
 363 267 393 222 393 177 c 0
 393 132 363 86 303 86 c 0
 229 86 180 143 180 296 c 0
 180 414 224 490 292 490 c 0
 373 490 389 390 389 390 c 1
 392 390 l 1
 392 412 428 490 493 490 c 0
 585 490 619 384 619 252 c 2
 619 202 l 2
301 129 m 0
 332 129 347 152 347 175 c 0
 347 198 332 221 301 221 c 0
 270 221 255 198 255 175 c 0
 255 152 270 129 301 129 c 0
EndSplineSet
EndChar

StartChar: uni0E53
Encoding: 3667 3667 209
Width: 645
Flags: W
HStem: -8 49<155.047 232.912> 134 49<154.314 232.912> 424 64<171.179 248.718 397.078 477.806>
VStem: 38 97<169.099 380.791> 240 49<48.0763 126.71> 292 67<155.609 365.962> 512 94<76.3307 379.721>
LayerCount: 2
Fore
SplineSet
437 425 m 0
 375 425 359 305 359 194 c 0
 359 166 342 153 326 153 c 0
 309 153 292 167 292 194 c 0
 292 217 293 229 293 243 c 0
 293 338 257 424 212 424 c 0
 178 424 135 381 135 268 c 0
 135 239 137 206 144 167 c 1
 154 174 172 183 194 183 c 0
 250 183 289 138 289 88 c 0
 289 35 250 -8 194 -8 c 0
 132 -8 86 35 66 92 c 0
 49 139 38 197 38 255 c 0
 38 373 83 488 210 488 c 0
 275 488 310 432 324 402 c 1
 350 467 392 488 441 488 c 0
 555 488 606 386 606 242 c 0
 606 172 594 91 571 8 c 9
 521 -5 l 2
 518 -6 510 -6 505 -6 c 0
 492 -6 479 -2 479 17 c 0
 479 34 512 148 512 258 c 0
 512 364 483 425 437 425 c 0
194 41 m 0
 224 41 240 64 240 88 c 0
 240 111 224 134 194 134 c 0
 163 134 148 111 148 88 c 0
 148 64 163 41 194 41 c 0
EndSplineSet
EndChar

StartChar: uni0E54
Encoding: 3668 3668 210
Width: 645
Flags: W
HStem: -3 48<239.829 386> -2 66<453.725 599.801> 168 53<344.52 407.136> 313 49<327.262 407.386> 421 66<217.927 443.131> 693 20G<522 586>
VStem: 46 100<152.655 340.674> 249 72<228.216 306.004> 414 50<228.244 306.32> 522 100<579.297 688.391>
LayerCount: 2
Fore
SplineSet
622 665 m 0xbfc0
 622 595 580 421 373 421 c 0
 355 421 323 424 304 424 c 0
 192 424 147 332 146 252 c 1
 146 153 204 45 318 45 c 0xbfc0
 339 45 345 49 386 49 c 1
 319 89 249 166 249 244 c 0
 249 320 306 362 365 362 c 0
 429 362 464 321 464 260 c 0
 464 205 417 168 371 168 c 0
 362 168 353 169 344 172 c 1
 371 129 458 64 544 64 c 0
 553 64 585 68 590 68 c 0
 608 68 613 60 613 51 c 0
 613 40 611 38 587 -2 c 1x7fc0
 462 1 399 3 378 3 c 0
 337 3 307 -3 278 -3 c 0
 161 -3 46 85 46 252 c 0
 46 413 164 490 292 490 c 0
 330 490 339 487 367 487 c 0
 458 487 522 551 522 713 c 1
 602 688 l 2
 613 685 622 680 622 665 c 0xbfc0
367 221 m 0
 398 221 414 244 414 267 c 0
 414 290 398 313 367 313 c 0
 336 313 321 290 321 267 c 0
 321 244 336 221 367 221 c 0
EndSplineSet
EndChar

StartChar: uni0E55
Encoding: 3669 3669 211
Width: 645
Flags: W
HStem: -2 67<453.988 599.683> 3 41<256.114 386> 169 52<344.521 406.542> 313 51<327.262 407.452> 421 49<305.328 383.619> 562 46<305.906 383.436> 694 20G<521 588.5>
VStem: 46 100<158.847 342.208> 247 52<486.421 555.692> 249 72<227.295 307.004> 390 52<507.42 554.548> 414 50<228.053 305.45> 521 101<578.803 690.375>
LayerCount: 2
Fore
SplineSet
622 666 m 0x7fa8
 622 597 576 422 381 421 c 0
 361 421 323 424 304 424 c 0
 192 424 147 333 146 253 c 1
 146 155 217 44 331 44 c 0x7fa8
 357 44 366 49 386 49 c 1
 306 91 249 167 249 246 c 0
 249 322 306 364 365 364 c 0
 424 364 464 326 464 261 c 0
 464 208 418 169 372 169 c 0
 363 169 353 171 344 174 c 1
 371 131 458 65 545 65 c 0
 554 65 586 69 590 69 c 0
 608 69 613 61 613 52 c 0
 613 41 609 34 587 -2 c 1xbf58
 466 1 405 3 385 3 c 0
 342 3 299 -3 278 -3 c 0
 161 -3 46 86 46 253 c 0
 46 407 151 476 250 488 c 1
 247 498 247 505 247 511 c 0
 247 570 289 608 346 608 c 0
 404 608 442 568 442 511 c 2
 442 507 l 1
 479 529 521 585 521 698 c 2
 521 714 l 1
 602 690 l 2
 613 687 622 682 622 666 c 0x7fa8
344 470 m 0
 375 470 390 493 390 516 c 0
 390 539 375 562 344 562 c 0
 314 562 299 539 299 516 c 0
 299 493 314 470 344 470 c 0
367 221 m 0
 398 221 414 244 414 267 c 0
 414 290 398 313 367 313 c 0
 336 313 321 290 321 267 c 0x3f58
 321 244 336 221 367 221 c 0
EndSplineSet
EndChar

StartChar: uni0E56
Encoding: 3670 3670 212
Width: 645
Flags: W
HStem: -9 54<222.492 393.561> 103 51<177.782 230.082> 246 52<153.882 231.49> 429 64<194.587 393.384> 690 20G<53.5 153>
VStem: 69 77<161.356 238.37> 114 80<478 584.633> 238 51<160.505 239.22> 493 100<145.904 327.565>
LayerCount: 2
Fore
SplineSet
114 449 m 0xfb80
 114 612 41 667 41 693 c 0
 41 702 46 710 61 710 c 2
 144 710 l 1
 162 680 194 592 194 491 c 2
 194 478 l 1xfb80
 224 488 269 493 306 493 c 0
 468 493 593 396 593 238 c 0
 593 97 499 -9 310 -9 c 0
 140 -9 69 86 69 170 c 0xfd80
 69 237 115 298 192 298 c 0
 250 298 289 253 289 198 c 0
 289 149 255 103 194 103 c 0
 187 103 181 104 177 104 c 1
 201 75 240 45 310 45 c 0
 416 45 493 132 493 238 c 0
 493 352 407 429 306 429 c 0
 196 429 181 396 157 396 c 0
 123 396 114 420 114 449 c 0xfb80
192 154 m 0
 222 154 238 177 238 200 c 0
 238 223 222 246 192 246 c 0
 162 246 146 223 146 200 c 0xfd80
 146 177 162 154 192 154 c 0
EndSplineSet
EndChar

StartChar: uni0E57
Encoding: 3671 3671 213
Width: 645
Flags: W
HStem: -6 47<134.856 212.459> 134 50<134.517 213.123> 424 64<136.715 207.257 335.689 406.386>
VStem: 24 85<165.233 393.105> 220 49<47.372 127.004> 243 63<248.637 381.287> 431 77<127.248 397.969> 558 78<226.877 551.759>
LayerCount: 2
Fore
SplineSet
464 58 m 1xfb
 495 65 558 204 558 376 c 0
 558 467 541 562 504 648 c 1
 544 700 l 2
 552 711 561 720 570 720 c 0
 579 720 588 710 598 682 c 0
 624 606 636 516 636 426 c 0
 636 202 558 -7 440 -7 c 0
 420 -7 392 -2 392 22 c 0
 392 39 431 173 431 288 c 0
 431 386 402 424 375 424 c 0
 336 424 310 367 306 332 c 1
 298 291 308 246 271 246 c 0
 258 246 245 255 243 273 c 1xf7
 243 392 192 424 172 424 c 0
 148 424 109 393 109 284 c 0
 109 252 112 212 121 164 c 1
 134 180 152 184 175 184 c 0
 230 184 269 141 269 91 c 0
 269 38 232 -6 175 -6 c 0
 103 -6 66 45 49 103 c 0
 33 160 24 217 24 269 c 0
 24 446 116 488 177 488 c 0
 214 488 255 454 272 406 c 1
 290 454 334 488 372 488 c 0
 454 488 508 408 508 278 c 0
 508 212 494 136 464 58 c 1xfb
174 41 m 0
 204 41 220 64 220 88 c 0xfb
 220 111 204 134 174 134 c 0
 143 134 128 111 128 88 c 0
 128 64 143 41 174 41 c 0
EndSplineSet
EndChar

StartChar: uni0E58
Encoding: 3672 3672 214
Width: 645
Flags: W
HStem: -9 74<388 486.169> 155 51<460.295 515.237> 298 52<459.276 537.715> 418 69<211.372 437.926>
VStem: 31 101<132.806 335.934> 398 55<212.27 290.917> 507 103<572.399 684.375> 546 62<132.5 291.517>
LayerCount: 2
Fore
SplineSet
499 350 m 0xfe
 612 350 608 249 608 209 c 0xfd
 608 56 527 -9 455 -9 c 0
 401 -9 304 -2 278 132 c 1
 261 101 250 35 246 -11 c 1
 160 -11 31 71 31 247 c 1
 32 409 149 487 275 487 c 0
 304 487 341 482 364 482 c 0
 443 482 507 550 507 695 c 2
 507 708 l 1
 590 684 l 2
 601 680 610 673 610 657 c 0
 610 578 545 416 381 416 c 0
 352 416 327 418 303 418 c 0
 184 418 132 336 132 246 c 0
 132 175 149 117 190 83 c 1
 198 120 224 210 284 235 c 1
 338 227 l 1
 338 117 390 65 438 65 c 0
 476 65 511 97 516 157 c 1
 508 156 500 155 493 155 c 0
 431 155 398 206 398 250 c 0
 398 313 442 350 499 350 c 0xfe
499 206 m 0
 530 206 546 229 546 252 c 0
 546 275 530 298 499 298 c 0
 468 298 453 275 453 252 c 0
 453 229 468 206 499 206 c 0
EndSplineSet
EndChar

StartChar: uni0E59
Encoding: 3673 3673 215
Width: 645
Flags: W
HStem: -6 46<200.272 279.34> 132 49<200.687 279.123> 341 80<467.073 534.322> 418 63<140.126 231.951 373.337 422.928>
VStem: 32 89<220.445 396.937> 286 49<47.3367 125.569> 551 98<442.709 680.024>
LayerCount: 2
Fore
SplineSet
32 295 m 0xde
 32 383 73 481 190 481 c 0xde
 227 481 270 470 312 433 c 1
 318 451 341 482 389 482 c 0
 461 482 462 421 505 421 c 0
 535 421 551 460 551 540 c 0
 551 584 546 640 536 708 c 1
 630 680 l 2
 642 677 647 671 647 656 c 0
 648 637 649 618 649 601 c 0
 649 428 596 341 510 341 c 0xee
 440 341 428 418 389 418 c 0
 376 418 372 402 372 387 c 0
 372 382 372 377 373 373 c 0
 378 362 395 338 399 330 c 0
 478 200 573 0 573 0 c 1
 496 0 l 2
 447 0 459 40 323 275 c 0
 273 362 228 418 184 418 c 0
 159 418 121 401 121 327 c 0
 121 271 143 200 177 154 c 1
 187 164 207 181 241 181 c 0
 296 181 335 140 335 86 c 0
 335 35 293 -6 240 -6 c 0
 197 -6 155 12 120 57 c 1
 65 123 32 214 32 295 c 0xde
240 40 m 0
 270 40 286 63 286 86 c 0
 286 109 270 132 240 132 c 0
 209 132 194 109 194 86 c 0
 194 63 209 40 240 40 c 0
EndSplineSet
EndChar

StartChar: uni0E5A
Encoding: 3674 3674 216
Width: 731
Flags: W
HStem: 0 21G<335 438 527 630> 391 48<197 284.927> 553 45<75.0679 161.433>
VStem: 17 49<458.083 543.86> 171 50<457.718 543.86> 335 103<0 432> 350 88<502.301 594> 527 103<0 594>
LayerCount: 2
Fore
SplineSet
185 391 m 0xfd
 45 391 17 457 17 501 c 0
 17 551 57 598 120 598 c 0
 180 598 221 551 221 501 c 0
 221 480 214 458 197 439 c 1
 323 439 350 525 350 594 c 1
 438 594 l 1xfb
 438 0 l 1
 335 0 l 1
 335 432 l 1
 290 402 234 391 185 391 c 0xfd
118 449 m 0
 154 449 171 475 171 501 c 0
 171 527 154 553 118 553 c 0
 83 553 66 527 66 501 c 0
 66 475 83 449 118 449 c 0
630 0 m 1
 527 0 l 1
 527 594 l 1
 630 594 l 1
 630 0 l 1
EndSplineSet
EndChar

StartChar: uni0E5B
Encoding: 3675 3675 217
Width: 1293
Flags: W
HStem: 37 67<206.609 378.913> 198 59<293.196 356.025> 262 55<1231.07 1305.99> 389 40<214.033 279.319> 562 68<175.886 344.426>
VStem: 6 71<234.79 447.98> 157 47<289.995 382.572> 290 45<289.325 380.969> 415 69<323.784 492.744> 757 33<523.266 554>
DStem2: 633 611 613 441 0.212757 -0.977105<161.853 348.511> 705 270 780 372 0.172301 0.985044<0 113.397> 854 273 928 367 0.242536 0.970142<0 109.141> 997 295 928 367 0.271729 -0.962374<-88.0402 0> 997 295 1057 350 0.232909 0.972498<0 67.462>
LayerCount: 2
Fore
SplineSet
1176 265 m 0
 1204 265 1206 317 1261 317 c 0
 1286 317 1306 306 1306 306 c 1
 1306 247 l 1
 1306 247 1287 262 1266 262 c 0
 1256 262 1245 258 1235 246 c 0
 1216 221 1192 204 1169 204 c 0
 1123 204 1109 259 1057 350 c 1
 1000 112 l 1
 928 367 l 1
 852 63 l 1
 780 372 l 1
 727 69 l 1
 694 69 l 1
 613 441 l 1
 602 402 585 309 578 283 c 0
 518 86 404 37 290 37 c 0
 140 37 6 160 6 338 c 0
 6 527 118 630 257 630 c 0
 416 630 484 522 484 414 c 0
 484 306 416 198 301 198 c 0
 217 198 157 253 157 338 c 0
 157 387 194 429 247 429 c 0
 300 429 335 390 335 338 c 0
 335 287 304 260 293 260 c 1
 293 257 l 1
 374 257 415 341 415 411 c 0
 415 487 369 562 255 562 c 0
 160 562 77 478 77 336 c 0
 77 200 177 108 292 104 c 1
 367 104 464 149 510 303 c 0
 528 364 544 404 601 611 c 1
 633 611 l 1
 705 270 l 1
 757 554 l 1
 790 554 l 1
 854 273 l 1
 926 548 l 1
 997 295 l 1
 1048 492 l 1
 1115 347 1144 295 1144 295 c 2
 1153 277 1164 265 1176 265 c 0
290 336 m 0
 290 361 273 389 247 389 c 0
 218 389 204 361 204 336 c 0
 204 306 223 283 247 283 c 0
 273 283 290 306 290 336 c 0
EndSplineSet
EndChar

StartChar: uni0E38.low
Encoding: 63256 63256 218
Width: 0
Flags: W
HStem: -392 40<-218.278 -163.675> -275 42<-219.957 -153.124>
VStem: -264 40<-346.574 -279.763> -163 88<-458 -392> -147 72<-349.141 -279.882>
LayerCount: 2
Fore
SplineSet
-264 -316 m 0xf0
 -264 -275 -234 -233 -179 -233 c 0
 -117 -233 -75 -270 -75 -321 c 2xe8
 -75 -458 l 1
 -163 -458 l 1
 -163 -392 l 1
 -186 -392 l 2
 -238 -392 -264 -355 -264 -316 c 0xf0
-147 -313 m 0
 -147 -293 -167 -275 -184 -275 c 0
 -209 -275 -224 -290 -224 -313 c 0
 -224 -336 -207 -352 -184 -352 c 0
 -161 -352 -147 -336 -147 -313 c 0
EndSplineSet
EndChar

StartChar: uni0E39.low
Encoding: 63257 63257 219
Width: 0
Flags: W
HStem: -476 54<-202.858 -163.092> -387 35<-322.92 -269.596> -275 35<-324.361 -259.541>
VStem: -366 37<-346.854 -279.427> -270 66<-421.374 -384> -252 48<-349.141 -279.591> -163 89<-420.804 -240>
LayerCount: 2
Fore
SplineSet
-74 -379 m 2xfa
 -74 -432 -106 -476 -169 -476 c 0
 -232 -476 -270 -442 -270 -390 c 2
 -270 -384 l 1xfa
 -275 -386 -281 -387 -289 -387 c 0
 -339 -387 -366 -350 -366 -313 c 0
 -366 -276 -340 -240 -289 -240 c 0
 -227 -240 -203 -276 -204 -330 c 1xf6
 -204 -402 l 2
 -204 -415 -195 -422 -183 -422 c 0
 -172 -422 -163 -416 -163 -402 c 2
 -163 -240 l 1
 -74 -240 l 1
 -74 -379 l 2xfa
-252 -313 m 0xf6
 -252 -293 -270 -275 -290 -275 c 0
 -316 -275 -329 -290 -329 -313 c 0
 -329 -336 -315 -352 -290 -352 c 0
 -266 -352 -252 -336 -252 -313 c 0xf6
EndSplineSet
EndChar

StartChar: uni0E3A.low
Encoding: 63258 63258 220
Width: 0
Flags: W
HStem: -335 118<-172.158 -78.5244>
VStem: -185 119<-321.618 -230.382>
LayerCount: 2
Fore
SplineSet
-123 -335 m 0
 -164 -335 -185 -306 -185 -276 c 0
 -185 -246 -164 -217 -123 -217 c 0
 -85 -217 -66 -246 -66 -275 c 0
 -66 -305 -85 -335 -123 -335 c 0
EndSplineSet
EndChar

StartChar: multiply
Encoding: 215 215 221
Width: 619
Flags: W
DStem2: 72 118 138 51 0.704486 0.709718<0 239.354 333.037 572.038> 138 521 75 458 0.704499 -0.709705<0.327953 240.409 334.091 572.747>
LayerCount: 2
Fore
SplineSet
544 117 m 1
 481 49 l 1
 309 220 l 1
 138 51 l 1
 72 118 l 1
 243 286 l 1
 75 458 l 1
 138 521 l 1
 309 352 l 1
 478 521 l 1
 542 458 l 1
 375 286 l 1
 544 117 l 1
EndSplineSet
EndChar

StartChar: divide
Encoding: 247 247 222
Width: 546
Flags: W
HStem: 2 129<225.747 321.15> 212 81<20 527> 375 130<226.798 322.184>
VStem: 209 129<18.7473 113.8 392.798 488.754>
LayerCount: 2
Fore
SplineSet
338 439 m 0
 338 401 309 375 273 375 c 0
 238 375 209 407 209 439 c 0
 209 475 235 505 273 505 c 0
 309 505 338 479 338 439 c 0
527 212 m 1
 20 212 l 1
 20 293 l 1
 527 293 l 1
 527 212 l 1
338 66 m 0
 338 26 309 2 273 2 c 0
 238 2 209 31 209 66 c 0
 209 98 235 131 273 131 c 0
 309 131 338 101 338 66 c 0
EndSplineSet
EndChar

StartChar: registered
Encoding: 174 174 223
Width: 774
Flags: W
HStem: -25 70<283.338 492.387> 147 39<224 266 364 390 530.834 568> 309 41<350 397.297> 485 39<226 266 350.125 426.895> 613 69<283.338 492.387>
VStem: 34 70<224.361 433.387> 266 84<186.953 309 352 484.987> 442 85<366.71 473.93> 673 67<224.361 433.387>
LayerCount: 2
Fore
SplineSet
568 147 m 1
 495 147 l 2
 464 147 444 190 425 232 c 1
 393 296 402 309 350 309 c 1
 350 204 l 2
 350 192 355 189 364 187 c 2
 390 184 l 1
 390 147 l 1
 224 147 l 1
 224 186 l 1
 246 187 l 1
 260 189 266 194 266 204 c 2
 266 468 l 2
 266 484 264 485 247 485 c 2
 226 485 l 1
 226 524 l 1
 396 524 l 2
 484 524 527 495 527 429 c 0
 527 378 493 330 450 326 c 1
 482 318 493 283 507 253 c 1
 524 221 527 187 568 186 c 1
 568 147 l 1
442 421 m 0
 442 462 421 485 383 485 c 2
 358 485 l 2
 350 485 350 467 350 458 c 2
 350 352 l 1
 359 350 l 1
 406 350 442 364 442 421 c 0
389 45 m 0
 545 45 673 172 673 329 c 0
 673 485 545 613 389 613 c 0
 232 613 104 485 104 329 c 0
 104 172 232 45 389 45 c 0
34 329 m 0
 34 524 192 682 387 682 c 0
 582 682 740 524 740 329 c 0
 740 134 582 -25 387 -25 c 0
 192 -25 34 134 34 329 c 0
EndSplineSet
EndChar

StartChar: fi
Encoding: 64257 64257 224
Width: 555
Flags: W
HStem: 0 23<15 54.0731 224.857 256 300 333.587 501.16 536> 417 44<15 70 209 346.938> 453 20G<440.5 486> 661 30<245.162 344.243>
VStem: 70 139<31.2556 417 461 584.412> 349 137<30.6111 415.918> 352 120<573.582 647.792>
LayerCount: 2
Fore
SplineSet
343 593 m 0xda
 343 618 352 626 352 634 c 0
 352 649 328 661 297 661 c 0
 211 661 209 589 209 461 c 1
 316 461 l 2xda
 352 461 395 464 486 473 c 1
 486 81 l 2
 486 41 499 26 536 23 c 1
 536 0 l 1
 300 0 l 1
 300 23 l 1
 337 28 349 41 349 81 c 2
 349 382 l 2xbc
 349 409 340 417 313 417 c 2
 209 417 l 1
 209 81 l 2
 209 42 221 29 256 23 c 1
 256 0 l 1
 15 0 l 1
 15 23 l 1
 62 29 70 41 70 83 c 2
 70 417 l 1
 15 417 l 1
 15 461 l 1
 70 461 l 1
 73 549 88 598 127 637 c 1
 166 672 221 691 294 691 c 0
 404 691 472 656 472 599 c 0
 472 564 445 539 407 539 c 0
 369 539 343 561 343 593 c 0xda
EndSplineSet
LCarets2: 1 0 
Ligature2: "'liga' Standard Ligatures in Latin lookup 2 subtable" f i
EndChar

StartChar: fl
Encoding: 64258 64258 225
Width: 555
Flags: W
HStem: 0 23<15 54.0731 224.857 256 300 333.632 500.256 536> 417 44<15 70 209 349> 658 33<240.597 339.039>
VStem: 70 139<31.2556 417 461 589.426> 340 146<595.568 655.963> 349 137<30.6237 417 461 594.249>
LayerCount: 2
Fore
SplineSet
300 23 m 1xf4
 322 28 349 27 349 81 c 2
 349 417 l 1
 209 417 l 1
 209 81 l 2
 209 42 221 29 256 23 c 1
 256 0 l 1
 15 0 l 1
 15 23 l 1
 62 29 70 41 70 83 c 2
 70 417 l 1
 15 417 l 1
 15 461 l 1
 70 461 l 1
 75 552 86 598 119 633 c 1
 152 671 205 691 271 691 c 0
 325 691 366 683 420 661 c 1
 469 690 l 1
 486 690 l 1
 486 81 l 2
 486 45 499 26 524 25 c 1
 536 23 l 1
 536 0 l 1
 300 0 l 1
 300 23 l 1xf4
327 595 m 0
 327 607 340 627 340 637 c 0xf8
 340 650 324 658 297 658 c 0
 231 658 209 625 209 523 c 2
 209 461 l 1
 349 461 l 1
 349 560 l 1
 335 562 327 579 327 595 c 0
EndSplineSet
LCarets2: 1 0 
Ligature2: "'liga' Standard Ligatures in Latin lookup 2 subtable" f l
EndChar

StartChar: ff
Encoding: 64256 64256 226
Width: 609
Flags: W
HStem: 0 23<15 53.4505 226.224 256 300 333.125 501.622 536> 417 44<15 70 209 349 486 574> 661 30<249.306 346.233 501.189 564.515>
VStem: 70 139<31.8196 417 461 579.483> 352 134<32.0375 417 461 558.453 593.611 652.488> 565 101<563.654 647.223>
LayerCount: 2
Fore
SplineSet
666 590 m 0
 666 554 640 529 603 529 c 0
 573 529 543 551 543 583 c 0
 543 609 565 625 565 642 c 0
 565 658 548 661 536 661 c 0
 491 661 486 617 486 583 c 2
 486 461 l 1
 574 461 l 1
 574 417 l 1
 486 417 l 1
 486 81 l 2
 486 45 498 25 536 23 c 1
 536 0 l 1
 300 0 l 1
 300 23 l 1
 338 26 349 45 349 81 c 2
 349 417 l 1
 209 417 l 1
 209 81 l 2
 209 47 220 28 256 23 c 1
 256 0 l 1
 15 0 l 1
 15 23 l 1
 56 29 70 37 70 83 c 2
 70 417 l 1
 15 417 l 1
 15 461 l 1
 70 461 l 1
 73 608 133 691 291 691 c 0
 335 691 384 686 423 666 c 1
 456 686 494 691 530 691 c 0
 589 691 666 661 666 590 c 0
354 560 m 1
 347 568 343 582 343 593 c 0
 343 606 346 621 352 633 c 1
 352 656 313 661 297 661 c 0
 217 661 209 582 209 513 c 2
 209 461 l 5
 349 461 l 1
 349 494 349 527 354 560 c 1
EndSplineSet
LCarets2: 1 0 
Ligature2: "'liga' Standard Ligatures in Latin lookup 2 subtable" f f
EndChar

StartChar: ffi
Encoding: 64259 64259 227
Width: 832
Flags: W
HStem: 0 23<15 53.4505 226.224 256 300 333.125 503.75 535 579 611.11 779.344 813> 417 44<15 70 209 349 486 622.396> 453 20G<736 765> 661 30<249.306 345.379 525.915 621.841>
VStem: 70 139<31.8196 417 461 579.483> 349 137<31.5905 417 461 555.455 557.379 593> 625 140<29.4882 416.084> 628 121<573.35 648.306>
LayerCount: 2
Fore
SplineSet
813 0 m 1xbe
 579 0 l 1
 579 23 l 1
 617 26 625 47 625 81 c 2
 625 382 l 2xbe
 625 409 617 417 590 417 c 2
 486 417 l 1
 486 81 l 2
 486 47 497 28 535 23 c 1
 535 0 l 1
 300 0 l 1
 300 23 l 1
 338 26 349 47 349 81 c 2
 349 417 l 1
 209 417 l 1
 209 81 l 2
 209 47 220 28 256 23 c 1
 256 0 l 1
 15 0 l 1
 15 23 l 1
 56 29 70 37 70 83 c 2
 70 417 l 1
 15 417 l 1
 15 461 l 1
 70 461 l 1
 73 608 133 691 291 691 c 0
 338 691 395 684 437 661 c 1
 475 684 523 691 568 691 c 0
 627 691 749 678 749 601 c 0
 749 561 721 539 683 539 c 0
 650 539 620 558 620 593 c 0
 620 606 623 621 628 633 c 1
 628 656 590 661 574 661 c 0
 494 661 486 582 486 513 c 2
 486 461 l 1
 593 461 l 2xdd
 650 461 707 469 765 473 c 1
 765 81 l 2
 765 45 775 25 813 23 c 1
 813 0 l 1xbe
359 557 m 1
 349 565 343 579 343 593 c 0
 343 606 346 621 352 633 c 1
 352 656 313 661 297 661 c 0
 217 661 209 582 209 513 c 2
 209 461 l 1
 349 461 l 1xdc
 349 494 350 524 359 557 c 1
EndSplineSet
LCarets2: 2 0 0 
Ligature2: "'liga' Standard Ligatures in Latin lookup 2 subtable" ff i
Ligature2: "'liga' Standard Ligatures in Latin lookup 2 subtable" f f i
EndChar

StartChar: ffl
Encoding: 64260 64260 228
Width: 832
Flags: W
HStem: 0 23<15 53.4505 226.224 256 300 333.125 503.75 535 579 610.239 778.485 813> 417 44<15 70 209 349 486 625> 661 30<249.306 345.932 524.605 613.226>
VStem: 70 139<31.8196 417 461 579.483> 349 137<31.5905 417 461 555.455 557.379 593> 617 148<595.658 656.348> 625 140<29.6915 417 461 594.431>
LayerCount: 2
Fore
SplineSet
813 0 m 1xfa
 579 0 l 1
 579 23 l 1
 615 26 625 47 625 81 c 2
 625 417 l 1
 486 417 l 1
 486 81 l 2
 486 47 497 28 535 23 c 1
 535 0 l 1
 300 0 l 1
 300 23 l 1
 338 26 349 47 349 81 c 2
 349 417 l 1
 209 417 l 1
 209 81 l 2
 209 47 220 28 256 23 c 1
 256 0 l 1
 15 0 l 1
 15 23 l 1
 56 29 70 37 70 83 c 2
 70 417 l 1
 15 417 l 1
 15 461 l 1
 70 461 l 1
 73 608 133 691 291 691 c 0
 337 691 393 686 431 662 c 1
 469 686 513 691 555 691 c 0
 601 691 658 680 699 661 c 1
 746 690 l 1
 765 690 l 1
 765 81 l 2
 765 45 773 25 813 23 c 1
 813 0 l 1xfa
625 461 m 1
 625 560 l 1xfa
 611 562 603 583 603 595 c 0
 603 609 617 625 617 636 c 0xfc
 617 658 587 658 570 658 c 0
 492 658 486 589 486 529 c 2
 486 461 l 1
 625 461 l 1
357 557 m 1
 347 565 343 579 343 593 c 0
 343 606 346 621 352 633 c 1
 352 656 313 661 297 661 c 0
 217 661 209 582 209 513 c 2
 209 461 l 1
 349 461 l 1
 349 494 350 524 357 557 c 1
EndSplineSet
LCarets2: 2 0 0 
Ligature2: "'liga' Standard Ligatures in Latin lookup 2 subtable" ff l
Ligature2: "'liga' Standard Ligatures in Latin lookup 2 subtable" f f l
EndChar

StartChar: zerowidthspace
Encoding: 8203 8203 229
Width: 0
Flags: W
LayerCount: 2
Back
SplineSet
748 -187 m 5
 680 -187 l 5
 680 -54 l 6
 680 -17 660 0 617 0 c 6
 220 0 l 6
 184 0 167 -15 167 -49 c 6
 167 -187 l 5
 100 -187 l 5
 100 61 l 5
 748 61 l 5
 748 -187 l 5
EndSplineSet
EndChar

StartChar: dotlessi
Encoding: 305 305 237
Width: 278
Flags: W
HStem: 0 38<11 75.1975 205.97 272>
VStem: 86 109<49.1885 394.41>
LayerCount: 2
Fore
SplineSet
272 0 m 1
 11 0 l 1
 11 38 l 1
 72 41 86 57 86 92 c 2
 86 335 l 2
 86 379 82 395 57 395 c 0
 46 395 31 392 11 386 c 1
 11 425 l 1
 195 488 l 1
 195 92 l 2
 195 57 209 41 272 38 c 1
 272 0 l 1
EndSplineSet
EndChar

StartChar: dotlessj
Encoding: 567 567 238
Width: 278
Flags: W
HStem: -217 56<21.5 102.189>
VStem: 109 109<-108.054 393.555>
LayerCount: 2
Fore
SplineSet
-67 -146 m 0
 -67 -104 -31 -94 -13 -94 c 0
 3 -94 17 -101 26 -112 c 1
 47 -146 73 -161 84 -161 c 0
 108 -161 109 -110 109 -81 c 2
 109 355 l 2
 109 385 103 394 80 394 c 0
 69 394 54 392 35 389 c 1
 35 425 l 1
 218 488 l 1
 218 25 l 2
 218 -137 154 -217 35 -217 c 0
 8 -217 -67 -204 -67 -146 c 0
EndSplineSet
EndChar

StartChar: ae
Encoding: 230 230 239
Width: 720
Flags: W
HStem: -15 63<113 245.618> -9 71<477.082 590.305> 248 38<434 567> 441 32<162.491 273.732 460.788 545.251>
VStem: 34 143<60.1415 165.774> 50 102<324.225 409.455> 296 138<111.122 248 286 417.995> 567 121<286 373.985>
LayerCount: 2
Fore
SplineSet
152 406 m 0xb7
 152 387 182 385 182 341 c 0
 182 305 160 284 119 284 c 0
 78 284 50 309 50 349 c 0
 50 420 127 473 231 473 c 0
 297 473 335 458 374 422 c 1
 412 458 450 473 501 473 c 0
 576 473 636 437 666 375 c 0
 683 340 688 311 688 248 c 1
 434 248 l 1
 434 226 l 2
 434 110 469 62 549 62 c 0
 598 62 633 81 672 127 c 1
 693 113 l 1
 634 23 579 -9 483 -9 c 0x77
 415 -9 375 13 337 75 c 1
 282 20 225 -15 151 -15 c 0
 75 -15 34 23 34 94 c 0xbb
 34 200 128 224 296 280 c 1
 296 360 l 2
 296 417 274 441 218 441 c 0
 180 441 152 426 152 406 c 0xb7
296 81 m 1
 296 248 l 1
 208 215 177 183 177 122 c 0
 177 75 196 48 234 48 c 0xbb
 256 48 272 56 296 81 c 1
434 286 m 1
 567 286 l 1
 567 318 l 2
 567 412 551 442 504 442 c 0
 453 442 434 403 434 286 c 1
EndSplineSet
EndChar

StartChar: AE
Encoding: 198 198 240
Width: 998
Flags: W
HStem: 0 34<601.799 782.258> 0 25<4 37.585 193 209 344 403.924> 303 40<264 432> 331 32<592 674.396> 475 21G<874.5 910> 642 35<594.292 782.095> 653 24<275 347.932>
VStem: 432 160<42.1088 303 363 632.933> 747 23<174 233.563 464.681 513> 885 25<475 524.526>
DStem2: 114 152 142 116 0.480159 0.877181<-65.1917 193.915 239.566 526.192>
LayerCount: 2
Fore
SplineSet
885 475 m 1x6bc0
 864 578 837 642 661 642 c 0
 606 642 592 636 592 611 c 2
 592 363 l 1
 709 374 719 382 747 513 c 1
 770 513 l 1
 770 174 l 1
 747 174 l 1
 729 297 705 324 592 331 c 1
 592 88 l 2
 592 45 608 34 668 34 c 0x9dc0
 753 34 811 53 853 95 c 1
 886 130 920 182 929 211 c 1
 951 211 l 1
 910 0 l 1
 344 0 l 1
 344 25 l 1
 417 29 432 45 432 119 c 2
 432 303 l 1
 242 303 l 1
 142 116 l 2
 130 95 127 82 127 70 c 0
 127 42 141 34 193 26 c 1
 209 25 l 1
 209 0 l 1
 4 0 l 1
 4 25 l 1
 42 31 51 40 114 152 c 1
 327 542 l 1
 327 542 362 599 362 617 c 0
 362 642 341 650 275 653 c 1
 275 677 l 1
 910 677 l 1
 910 475 l 1
 885 475 l 1x6bc0
264 343 m 1x29c0
 432 343 l 1
 432 633 l 1
 425 633 l 1
 264 343 l 1x29c0
EndSplineSet
EndChar

StartChar: oe
Encoding: 339 339 241
Width: 720
Flags: W
HStem: -15 74<490.044 594.936> -15 31<203.177 280.582> 245 38<444 571> 444 29<200.172 279.445 471.532 544.464>
VStem: 22 145<118.36 337.509> 308 136<109.572 245 283 422.593>
LayerCount: 2
Fore
SplineSet
677 125 m 1xbc
 696 108 l 1
 631 16 582 -15 498 -15 c 0xbc
 445 -15 413 0 382 34 c 1
 343 0 302 -15 245 -15 c 0x7c
 113 -15 22 85 22 229 c 0
 22 371 116 473 248 473 c 0
 302 473 338 458 374 423 c 1
 422 461 453 473 502 473 c 0
 576 473 631 442 664 382 c 0
 683 347 688 313 693 245 c 1
 444 245 l 1
 444 226 l 1
 442 116 480 59 558 59 c 0
 603 59 631 73 677 125 c 1xbc
444 283 m 1
 571 283 l 1
 570 308 568 328 568 338 c 0
 565 413 549 444 508 444 c 0
 467 444 444 407 444 335 c 2
 444 283 l 1
308 149 m 2
 308 311 l 2
 308 407 289 444 239 444 c 0
 185 444 167 398 167 248 c 0
 167 75 186 16 242 16 c 0x7c
 289 16 308 57 308 149 c 2
EndSplineSet
EndChar

StartChar: OE
Encoding: 338 338 242
Width: 998
Flags: W
HStem: -4 30<297.804 431.545> 0 35<634.111 806.7> 333 33<627 705.528> 475 21G<906.5 940> 642 35<628.238 813.944> 652 32<307.186 479.317>
VStem: 22 170<204.165 466.541> 472 155<57.9768 333 366 626.656> 778 23<176 233.792 466.627 514> 914 26<475 528.773>
LayerCount: 2
Fore
SplineSet
700 35 m 0x7bc0
 852 35 904 106 954 211 c 1
 981 211 l 1
 939 0 l 1
 508 0 l 2x7bc0
 402 0 417 -4 357 -4 c 0
 89 -4 22 201 22 334 c 0
 22 542 161 684 365 684 c 0xb7c0
 376 684 431 681 523 677 c 1
 940 677 l 1
 940 475 l 1
 914 475 l 1
 899 554 885 586 844 612 c 0
 814 630 753 642 683 642 c 0
 640 642 627 636 627 615 c 2
 627 366 l 1
 734 369 751 387 778 514 c 1
 801 514 l 1
 801 176 l 1
 778 176 l 1
 763 294 732 327 627 333 c 1
 627 83 l 2
 627 44 642 35 700 35 c 0x7bc0
472 502 m 2
 472 600 470 652 376 652 c 0
 255 652 192 541 192 319 c 0
 192 229 208 138 231 97 c 0
 259 48 299 26 366 26 c 0xb7c0
 410 26 434 37 451 59 c 1
 469 79 472 111 472 212 c 2
 472 502 l 2
EndSplineSet
EndChar

StartChar: dagger
Encoding: 8224 8224 243
Width: 499
Flags: W
HStem: 403 107<55.5592 157.835 343.476 444.601> 671 20G<232.5 268>
VStem: 185 133<206.33 300.07> 193 115<578.125 679.934> 237 24<-133 87.4668 355.25 445 466 544.984>
LayerCount: 2
Fore
SplineSet
261 445 m 1xc8
 257 334 318 270 318 268 c 2xe0
 318 268 269 156 267 10 c 1
 261 -133 l 1xc8
 240 -133 l 1
 234 10 l 1
 232 157 185 257 185 270 c 0xe0
 185 274 189 283 196 294 c 1
 229 338 234 363 237 445 c 1
 147 438 150 403 97 403 c 0
 67 403 47 425 47 457 c 0
 47 491 66 510 100 510 c 0
 140 510 154 475 237 466 c 1xc8
 235 593 193 583 193 631 c 0
 193 668 215 691 250 691 c 0
 286 691 308 671 308 636 c 0xd0
 308 585 261 575 261 466 c 1
 344 480 367 510 401 510 c 0
 434 510 453 489 453 456 c 0
 453 423 434 404 403 404 c 0
 357 404 341 443 261 445 c 1xc8
EndSplineSet
EndChar

StartChar: daggerdbl
Encoding: 8225 8225 244
Width: 499
Flags: W
HStem: 53 96<52.4867 162.124 340.19 448.87> 92 19<188.04 239 262 317.108> 406 99<53.2207 156.495 346.239 448.354> 445 19<188.671 239 262 307.679> 671 20G<235 266.5>
VStem: 196 110<-121.154 -15.546 573.25 679.963> 239 23<22.7254 92 111 188.223 368.081 445 464 536.393>
LayerCount: 2
Fore
SplineSet
94 505 m 0x2a
 132 505 175 471 221 464 c 1
 239 464 l 1x1a
 235 580 196 591 196 637 c 0
 196 669 220 691 250 691 c 0
 283 691 306 666 306 636 c 0x1c
 306 590 267 572 262 464 c 1x1a
 346 475 365 505 406 505 c 0x2a
 437 505 456 486 456 456 c 0
 456 426 437 407 406 407 c 0
 363 407 344 445 262 445 c 1
 262 388 280 330 309 291 c 0
 313 286 316 283 316 278 c 0
 316 270 266 229 262 111 c 1x5a
 340 111 353 149 409 149 c 0
 438 149 456 132 456 101 c 0
 456 72 437 53 404 53 c 0
 370 53 353 82 262 94 c 1x8a
 267 -13 306 -28 306 -78 c 0
 306 -108 283 -132 250 -132 c 0
 218 -132 196 -110 196 -78 c 0x8c
 196 -33 235 -20 239 92 c 1
 221 92 l 2x4a
 183 92 133 53 95 53 c 0x8a
 64 53 45 73 45 103 c 0
 45 130 66 152 94 152 c 0
 136 152 164 115 239 111 c 1
 237 174 226 211 185 278 c 1
 226 347 237 381 239 445 c 1x5a
 152 443 139 406 95 406 c 0
 66 406 45 428 45 456 c 0
 45 485 64 505 94 505 c 0x2a
EndSplineSet
EndChar

StartChar: section
Encoding: 167 167 245
Width: 499
Flags: W
HStem: -132 24<184.696 290.852> 144 23<302.447 346.176> 393 22<155.346 197.549> 668 23<208.731 303.934>
VStem: 57 75<280.066 371.103> 89 82<-83.1345 -14> 100 73<549.809 630.981> 311 82<576 652.5> 319 85<-69.6356 18.8716> 368 74<186.196 278.455>
LayerCount: 2
Fore
SplineSet
218 -23 m 0xf480
 218 -60 171 -64 171 -81 c 0xf480
 171 -95 205 -108 240 -108 c 0
 293 -108 319 -85 319 -38 c 0
 319 -7 311 9 283 32 c 2
 226 78 l 1
 83 192 57 226 57 293 c 0xf880
 57 372 101 415 180 415 c 2
 199 415 l 1
 117 486 100 513 100 561 c 0
 100 637 161 691 248 691 c 0
 327 691 393 645 393 592 c 0
 393 560 362 527 328 527 c 0
 299 527 268 558 268 584 c 0
 268 619 311 634 311 647 c 0xf3
 311 658 284 668 256 668 c 0
 207 668 173 640 173 599 c 0
 173 565 208 526 277 480 c 0
 343 437 393 388 423 337 c 0
 437 315 442 287 442 256 c 0xf240
 442 220 429 189 404 170 c 1
 382 152 356 145 302 144 c 1
 376 92 404 51 404 -3 c 0
 404 -78 335 -132 240 -132 c 0
 157 -132 89 -86 89 -32 c 0
 89 4 119 34 152 34 c 0
 187 34 218 7 218 -23 c 0xf480
186 393 m 0
 155 393 132 368 132 335 c 0
 132 300 142 286 202 233 c 1
 264 180 284 167 313 167 c 0
 344 167 368 190 368 226 c 0xf840
 368 252 357 271 324 302 c 0
 258 365 215 393 186 393 c 0
EndSplineSet
EndChar

StartChar: paragraph
Encoding: 182 182 246
Width: 539
Flags: W
HStem: -186 25<119 184.227 450.908 514> 650 27<293 343 447.25 519>
VStem: 0 89<372.484 586.701> 199 94<-151.447 265 290 650> 343 94<-152.583 642.801>
LayerCount: 2
Fore
SplineSet
437 -100 m 1
 442 -140 429 -150 491 -160 c 0
 494 -160 504 -160 514 -161 c 1
 514 -186 l 1
 343 -186 l 1
 343 650 l 1
 293 650 l 1
 293 -186 l 1
 119 -186 l 1
 119 -161 l 1
 192 -154 199 -149 199 -108 c 2
 199 265 l 1
 148 267 122 274 92 291 c 0
 32 327 0 393 0 480 c 0
 0 615 69 677 220 677 c 2
 519 677 l 1
 519 650 l 1
 508 650 497 649 494 649 c 0
 444 643 438 639 438 599 c 1
 437 589 l 1
 437 -100 l 1
199 290 m 1
 199 650 l 1
 152 639 132 627 116 598 c 1
 100 573 89 532 89 483 c 0
 89 378 125 316 199 290 c 1
EndSplineSet
EndChar

StartChar: copyright
Encoding: 169 169 247
Width: 745
Flags: W
HStem: -19 53<272.782 475.293> 142 24<351.874 456.916> 521 22<351.667 453.236> 639 52<274.875 472.633>
VStem: 26 71<219.2 452.143> 176 102<244.511 434.379> 508 19<432 458.53> 650 71<218.317 452.843>
LayerCount: 2
Fore
SplineSet
524 256 m 1
 543 256 l 1
 527 182 l 1
 527 167 502 160 485 157 c 1
 448 146 420 142 390 142 c 0
 259 142 176 218 176 340 c 0
 176 464 264 543 401 543 c 0
 439 543 464 539 505 524 c 0
 521 519 527 514 527 504 c 2
 527 432 l 1
 508 432 l 1
 491 494 457 521 401 521 c 0
 322 521 278 458 278 344 c 0
 278 230 324 166 401 166 c 0
 457 166 494 190 524 256 c 1
374 691 m 0
 568 691 721 536 721 337 c 0
 721 133 571 -19 369 -19 c 0
 179 -19 26 138 26 335 c 0
 26 535 179 691 374 691 c 0
374 639 m 0
 220 639 97 504 97 335 c 0
 97 168 220 34 371 34 c 0
 527 34 650 166 650 335 c 0
 650 504 527 639 374 639 c 0
EndSplineSet
EndChar

StartChar: trademark
Encoding: 8482 8482 248
Width: 998
Flags: W
HStem: 272 22<108 151.955 256.635 302 445 481.752 541.039 579 781 825.318 929.159 974> 587 90<23 53.8434 356.573 387> 652 25<74.1129 158 250 336.303 428 466.643 931.393 977>
VStem: 23 24<587 620.019> 158 92<298 652> 363 24<587 619.583> 497 29<305.318 567> 831 92<297.719 568>
DStem2: 565 677 497 601 0.460082 -0.887877<0 36.1931 79.7233 322.816> 707 387 681 271 0.450816 0.892617<0 217.465>
LayerCount: 2
Fore
SplineSet
250 652 m 1xbf
 250 343 l 2
 250 300 252 299 302 294 c 1
 302 272 l 1
 108 272 l 1
 108 294 l 1
 157 299 158 300 158 343 c 2
 158 652 l 1
 111 652 l 2xbf
 78 652 59 634 47 587 c 1
 23 587 l 1
 23 677 l 1
 387 677 l 1
 387 587 l 1
 363 587 l 1xdf
 352 633 333 652 297 652 c 2
 250 652 l 1xbf
668 271 m 1
 526 567 l 1
 526 365 l 2
 526 309 533 299 579 294 c 1
 579 272 l 1
 445 272 l 1
 445 294 l 1
 489 299 497 309 497 365 c 2
 497 601 l 1
 482 634 457 652 428 653 c 1
 428 677 l 1
 565 677 l 1
 707 387 l 1
 858 677 l 1
 977 677 l 1
 977 653 l 1
 933 650 923 642 923 605 c 2
 923 343 l 2
 923 300 924 299 974 294 c 1
 974 272 l 1
 781 272 l 1
 781 294 l 1
 831 299 831 300 831 343 c 2
 831 568 l 1
 681 271 l 1
 668 271 l 1
EndSplineSet
EndChar

StartChar: guillemotleft
Encoding: 171 171 249
Width: 499
Flags: W
LayerCount: 2
Fore
SplineSet
265 37 m 0
 247 37 233 56 229 59 c 2
 23 226 l 1
 23 229 l 1
 226 393 l 2
 242 406 253 415 264 415 c 0
 271 415 275 412 275 404 c 0
 275 376 208 283 160 227 c 1
 196 170 277 89 277 51 c 0
 277 42 272 37 265 37 c 0
461 37 m 0
 444 37 429 56 425 59 c 2
 220 226 l 1
 220 229 l 1
 422 393 l 2
 436 405 448 415 458 415 c 0
 467 415 472 412 472 404 c 0
 472 369 386 265 354 227 c 1
 391 179 473 84 473 51 c 0
 473 42 469 37 461 37 c 0
EndSplineSet
EndChar

StartChar: guillemotright
Encoding: 187 187 250
Width: 499
Flags: W
LayerCount: 2
Fore
SplineSet
78 59 m 2
 58 43 48 37 41 37 c 0
 34 37 29 40 29 47 c 0
 29 76 96 163 145 224 c 1
 109 276 26 360 26 400 c 0
 26 409 32 415 38 415 c 0
 48 415 63 402 75 393 c 2
 281 226 l 1
 281 223 l 1
 78 59 l 2
234 415 m 0
 249 415 268 396 271 393 c 2
 478 226 l 1
 478 223 l 1
 274 59 l 2
 265 52 252 37 237 37 c 0
 229 37 226 40 226 47 c 0
 226 80 295 167 341 224 c 1
 315 264 223 359 223 400 c 0
 223 409 229 415 234 415 c 0
EndSplineSet
EndChar

StartChar: questiondown
Encoding: 191 191 251
Width: 499
Flags: W
HStem: -201 35<242.609 339.123> 333 168<205.945 317.219>
VStem: 56 148<-117.669 45.9105> 177 169<362.024 473.571> 248 30<178.113 256> 349 93<-127.974 -35>
LayerCount: 2
Fore
SplineSet
349 -125 m 0xec
 349 -97 312 -94 312 -45 c 0
 312 -7 337 19 375 19 c 0
 415 19 442 -13 442 -57 c 0
 442 -141 365 -201 255 -201 c 0
 135 -201 56 -135 56 -35 c 0
 56 34 85 75 176 130 c 1
 239 170 248 185 248 256 c 1
 277 256 l 1
 278 243 l 1
 278 211 l 2
 278 127 204 85 204 -35 c 0
 204 -117 234 -166 289 -166 c 0
 324 -166 349 -149 349 -125 c 0xec
262 501 m 0
 309 501 346 464 346 416 c 0
 346 371 308 333 261 333 c 0
 215 333 177 371 177 417 c 0xd4
 177 464 214 501 262 501 c 0
EndSplineSet
EndChar

StartChar: exclamdown
Encoding: 161 161 252
Width: 332
Flags: W
HStem: 333 168<109.976 222.359>
VStem: 83 169<-175.473 -5.22046 363.731 472.055>
LayerCount: 2
Fore
SplineSet
168 501 m 0
 215 501 250 464 250 416 c 0
 250 371 212 333 167 333 c 0
 120 333 82 371 82 417 c 0
 82 464 120 501 168 501 c 0
83 -103 m 0
 83 -21 130 2 152 253 c 1
 182 253 l 1
 211 -17 252 -22 252 -103 c 0
 252 -166 220 -204 167 -204 c 0
 114 -204 83 -166 83 -103 c 0
EndSplineSet
EndChar

StartChar: quotedblbase
Encoding: 8222 8222 253
Width: 499
Flags: W
HStem: -4 159<38.6042 128.601 307.878 399.601>
VStem: 130 68<-49.8894 74> 400 69<-47.2161 74>
LayerCount: 2
Fore
SplineSet
302 -180 m 1
 291 -158 l 1
 366 -105 400 -64 400 -26 c 0
 400 -13 393 -4 381 -4 c 0
 367 -4 374 -6 357 -6 c 0
 313 -6 284 26 284 72 c 0
 284 122 316 155 368 155 c 0
 428 155 469 108 469 40 c 0
 469 -47 417 -113 302 -180 c 1
32 -180 m 1
 21 -158 l 1
 97 -105 130 -64 130 -26 c 0
 130 -13 122 -4 111 -4 c 0
 96 -4 106 -6 86 -6 c 0
 44 -6 15 26 15 72 c 0
 15 122 47 155 97 155 c 0
 157 155 198 108 198 40 c 0
 198 -47 148 -113 32 -180 c 1
EndSplineSet
EndChar

StartChar: germandbls
Encoding: 223 223 254
Width: 555
Flags: W
HStem: -12 35<272.091 347.708> 0 23<19 53.0517> 374 33<270 323.439> 664 27<232.013 305.522>
VStem: 70 139<31.5173 592.886> 338 138<466.725 608.559> 371 146<100.306 284.766>
LayerCount: 2
Fore
SplineSet
371 195 m 0xba
 371 344 339 368 270 374 c 1
 270 407 l 1
 327 409 338 431 338 530 c 0
 338 624 318 664 268 664 c 0
 230 664 209 636 209 586 c 2
 209 0 l 1
 19 0 l 1
 19 23 l 1
 62 31 70 41 70 86 c 2
 70 507 l 2
 70 614 157 691 277 691 c 0
 391 691 476 625 476 538 c 0x7c
 476 422 342 398 319 393 c 1
 404 368 517 334 517 193 c 0
 517 81 434 -12 328 -12 c 0
 311 -12 294 -7 264 3 c 1
 278 37 l 1
 295 25 295 23 311 23 c 0
 357 23 371 63 371 195 c 0xba
EndSplineSet
EndChar

StartChar: acute
Encoding: 180 180 255
Width: 332
Flags: W
HStem: 527 186
VStem: 86 238
LayerCount: 2
Fore
SplineSet
86 527 m 1
 223 686 l 2
 240 705 256 713 275 713 c 0
 305 713 324 694 324 669 c 0
 324 646 315 637 284 617 c 2
 142 527 l 1
 86 527 l 1
EndSplineSet
EndChar

StartChar: circumflex
Encoding: 710 710 256
Width: 332
Flags: W
HStem: 527 178
LayerCount: 2
Fore
SplineSet
278 527 m 1
 166 625 l 1
 54 527 l 1
 -1 527 l 1
 120 705 l 1
 212 705 l 1
 335 527 l 1
 278 527 l 1
EndSplineSet
EndChar

StartChar: caron
Encoding: 711 711 257
Width: 332
Flags: W
HStem: 527 178
LayerCount: 2
Fore
SplineSet
335 705 m 1
 212 527 l 1
 120 527 l 1
 -1 705 l 1
 54 705 l 1
 166 605 l 1
 278 705 l 1
 335 705 l 1
EndSplineSet
EndChar

StartChar: breve
Encoding: 728 728 258
Width: 332
Flags: W
HStem: 527 76<94.3188 236.614> 671 20G<15 64.5 265 318>
VStem: 15 44<639.247 691> 274 44<641.944 691>
LayerCount: 2
Fore
SplineSet
318 691 m 1
 313 651 303 527 166 527 c 0
 45 527 19 612 15 691 c 1
 59 691 l 1
 70 630 103 603 166 603 c 0
 229 603 256 628 274 691 c 1
 318 691 l 1
EndSplineSet
EndChar

StartChar: dotaccent
Encoding: 729 729 259
Width: 332
Flags: W
HStem: 538 128<119.994 213.814>
VStem: 103 128<553.143 648.8>
LayerCount: 2
Fore
SplineSet
166 666 m 0
 202 666 231 636 231 601 c 0
 231 565 204 538 166 538 c 0
 130 538 103 565 103 603 c 0
 103 636 133 666 166 666 c 0
EndSplineSet
EndChar

StartChar: ring
Encoding: 730 730 260
Width: 332
Flags: W
HStem: 538 46<121.556 211.091> 702 48<122.749 210.816>
VStem: 60 48<597.272 687.901> 226 46<598.923 686.99>
LayerCount: 2
Fore
SplineSet
167 750 m 0
 226 750 272 702 272 643 c 0
 272 584 226 538 166 538 c 0
 107 538 60 584 60 645 c 0
 60 702 108 750 167 750 c 0
166 702 m 0
 135 702 108 674 108 643 c 0
 108 611 133 584 166 584 c 0
 198 584 226 611 226 642 c 0
 226 674 198 702 166 702 c 0
EndSplineSet
EndChar

StartChar: ogonek
Encoding: 731 731 261
Width: 332
Flags: W
HStem: -173 69<186.953 269.235>
VStem: 89 85<-115.547 -30.7159>
LayerCount: 2
Fore
SplineSet
237 -104 m 0
 267 -104 281 -91 297 -83 c 1
 319 -98 l 1
 294 -144 246 -173 196 -173 c 0
 135 -173 89 -139 89 -92 c 0
 89 -41 141 6 158 32 c 1
 190 44 l 1
 190 32 174 -18 174 -40 c 0
 174 -81 196 -104 237 -104 c 0
EndSplineSet
EndChar

StartChar: tilde
Encoding: 732 732 262
Width: 332
Flags: W
HStem: 546 79<191.778 292.146> 596 78<34.4724 137.187>
VStem: -16 42<549 586.234>
LayerCount: 2
Fore
SplineSet
26 549 m 1x60
 -16 549 l 1
 1 636 38 674 100 674 c 0x60
 162 674 215 625 252 625 c 0xa0
 278 625 293 639 306 674 c 1
 349 674 l 1x60
 327 587 289 546 231 546 c 0xa0
 176 546 110 596 75 596 c 0
 48 596 29 577 26 549 c 1x60
EndSplineSet
EndChar

StartChar: hungarumlaut
Encoding: 733 733 263
Width: 332
Flags: W
HStem: 527 186<-12 8>
LayerCount: 2
Fore
SplineSet
-13 527 m 1
 125 686 l 2
 141 705 158 713 177 713 c 0
 207 713 226 694 226 669 c 0
 226 646 217 636 185 617 c 2
 42 527 l 1
 -13 527 l 1
187 527 m 1
 324 686 l 2
 341 705 357 713 376 713 c 0
 406 713 425 694 425 669 c 0
 425 646 416 637 385 617 c 2
 243 527 l 1
 187 527 l 1
EndSplineSet
EndChar

StartChar: dieresis
Encoding: 168 168 264
Width: 332
Flags: W
HStem: 538 128<15.9586 109.088 224.644 320.047>
VStem: -1 128<553.944 648.8> 208 129<554.15 648.8>
LayerCount: 2
Fore
SplineSet
62 666 m 0
 97 666 127 636 127 601 c 0
 127 565 98 538 62 538 c 0
 26 538 -1 567 -1 602 c 0
 -1 636 28 666 62 666 c 0
271 666 m 0
 308 666 337 636 337 601 c 0
 337 565 308 538 271 538 c 0
 236 538 208 565 208 603 c 0
 208 636 237 666 271 666 c 0
EndSplineSet
EndChar

StartChar: cedilla
Encoding: 184 184 265
Width: 332
Flags: W
HStem: -218 41<76.1265 194.223> -20 20G<150.928 201>
VStem: 201 93<-170.352 -104.396>
DStem2: 160 0 173 -64 0.419917 0.907562<-52.6251 0>
LayerCount: 2
Fore
SplineSet
83 -163 m 1
 94 -168 120 -177 144 -177 c 0
 180 -177 201 -163 201 -136 c 0
 201 -114 185 -100 155 -100 c 0
 146 -100 138 -101 127 -104 c 1
 116 -97 l 1
 160 0 l 1
 201 0 l 1
 173 -64 l 1
 185 -60 193 -59 207 -59 c 0
 261 -59 294 -85 294 -129 c 0
 294 -185 245 -218 164 -218 c 0
 130 -218 104 -212 67 -201 c 1
 83 -163 l 1
EndSplineSet
EndChar

StartChar: Eth
Encoding: 208 208 281
Width: 720
Flags: W
HStem: 0 35<267.293 397.875> 0 25<15 70.5803> 327 47<6 97 259 374> 642 35<264.582 391.207> 650 27<15 73.1183>
VStem: 97 162<40.8712 327 374 635.09> 516 174<217.554 469.598>
LayerCount: 2
Fore
SplineSet
6 327 m 1x66
 6 374 l 1
 97 374 l 1
 97 584 l 2
 97 630 78 645 15 650 c 1
 15 677 l 1x6e
 319 677 l 2
 549 677 690 551 690 346 c 0
 690 138 546 0 330 0 c 2xb6
 15 0 l 1
 15 25 l 1
 72 26 97 47 97 91 c 2
 97 327 l 1
 6 327 l 1x66
319 642 m 0xb6
 259 642 259 618 259 595 c 2
 259 374 l 1
 374 374 l 1
 374 327 l 1
 259 327 l 1
 259 92 l 2
 259 48 272 35 316 35 c 0
 436 35 516 114 516 330 c 0
 516 469 477 642 319 642 c 0xb6
EndSplineSet
EndChar

StartChar: Oslash
Encoding: 216 216 288
Width: 777
Flags: W
HStem: -19 34<317.225 456.441> 658 33<325.381 455.371>
VStem: 35 177<205.385 461.208> 565 178<209.01 467.881>
DStem2: 81 -75 130 -75 0.564975 0.825108<27.6838 155.405 272.916 754.128 870.656 983.549>
LayerCount: 2
Fore
SplineSet
606 623 m 1
 650 586 743 511 743 335 c 0
 743 127 596 -19 390 -19 c 0
 316 -19 265 -4 202 29 c 1
 130 -75 l 1
 81 -75 l 1
 167 53 l 1
 154 64 35 147 35 335 c 0
 35 542 183 691 390 691 c 0
 458 691 508 678 573 645 c 1
 636 737 l 1
 686 737 l 1
 606 623 l 1
234 151 m 1
 520 568 l 1
 485 633 448 658 390 658 c 0
 275 658 212 539 212 328 c 0
 212 253 217 212 234 151 c 1
541 524 m 1
 253 104 l 1
 287 40 327 15 390 15 c 0
 505 15 565 125 565 331 c 0
 565 412 560 458 541 524 c 1
EndSplineSet
EndChar

StartChar: Thorn
Encoding: 222 222 294
Width: 610
Flags: W
HStem: 0 25<16 69.3848 292.689 350> 173 35<262 374.389> 511 35<266.283 376.095> 650 27<16 73.3398 288.676 350>
VStem: 100 162<43.1604 173 208 506.787 546 633.281> 428 173<280.458 447.474>
LayerCount: 2
Fore
SplineSet
262 546 m 1
 328 546 l 2
 507 546 601 483 601 363 c 0
 601 299 568 248 513 212 c 1
 457 180 420 174 262 173 c 1
 262 117 l 2
 262 44 271 35 350 25 c 1
 350 0 l 1
 16 0 l 1
 16 25 l 1
 77 31 100 43 100 117 c 2
 100 560 l 2
 100 628 86 645 16 650 c 1
 16 677 l 1
 350 677 l 1
 350 650 l 1
 270 640 262 631 262 558 c 2
 262 546 l 1
262 208 m 1
 373 208 428 222 428 359 c 0
 428 467 395 511 312 511 c 0
 278 511 262 499 262 476 c 2
 262 208 l 1
EndSplineSet
EndChar

StartChar: eth
Encoding: 240 240 310
Width: 499
Flags: W
HStem: -15 33<207.7 294.629> 442 31<208.925 292.62> 666 25<114.4 129.896>
VStem: 25 146<122.309 336.89> 330 146<141.824 402.554>
DStem2: 98 549 146 519 0.893157 0.449746<29.3792 131.034 240.912 313.948>
LayerCount: 2
Fore
SplineSet
335 614 m 1
 389 569 476 495 476 293 c 0
 476 100 393 -15 250 -15 c 0
 122 -15 25 89 25 229 c 0
 25 368 122 473 249 473 c 0
 291 473 313 461 340 432 c 1
 341 435 l 1
 324 492 297 533 256 574 c 1
 146 519 l 1
 98 549 l 1
 215 608 l 1
 171 639 132 658 82 666 c 1
 127 691 l 1
 189 686 237 671 289 645 c 1
 378 691 l 1
 428 661 l 1
 335 614 l 1
252 442 m 0
 190 442 171 388 171 223 c 0
 171 75 187 18 252 18 c 0
 311 18 330 69 330 233 c 0
 330 387 309 442 252 442 c 0
EndSplineSet
EndChar

